SplineFontDB: 3.2
FontName: Krub-SemiBold
FullName: Krub SemiBold
FamilyName: Krub SemiBold
Weight: Demi
Copyright: Copyright 2018 The Krub Project Authors (https://github.com/cadsondemak/Krub)
Version: 1.000; ttfautohint (v1.6)
ItalicAngle: 0
UnderlinePosition: -100
UnderlineWidth: 50
Ascent: 800
Descent: 200
InvalidEm: 0
sfntRevision: 0x00010000
LayerCount: 2
Layer: 0 1 "Back" 1
Layer: 1 1 "Fore" 0
XUID: [1021 226 -1497385041 13741995]
StyleMap: 0x0040
FSType: 0
OS2Version: 3
OS2_WeightWidthSlopeOnly: 0
OS2_UseTypoMetrics: 0
CreationTime: 1534948280
ModificationTime: 1627863205
PfmFamily: 81
TTFWeight: 600
TTFWidth: 5
LineGap: 0
VLineGap: 0
Panose: 0 0 7 0 0 0 0 0 0 0
OS2TypoAscent: 1007
OS2TypoAOffset: 0
OS2TypoDescent: -293
OS2TypoDOffset: 0
OS2TypoLinegap: 0
OS2WinAscent: 1232
OS2WinAOffset: 0
OS2WinDescent: 507
OS2WinDOffset: 0
HheadAscent: 1007
HheadAOffset: 0
HheadDescent: -293
HheadDOffset: 0
OS2SubXSize: 650
OS2SubYSize: 600
OS2SubXOff: 0
OS2SubYOff: 75
OS2SupXSize: 650
OS2SupYSize: 600
OS2SupXOff: 0
OS2SupYOff: 350
OS2StrikeYSize: 50
OS2StrikeYPos: 330
OS2CapHeight: 700
OS2XHeight: 550
OS2Vendor: 'CDK '
OS2CodePages: 20010193.00000000
OS2UnicodeRanges: 21000007.00000001.00000000.00000000
Lookup: 1 0 0 "'aalt' Access All Alternates lookup 0" { "'aalt' Access All Alternates lookup 0 subtable"  } ['aalt' ('DFLT' <'dflt' > 'latn' <'CAT ' 'MOL ' 'ROM ' 'dflt' > 'thai' <'dflt' > ) ]
Lookup: 3 0 0 "'aalt' Access All Alternates lookup 1" { "'aalt' Access All Alternates lookup 1 subtable"  } ['aalt' ('DFLT' <'dflt' > 'latn' <'CAT ' 'MOL ' 'ROM ' 'dflt' > 'thai' <'dflt' > ) ]
Lookup: 6 0 0 "'ccmp' Glyph Composition/Decomposition in Latin lookup 2" { "'ccmp' Glyph Composition/Decomposition in Latin lookup 2 contextual 0"  "'ccmp' Glyph Composition/Decomposition in Latin lookup 2 contextual 1"  } ['ccmp' ('latn' <'dflt' > ) ]

StartChar: A
Encoding: 65 65 4
Width: 647
GlyphClass: 2
Flags: W
AnchorPoint: "Anchor-10" 0 0 basechar 0
AnchorPoint: "Anchor-9" 323 660 basechar 0
AnchorPoint: "Anchor-8" 632 0 basechar 0
AnchorPoint: "Anchor-7" 323 0 basechar 0
LayerCount: 2
Fore
SplineSet
472 183 m 1,1,-1
 175 183 l 1,2,3
 155 89 155 89 140 0 c 1,4,-1
 15 0 l 1,5,6
 45 192 45 192 105 364.5 c 128,-1,7
 165 537 165 537 260 700 c 1,8,-1
 388 700 l 1,9,10
 482 538 482 538 542 365.5 c 128,-1,11
 602 193 602 193 632 0 c 1,12,-1
 507 0 l 1,13,0
 492 89 492 89 472 183 c 1,1,-1
449 276 m 1,14,15
 402 449 402 449 323 600 c 1,16,17
 244 447 244 447 198 276 c 1,18,-1
 449 276 l 1,14,15
EndSplineSet
Substitution2: "Single Substitution lookup 20 subtable" ordfeminine
Substitution2: "'aalt' Access All Alternates lookup 0 subtable" ordfeminine
EndChar

StartChar: AE
Encoding: 198 198 28
Width: 957
GlyphClass: 2
Flags: W
AnchorPoint: "Anchor-10" 0 0 basechar 0
AnchorPoint: "Anchor-9" 545 700 basechar 0
AnchorPoint: "Anchor-8" 0 0 basechar 0
AnchorPoint: "Anchor-7" 485 0 basechar 0
LayerCount: 2
Fore
SplineSet
907 87 m 1,0,1
 907 38 907 38 894 19 c 128,-1,2
 881 0 881 0 841 0 c 2,3,-1
 473 0 l 1,4,-1
 473 206 l 1,5,-1
 199 206 l 1,6,7
 162 108 162 108 142 0 c 1,8,-1
 15 0 l 1,9,10
 56 202 56 202 150 383.5 c 128,-1,11
 244 565 244 565 402 700 c 1,12,-1
 905 700 l 1,13,-1
 905 613 l 1,14,-1
 592 613 l 1,15,-1
 592 403 l 1,16,-1
 862 403 l 1,17,-1
 862 316 l 1,18,-1
 592 316 l 1,19,-1
 592 87 l 1,20,-1
 907 87 l 1,0,1
473 293 m 1,21,-1
 473 613 l 1,22,-1
 464 613 l 1,23,24
 396 553 396 553 337.5 471.5 c 128,-1,25
 279 390 279 390 235 293 c 1,26,-1
 473 293 l 1,21,-1
EndSplineSet
EndChar

StartChar: B
Encoding: 66 66 30
Width: 622
GlyphClass: 2
Flags: W
AnchorPoint: "Anchor-10" 0 0 basechar 0
AnchorPoint: "Anchor-9" 308 660 basechar 0
AnchorPoint: "Anchor-8" 0 0 basechar 0
AnchorPoint: "Anchor-7" 308 0 basechar 0
LayerCount: 2
Fore
SplineSet
551.5 302.5 m 128,-1,1
 585 258 585 258 585 201 c 0,2,3
 585 105 585 105 519.5 52.5 c 128,-1,4
 454 0 454 0 333 0 c 2,5,-1
 79 0 l 1,6,-1
 79 700 l 1,7,-1
 323 700 l 2,8,9
 430 700 430 700 491.5 648.5 c 128,-1,10
 553 597 553 597 553 509 c 0,11,12
 553 458 553 458 529 418.5 c 128,-1,13
 505 379 505 379 464 362 c 1,14,0
 518 347 518 347 551.5 302.5 c 128,-1,1
296 609 m 2,16,-1
 206 609 l 1,17,-1
 206 402 l 1,18,-1
 293 402 l 2,19,20
 361 402 361 402 393 428 c 128,-1,21
 425 454 425 454 425 509 c 0,22,15
 425 609 425 609 296 609 c 2,16,-1
397 101.5 m 128,-1,24
 429 112 429 112 443 135.5 c 128,-1,25
 457 159 457 159 457 201 c 0,26,27
 457 261 457 261 422.5 286.5 c 128,-1,28
 388 312 388 312 307 312 c 2,29,-1
 206 312 l 1,30,-1
 206 91 l 1,31,-1
 309 91 l 2,32,23
 365 91 365 91 397 101.5 c 128,-1,24
EndSplineSet
EndChar

StartChar: C
Encoding: 67 67 31
Width: 623
GlyphClass: 2
Flags: W
AnchorPoint: "Anchor-10" 0 0 basechar 0
AnchorPoint: "Anchor-9" 365 660 basechar 0
AnchorPoint: "Anchor-8" 0 0 basechar 0
AnchorPoint: "Anchor-7" 365 0 basechar 0
LayerCount: 2
Fore
SplineSet
135 83.5 m 128,-1,1
 52 177 52 177 52 349 c 0,2,3
 52 520 52 520 136 615 c 128,-1,4
 220 710 220 710 372 710 c 0,5,6
 433 710 433 710 488.5 689 c 128,-1,7
 544 668 544 668 579 632 c 1,8,9
 574 604 574 604 557 582 c 128,-1,10
 540 560 540 560 524 560 c 0,11,12
 510 560 510 560 498 569 c 0,13,14
 466 593 466 593 436 604 c 128,-1,15
 406 615 406 615 370 615 c 0,16,17
 277 615 277 615 229.5 548 c 128,-1,18
 182 481 182 481 182 349 c 0,19,20
 182 218 182 218 229.5 151.5 c 128,-1,21
 277 85 277 85 370 85 c 256,22,23
 463 85 463 85 529 151 c 1,24,25
 549 143 549 143 561 127 c 128,-1,26
 573 111 573 111 573 92 c 0,27,28
 573 65 573 65 545 41.5 c 128,-1,29
 517 18 517 18 471 4 c 128,-1,30
 425 -10 425 -10 372 -10 c 0,31,0
 218 -10 218 -10 135 83.5 c 128,-1,1
EndSplineSet
EndChar

StartChar: Ccedilla
Encoding: 199 199 34
Width: 623
GlyphClass: 2
Flags: W
AnchorPoint: "Anchor-10" 0 0 basechar 0
AnchorPoint: "Anchor-9" 0 0 basechar 0
AnchorPoint: "Anchor-8" 0 0 basechar 0
AnchorPoint: "Anchor-7" 365 -214 basechar 0
LayerCount: 2
Fore
SplineSet
561 127 m 128,-1,1
 573 111 573 111 573 92 c 0,2,3
 573 56 573 56 524 27 c 128,-1,4
 475 -2 475 -2 405 -8 c 1,5,-1
 366 -52 l 1,6,-1
 376 -52 l 2,7,8
 420 -52 420 -52 447.5 -75 c 128,-1,9
 475 -98 475 -98 475 -136 c 0,10,11
 475 -183 475 -183 441.5 -209.5 c 128,-1,12
 408 -236 408 -236 341 -236 c 0,13,14
 289 -236 289 -236 265 -222.5 c 128,-1,15
 241 -209 241 -209 241 -186 c 0,16,17
 241 -177 241 -177 244 -166 c 1,18,19
 256 -171 256 -171 279 -174 c 128,-1,20
 302 -177 302 -177 328 -177 c 0,21,22
 359 -177 359 -177 372.5 -167.5 c 128,-1,23
 386 -158 386 -158 386 -138 c 0,24,25
 386 -126 386 -126 376 -117 c 128,-1,26
 366 -108 366 -108 347 -108 c 0,27,28
 329 -108 329 -108 315 -114 c 1,29,-1
 284 -75 l 1,30,-1
 330 -8 l 1,31,32
 196 5 196 5 124 97 c 128,-1,33
 52 189 52 189 52 349 c 0,34,35
 52 520 52 520 136 615 c 128,-1,36
 220 710 220 710 372 710 c 0,37,38
 433 710 433 710 488.5 689 c 128,-1,39
 544 668 544 668 579 632 c 1,40,41
 574 604 574 604 557 582 c 128,-1,42
 540 560 540 560 524 560 c 0,43,44
 510 560 510 560 498 569 c 0,45,46
 466 593 466 593 436 604 c 128,-1,47
 406 615 406 615 370 615 c 0,48,49
 277 615 277 615 229.5 548 c 128,-1,50
 182 481 182 481 182 349 c 0,51,52
 182 218 182 218 229.5 151.5 c 128,-1,53
 277 85 277 85 370 85 c 256,54,55
 463 85 463 85 529 151 c 1,56,0
 549 143 549 143 561 127 c 128,-1,1
EndSplineSet
EndChar

StartChar: D
Encoding: 68 68 37
Width: 679
GlyphClass: 2
Flags: W
AnchorPoint: "Anchor-10" 0 0 basechar 0
AnchorPoint: "Anchor-9" 336 660 basechar 0
AnchorPoint: "Anchor-8" 0 0 basechar 0
AnchorPoint: "Anchor-7" 336 0 basechar 0
LayerCount: 2
Fore
SplineSet
546.5 608 m 128,-1,1
 635 516 635 516 635 350 c 0,2,3
 635 244 635 244 594 165 c 128,-1,4
 553 86 553 86 477.5 43 c 128,-1,5
 402 0 402 0 300 0 c 2,6,-1
 73 0 l 1,7,-1
 73 700 l 1,8,-1
 300 700 l 2,9,0
 458 700 458 700 546.5 608 c 128,-1,1
450.5 157.5 m 128,-1,11
 508 224 508 224 508 349 c 0,12,13
 508 609 508 609 286 609 c 2,14,-1
 199 609 l 1,15,-1
 199 91 l 1,16,-1
 286 91 l 2,17,10
 393 91 393 91 450.5 157.5 c 128,-1,11
EndSplineSet
EndChar

StartChar: Eth
Encoding: 208 208 38
Width: 672
GlyphClass: 2
Flags: W
AnchorPoint: "Anchor-10" 0 0 basechar 0
AnchorPoint: "Anchor-9" 336 660 basechar 0
AnchorPoint: "Anchor-8" 0 0 basechar 0
AnchorPoint: "Anchor-7" 336 0 basechar 0
LayerCount: 2
Fore
SplineSet
546.5 608 m 128,-1,1
 635 516 635 516 635 350 c 0,2,3
 635 244 635 244 594 165 c 128,-1,4
 553 86 553 86 477.5 43 c 128,-1,5
 402 0 402 0 300 0 c 2,6,-1
 73 0 l 1,7,-1
 73 314 l 1,8,-1
 1 314 l 1,9,-1
 1 397 l 1,10,-1
 73 397 l 1,11,-1
 73 700 l 1,12,-1
 300 700 l 2,13,0
 458 700 458 700 546.5 608 c 128,-1,1
450.5 157.5 m 128,-1,15
 508 224 508 224 508 349 c 0,16,17
 508 609 508 609 286 609 c 2,18,-1
 199 609 l 1,19,-1
 199 397 l 1,20,-1
 346 397 l 1,21,-1
 346 314 l 1,22,-1
 199 314 l 1,23,-1
 199 91 l 1,24,-1
 286 91 l 2,25,14
 393 91 393 91 450.5 157.5 c 128,-1,15
EndSplineSet
EndChar

StartChar: Dcroat
Encoding: 272 272 40
Width: 672
GlyphClass: 2
Flags: W
AnchorPoint: "Anchor-10" 0 0 basechar 0
AnchorPoint: "Anchor-9" 336 660 basechar 0
AnchorPoint: "Anchor-8" 0 0 basechar 0
AnchorPoint: "Anchor-7" 336 0 basechar 0
LayerCount: 2
Fore
SplineSet
546.5 608 m 128,-1,1
 635 516 635 516 635 350 c 0,2,3
 635 244 635 244 594 165 c 128,-1,4
 553 86 553 86 477.5 43 c 128,-1,5
 402 0 402 0 300 0 c 2,6,-1
 73 0 l 1,7,-1
 73 314 l 1,8,-1
 1 314 l 1,9,-1
 1 397 l 1,10,-1
 73 397 l 1,11,-1
 73 700 l 1,12,-1
 300 700 l 2,13,0
 458 700 458 700 546.5 608 c 128,-1,1
450.5 157.5 m 128,-1,15
 508 224 508 224 508 349 c 0,16,17
 508 609 508 609 286 609 c 2,18,-1
 199 609 l 1,19,-1
 199 397 l 1,20,-1
 346 397 l 1,21,-1
 346 314 l 1,22,-1
 199 314 l 1,23,-1
 199 91 l 1,24,-1
 286 91 l 2,25,14
 393 91 393 91 450.5 157.5 c 128,-1,15
EndSplineSet
EndChar

StartChar: E
Encoding: 69 69 43
Width: 560
GlyphClass: 2
Flags: W
AnchorPoint: "Anchor-10" 0 0 basechar 0
AnchorPoint: "Anchor-9" 280 660 basechar 0
AnchorPoint: "Anchor-8" 493 10 basechar 0
AnchorPoint: "Anchor-7" 280 0 basechar 0
LayerCount: 2
Fore
SplineSet
512 91 m 1,0,1
 512 38 512 38 501 19 c 128,-1,2
 490 0 490 0 460 0 c 2,3,-1
 73 0 l 1,4,-1
 73 700 l 1,5,-1
 504 700 l 1,6,-1
 504 609 l 1,7,-1
 199 609 l 1,8,-1
 199 405 l 1,9,-1
 456 405 l 1,10,-1
 456 315 l 1,11,-1
 199 315 l 1,12,-1
 199 91 l 1,13,-1
 512 91 l 1,0,1
EndSplineSet
EndChar

StartChar: Eogonek
Encoding: 280 280 59
Width: 560
GlyphClass: 2
Flags: W
AnchorPoint: "Anchor-10" 0 0 basechar 0
AnchorPoint: "Anchor-9" 280 660 basechar 0
AnchorPoint: "Anchor-8" 493 10 basechar 0
AnchorPoint: "Anchor-7" 280 0 basechar 0
LayerCount: 2
Fore
SplineSet
532 -157 m 0,1,2
 532 -177 532 -177 512 -188.5 c 128,-1,3
 492 -200 492 -200 455 -200 c 0,4,5
 403 -200 403 -200 374.5 -178.5 c 128,-1,6
 346 -157 346 -157 346 -115 c 0,7,8
 346 -44 346 -44 421 0 c 1,9,-1
 73 0 l 1,10,-1
 73 700 l 1,11,-1
 504 700 l 1,12,-1
 504 609 l 1,13,-1
 199 609 l 1,14,-1
 199 405 l 1,15,-1
 456 405 l 1,16,-1
 456 315 l 1,17,-1
 199 315 l 1,18,-1
 199 91 l 1,19,-1
 512 91 l 1,20,21
 512 54 512 54 507 34.5 c 128,-1,22
 502 15 502 15 490 7 c 0,23,24
 466 -18 466 -18 453 -42 c 128,-1,25
 440 -66 440 -66 440 -93 c 0,26,27
 440 -114 440 -114 450 -125 c 128,-1,28
 460 -136 460 -136 477 -136 c 0,29,30
 498 -136 498 -136 516 -126 c 1,31,0
 532 -138 532 -138 532 -157 c 0,1,2
EndSplineSet
EndChar

StartChar: F
Encoding: 70 70 61
Width: 530
GlyphClass: 2
Flags: W
AnchorPoint: "Anchor-10" 0 0 basechar 0
AnchorPoint: "Anchor-9" 292 660 basechar 0
AnchorPoint: "Anchor-8" 0 0 basechar 0
AnchorPoint: "Anchor-7" 122 0 basechar 0
LayerCount: 2
Fore
SplineSet
199 609 m 1,0,-1
 199 404 l 1,1,-1
 455 404 l 1,2,-1
 455 313 l 1,3,-1
 199 313 l 1,4,-1
 199 0 l 1,5,-1
 73 0 l 1,6,-1
 73 700 l 1,7,-1
 498 700 l 1,8,-1
 498 609 l 1,9,-1
 199 609 l 1,0,-1
EndSplineSet
EndChar

StartChar: G
Encoding: 71 71 62
Width: 679
GlyphClass: 2
Flags: W
AnchorPoint: "Anchor-10" 0 0 basechar 0
AnchorPoint: "Anchor-9" 377 660 basechar 0
AnchorPoint: "Anchor-8" 0 0 basechar 0
AnchorPoint: "Anchor-7" 377 0 basechar 0
LayerCount: 2
Fore
SplineSet
624 380 m 1,0,-1
 624 73 l 1,1,2
 581 32 581 32 518.5 11 c 128,-1,3
 456 -10 456 -10 380 -10 c 0,4,5
 220 -10 220 -10 137.5 81 c 128,-1,6
 55 172 55 172 55 350 c 0,7,8
 55 461 55 461 95 542 c 128,-1,9
 135 623 135 623 210 666.5 c 128,-1,10
 285 710 285 710 387 710 c 0,11,12
 461 710 461 710 522.5 689 c 128,-1,13
 584 668 584 668 621 629 c 1,14,15
 612 602 612 602 593.5 580 c 128,-1,16
 575 558 575 558 561 558 c 0,17,18
 549 558 549 558 531 569 c 0,19,20
 497 594 497 594 462 605 c 128,-1,21
 427 616 427 616 385 616 c 0,22,23
 287 616 287 616 236 548 c 128,-1,24
 185 480 185 480 185 350 c 0,25,26
 185 84 185 84 379 84 c 0,27,28
 418 84 418 84 450 92.5 c 128,-1,29
 482 101 482 101 499 115 c 1,30,-1
 499 289 l 1,31,-1
 411 289 l 2,32,33
 383 289 383 289 372 309.5 c 128,-1,34
 361 330 361 330 361 380 c 1,35,-1
 624 380 l 1,0,-1
EndSplineSet
EndChar

StartChar: H
Encoding: 72 72 69
Width: 693
GlyphClass: 2
Flags: W
AnchorPoint: "Anchor-10" 0 0 basechar 0
AnchorPoint: "Anchor-9" 347 660 basechar 0
AnchorPoint: "Anchor-8" 0 0 basechar 0
AnchorPoint: "Anchor-7" 347 0 basechar 0
LayerCount: 2
Fore
SplineSet
621 700 m 1,0,-1
 621 0 l 1,1,-1
 494 0 l 1,2,-1
 494 310 l 1,3,-1
 199 310 l 1,4,-1
 199 0 l 1,5,-1
 73 0 l 1,6,-1
 73 700 l 1,7,-1
 199 700 l 1,8,-1
 199 403 l 1,9,-1
 494 403 l 1,10,-1
 494 700 l 1,11,-1
 621 700 l 1,0,-1
EndSplineSet
EndChar

StartChar: Hbar
Encoding: 294 294 70
Width: 693
GlyphClass: 2
Flags: W
AnchorPoint: "Anchor-10" 0 0 basechar 0
AnchorPoint: "Anchor-9" 347 660 basechar 0
AnchorPoint: "Anchor-8" 0 0 basechar 0
AnchorPoint: "Anchor-7" 347 0 basechar 0
LayerCount: 2
Fore
SplineSet
683 524 m 1,0,-1
 621 524 l 1,1,-1
 621 0 l 1,2,-1
 494 0 l 1,3,-1
 494 310 l 1,4,-1
 199 310 l 1,5,-1
 199 0 l 1,6,-1
 73 0 l 1,7,-1
 73 524 l 1,8,-1
 10 524 l 1,9,-1
 10 584 l 1,10,-1
 73 584 l 1,11,-1
 73 700 l 1,12,-1
 199 700 l 1,13,-1
 199 584 l 1,14,-1
 494 584 l 1,15,-1
 494 700 l 1,16,-1
 621 700 l 1,17,-1
 621 584 l 1,18,-1
 683 584 l 1,19,-1
 683 524 l 1,0,-1
494 524 m 1,20,-1
 199 524 l 1,21,-1
 199 403 l 1,22,-1
 494 403 l 1,23,-1
 494 524 l 1,20,-1
EndSplineSet
EndChar

StartChar: I
Encoding: 73 73 74
Width: 350
GlyphClass: 2
Flags: W
AnchorPoint: "Anchor-10" 0 0 basechar 0
AnchorPoint: "Anchor-9" 175 660 basechar 0
AnchorPoint: "Anchor-8" 238 0 basechar 0
AnchorPoint: "Anchor-7" 175 0 basechar 0
LayerCount: 2
Fore
SplineSet
112 700 m 1,0,-1
 238 700 l 1,1,-1
 238 0 l 1,2,-1
 112 0 l 1,3,-1
 112 700 l 1,0,-1
EndSplineSet
EndChar

StartChar: J
Encoding: 74 74 88
Width: 440
GlyphClass: 2
Flags: W
AnchorPoint: "Anchor-10" 0 0 basechar 0
AnchorPoint: "Anchor-9" 308 660 basechar 0
AnchorPoint: "Anchor-8" 0 0 basechar 0
AnchorPoint: "Anchor-7" 221 0 basechar 0
LayerCount: 2
Fore
SplineSet
78.5 -1.5 m 128,-1,1
 35 7 35 7 17 17 c 1,2,3
 17 99 17 99 51 99 c 0,4,5
 62 99 62 99 80 94 c 0,6,7
 116 84 116 84 149 84 c 0,8,9
 196 84 196 84 220 111 c 128,-1,10
 244 138 244 138 244 190 c 2,11,-1
 244 700 l 1,12,-1
 371 700 l 1,13,-1
 371 190 l 2,14,15
 371 131 371 131 344.5 85.5 c 128,-1,16
 318 40 318 40 270 15 c 128,-1,17
 222 -10 222 -10 160 -10 c 0,18,0
 122 -10 122 -10 78.5 -1.5 c 128,-1,1
EndSplineSet
EndChar

StartChar: K
Encoding: 75 75 90
Width: 650
GlyphClass: 2
Flags: W
AnchorPoint: "Anchor-10" 0 0 basechar 0
AnchorPoint: "Anchor-9" 340 660 basechar 0
AnchorPoint: "Anchor-8" 0 0 basechar 0
AnchorPoint: "Anchor-7" 350 0 basechar 0
LayerCount: 2
Fore
SplineSet
632 4 m 1,0,1
 607 -9 607 -9 551 -9 c 0,2,3
 525 -9 525 -9 509.5 -1.5 c 128,-1,4
 494 6 494 6 484 22 c 2,5,-1
 345 248 l 2,6,7
 328 276 328 276 315.5 288.5 c 128,-1,8
 303 301 303 301 286 305.5 c 128,-1,9
 269 310 269 310 238 310 c 2,10,-1
 220 310 l 1,11,-1
 220 0 l 1,12,-1
 93 0 l 1,13,-1
 93 700 l 1,14,-1
 220 700 l 1,15,-1
 220 399 l 1,16,-1
 271 399 l 1,17,-1
 279 399 l 1,18,-1
 487 700 l 1,19,-1
 624 700 l 1,20,-1
 387 367 l 1,21,22
 427 340 427 340 462 282 c 2,23,-1
 632 4 l 1,0,1
EndSplineSet
EndChar

StartChar: L
Encoding: 76 76 92
Width: 513
GlyphClass: 2
Flags: W
AnchorPoint: "Anchor-10" 476 687 basechar 0
AnchorPoint: "Anchor-9" 149 660 basechar 0
AnchorPoint: "Anchor-8" 0 0 basechar 0
AnchorPoint: "Anchor-7" 292 0 basechar 0
LayerCount: 2
Fore
SplineSet
498 91 m 1,0,-1
 498 0 l 1,1,-1
 86 0 l 1,2,-1
 86 700 l 1,3,-1
 213 700 l 1,4,-1
 213 91 l 1,5,-1
 498 91 l 1,0,-1
EndSplineSet
EndChar

StartChar: Lslash
Encoding: 321 321 100
Width: 547
GlyphClass: 2
Flags: W
AnchorPoint: "Anchor-10" 496 687 basechar 0
AnchorPoint: "Anchor-9" 169 660 basechar 0
AnchorPoint: "Anchor-8" 0 0 basechar 0
AnchorPoint: "Anchor-7" 312 0 basechar 0
LayerCount: 2
Fore
SplineSet
518 91 m 1,0,-1
 518 0 l 1,1,-1
 106 0 l 1,2,-1
 106 326 l 1,3,-1
 17 290 l 1,4,-1
 17 386 l 1,5,-1
 106 422 l 1,6,-1
 106 700 l 1,7,-1
 233 700 l 1,8,-1
 233 473 l 1,9,-1
 369 527 l 1,10,-1
 369 431 l 1,11,-1
 233 377 l 1,12,-1
 233 91 l 1,13,-1
 518 91 l 1,0,-1
EndSplineSet
EndChar

StartChar: M
Encoding: 77 77 101
Width: 840
GlyphClass: 2
Flags: W
AnchorPoint: "Anchor-10" 0 0 basechar 0
AnchorPoint: "Anchor-9" 420 660 basechar 0
AnchorPoint: "Anchor-8" 0 0 basechar 0
AnchorPoint: "Anchor-7" 422 0 basechar 0
LayerCount: 2
Fore
SplineSet
654 0 m 1,0,1
 652 181 652 181 642 308.5 c 128,-1,2
 632 436 632 436 610 559 c 1,3,4
 571 456 571 456 543 365 c 128,-1,5
 515 274 515 274 468 97 c 1,6,-1
 369 97 l 1,7,8
 328 259 328 259 299.5 354.5 c 128,-1,9
 271 450 271 450 230 559 c 1,10,11
 209 436 209 436 198.5 308 c 128,-1,12
 188 180 188 180 184 0 c 1,13,-1
 59 0 l 1,14,15
 63 212 63 212 83.5 378.5 c 128,-1,16
 104 545 104 545 147 700 c 1,17,-1
 288 700 l 1,18,19
 341 571 341 571 367.5 491.5 c 128,-1,20
 394 412 394 412 418 313 c 1,21,22
 443 410 443 410 470.5 488.5 c 128,-1,23
 498 567 498 567 552 700 c 1,24,-1
 693 700 l 1,25,26
 738 544 738 544 759 377 c 128,-1,27
 780 210 780 210 782 0 c 1,28,-1
 654 0 l 1,0,1
EndSplineSet
EndChar

StartChar: N
Encoding: 78 78 103
Width: 697
GlyphClass: 2
Flags: W
AnchorPoint: "Anchor-10" 0 0 basechar 0
AnchorPoint: "Anchor-9" 347 660 basechar 0
AnchorPoint: "Anchor-8" 0 0 basechar 0
AnchorPoint: "Anchor-7" 347 0 basechar 0
LayerCount: 2
Fore
SplineSet
622 64 m 0,1,2
 624 36 624 36 624 27 c 0,3,4
 624 0 624 0 598 0 c 2,5,-1
 495 0 l 1,6,-1
 495 41 l 2,7,8
 495 91 495 91 456 152 c 2,9,-1
 198 525 l 1,10,-1
 198 0 l 1,11,-1
 73 0 l 1,12,-1
 73 700 l 1,13,-1
 184 700 l 2,14,15
 197 700 197 700 205 696.5 c 128,-1,16
 213 693 213 693 222 680 c 2,17,-1
 495 288 l 1,18,-1
 495 700 l 1,19,-1
 620 700 l 1,20,-1
 620 137 l 2,21,0
 620 106 620 106 622 64 c 0,1,2
EndSplineSet
EndChar

StartChar: Eng
Encoding: 330 330 109
Width: 685
Flags: W
LayerCount: 2
Fore
SplineSet
612 700 m 1,0,-1
 612 -46 l 2,1,2
 612 -119 612 -119 568 -162 c 128,-1,3
 524 -205 524 -205 444 -205 c 0,4,5
 402 -205 402 -205 369 -194 c 128,-1,6
 336 -183 336 -183 336 -158 c 0,7,8
 336 -146 336 -146 342 -134.5 c 128,-1,9
 348 -123 348 -123 354 -121 c 1,10,11
 384 -134 384 -134 422 -134 c 0,12,13
 487 -134 487 -134 487 -55 c 2,14,-1
 487 34 l 2,15,16
 487 87 487 87 448 145 c 2,17,-1
 198 516 l 1,18,-1
 198 0 l 1,19,-1
 73 0 l 1,20,-1
 73 700 l 1,21,-1
 184 700 l 2,22,23
 198 700 198 700 205.5 696.5 c 128,-1,24
 213 693 213 693 222 680 c 2,25,-1
 487 289 l 1,26,-1
 487 700 l 1,27,-1
 612 700 l 1,0,-1
EndSplineSet
EndChar

StartChar: O
Encoding: 79 79 112
Width: 680
GlyphClass: 2
Flags: W
AnchorPoint: "Anchor-10" 482 639 basechar 0
AnchorPoint: "Anchor-9" 340 660 basechar 0
AnchorPoint: "Anchor-8" 439 31 basechar 0
AnchorPoint: "Anchor-7" 340 0 basechar 0
LayerCount: 2
Fore
SplineSet
119.5 85.5 m 128,-1,1
 41 181 41 181 41 354 c 0,2,3
 41 524 41 524 119.5 617 c 128,-1,4
 198 710 198 710 340 710 c 256,5,6
 482 710 482 710 560.5 617 c 128,-1,7
 639 524 639 524 639 354 c 0,8,9
 639 181 639 181 560.5 85.5 c 128,-1,10
 482 -10 482 -10 340 -10 c 256,11,0
 198 -10 198 -10 119.5 85.5 c 128,-1,1
467.5 150.5 m 128,-1,13
 509 216 509 216 509 354 c 0,14,15
 509 489 509 489 468 552 c 128,-1,16
 427 615 427 615 340 615 c 256,17,18
 253 615 253 615 212 552 c 128,-1,19
 171 489 171 489 171 354 c 0,20,21
 171 216 171 216 212.5 150.5 c 128,-1,22
 254 85 254 85 340 85 c 256,23,12
 426 85 426 85 467.5 150.5 c 128,-1,13
EndSplineSet
Substitution2: "Single Substitution lookup 20 subtable" ordmasculine
Substitution2: "'aalt' Access All Alternates lookup 0 subtable" ordmasculine
EndChar

StartChar: Ohorn
Encoding: 416 416 126
Width: 680
GlyphClass: 2
Flags: W
AnchorPoint: "Anchor-10" 482 639 basechar 0
AnchorPoint: "Anchor-9" 340 660 basechar 0
AnchorPoint: "Anchor-8" 439 31 basechar 0
AnchorPoint: "Anchor-7" 340 0 basechar 0
LayerCount: 2
Fore
SplineSet
561 616 m 1,1,2
 639 523 639 523 639 354 c 0,3,4
 639 181 639 181 560.5 85.5 c 128,-1,5
 482 -10 482 -10 340 -10 c 256,6,7
 198 -10 198 -10 119.5 85.5 c 128,-1,8
 41 181 41 181 41 354 c 0,9,10
 41 524 41 524 119.5 617 c 128,-1,11
 198 710 198 710 340 710 c 0,12,13
 436 710 436 710 502 668 c 1,14,15
 545 678 545 678 545 733 c 0,16,17
 545 763 545 763 516 785 c 1,18,19
 518 801 518 801 534 813 c 128,-1,20
 550 825 550 825 574 825 c 0,21,22
 609 825 609 825 630.5 802.5 c 128,-1,23
 652 780 652 780 652 743 c 0,24,0
 652 646 652 646 561 616 c 1,1,2
467.5 150.5 m 128,-1,26
 509 216 509 216 509 354 c 0,27,28
 509 489 509 489 468 552 c 128,-1,29
 427 615 427 615 340 615 c 256,30,31
 253 615 253 615 212 552 c 128,-1,32
 171 489 171 489 171 354 c 0,33,34
 171 216 171 216 212.5 150.5 c 128,-1,35
 254 85 254 85 340 85 c 256,36,25
 426 85 426 85 467.5 150.5 c 128,-1,26
EndSplineSet
EndChar

StartChar: Oslash
Encoding: 216 216 134
Width: 680
GlyphClass: 2
Flags: W
AnchorPoint: "Anchor-10" 482 639 basechar 0
AnchorPoint: "Anchor-9" 340 660 basechar 0
AnchorPoint: "Anchor-8" 439 31 basechar 0
AnchorPoint: "Anchor-7" 340 0 basechar 0
LayerCount: 2
Fore
SplineSet
639 354 m 0,1,2
 639 181 639 181 560.5 85.5 c 128,-1,3
 482 -10 482 -10 340 -10 c 0,4,5
 232 -10 232 -10 158 47 c 1,6,-1
 125 0 l 1,7,-1
 53 0 l 1,8,-1
 116 89 l 1,9,10
 41 184 41 184 41 354 c 256,11,12
 41 524 41 524 119.5 617 c 128,-1,13
 198 710 198 710 340 710 c 0,14,15
 447 710 447 710 518 657 c 1,16,-1
 549 701 l 1,17,-1
 621 701 l 1,18,-1
 561 616 l 1,19,0
 639 524 639 524 639 354 c 0,1,2
191 196 m 1,21,-1
 455 569 l 1,22,23
 415 615 415 615 340 615 c 0,24,25
 253 615 253 615 212 552 c 128,-1,26
 171 489 171 489 171 354 c 0,27,20
 171 259 171 259 191 196 c 1,21,-1
467.5 150.5 m 128,-1,29
 509 216 509 216 509 354 c 0,30,31
 509 453 509 453 487 512 c 1,32,-1
 222 137 l 1,33,34
 264 85 264 85 340 85 c 0,35,28
 426 85 426 85 467.5 150.5 c 128,-1,29
EndSplineSet
EndChar

StartChar: OE
Encoding: 338 338 137
Width: 1035
GlyphClass: 2
Flags: W
AnchorPoint: "Anchor-10" 482 639 basechar 0
AnchorPoint: "Anchor-9" 755 660 basechar 0
AnchorPoint: "Anchor-8" 968 10 basechar 0
AnchorPoint: "Anchor-7" 755 0 basechar 0
LayerCount: 2
Fore
SplineSet
987 91 m 1,0,1
 987 38 987 38 976 19 c 128,-1,2
 965 0 965 0 935 0 c 2,3,-1
 548 0 l 1,4,-1
 548 71 l 1,5,6
 472 -10 472 -10 340 -10 c 0,7,8
 198 -10 198 -10 119.5 85.5 c 128,-1,9
 41 181 41 181 41 354 c 0,10,11
 41 524 41 524 119.5 617 c 128,-1,12
 198 710 198 710 340 710 c 0,13,14
 472 710 472 710 548 631 c 1,15,-1
 548 700 l 1,16,-1
 979 700 l 1,17,-1
 979 609 l 1,18,-1
 674 609 l 1,19,-1
 674 405 l 1,20,-1
 931 405 l 1,21,-1
 931 315 l 1,22,-1
 674 315 l 1,23,-1
 674 91 l 1,24,-1
 987 91 l 1,0,1
467.5 150.5 m 128,-1,26
 509 216 509 216 509 354 c 0,27,28
 509 489 509 489 468 552 c 128,-1,29
 427 615 427 615 340 615 c 256,30,31
 253 615 253 615 212 552 c 128,-1,32
 171 489 171 489 171 354 c 0,33,34
 171 216 171 216 212.5 150.5 c 128,-1,35
 254 85 254 85 340 85 c 256,36,25
 426 85 426 85 467.5 150.5 c 128,-1,26
EndSplineSet
EndChar

StartChar: P
Encoding: 80 80 138
Width: 615
GlyphClass: 2
Flags: W
AnchorPoint: "Anchor-10" 0 0 basechar 0
AnchorPoint: "Anchor-9" 308 660 basechar 0
AnchorPoint: "Anchor-8" 0 0 basechar 0
AnchorPoint: "Anchor-7" 308 0 basechar 0
LayerCount: 2
Fore
SplineSet
501.5 642.5 m 128,-1,1
 572 585 572 585 572 474 c 0,2,3
 572 359 572 359 500 298.5 c 128,-1,4
 428 238 428 238 294 238 c 2,5,-1
 206 238 l 1,6,-1
 206 0 l 1,7,-1
 79 0 l 1,8,-1
 79 700 l 1,9,-1
 294 700 l 2,10,0
 431 700 431 700 501.5 642.5 c 128,-1,1
406.5 367 m 128,-1,12
 444 400 444 400 444 474 c 0,13,14
 444 546 444 546 407 578 c 128,-1,15
 370 610 370 610 287 610 c 2,16,-1
 206 610 l 1,17,-1
 206 334 l 1,18,-1
 287 334 l 2,19,11
 369 334 369 334 406.5 367 c 128,-1,12
EndSplineSet
EndChar

StartChar: Thorn
Encoding: 222 222 139
Width: 641
GlyphClass: 2
Flags: W
AnchorPoint: "Anchor-10" 0 0 basechar 0
AnchorPoint: "Anchor-9" 321 700 basechar 0
AnchorPoint: "Anchor-8" 0 0 basechar 0
AnchorPoint: "Anchor-7" 312 0 basechar 0
LayerCount: 2
Fore
SplineSet
509 538.5 m 128,-1,1
 577 478 577 478 577 369 c 0,2,3
 577 257 577 257 508.5 193.5 c 128,-1,4
 440 130 440 130 305 130 c 2,5,-1
 211 130 l 1,6,-1
 211 0 l 1,7,-1
 87 0 l 1,8,-1
 87 700 l 1,9,-1
 211 700 l 1,10,-1
 211 599 l 1,11,-1
 305 599 l 2,12,0
 441 599 441 599 509 538.5 c 128,-1,1
414.5 260 m 128,-1,14
 451 295 451 295 451 369 c 0,15,16
 451 441 451 441 415 473 c 128,-1,17
 379 505 379 505 298 505 c 2,18,-1
 211 505 l 1,19,-1
 211 225 l 1,20,-1
 298 225 l 2,21,13
 378 225 378 225 414.5 260 c 128,-1,14
EndSplineSet
EndChar

StartChar: Q
Encoding: 81 81 140
Width: 680
GlyphClass: 2
Flags: W
AnchorPoint: "Anchor-10" 482 639 basechar 0
AnchorPoint: "Anchor-9" 340 660 basechar 0
AnchorPoint: "Anchor-8" 439 31 basechar 0
AnchorPoint: "Anchor-7" 340 0 basechar 0
LayerCount: 2
Fore
SplineSet
602 153 m 128,-1,1
 565 70 565 70 495 29 c 1,2,3
 519 0 519 0 569 -53 c 1,4,5
 546 -89 546 -89 495 -89 c 0,6,7
 470 -89 470 -89 452 -80 c 128,-1,8
 434 -71 434 -71 420 -53 c 0,9,10
 413 -45 413 -45 388 -7 c 1,11,12
 366 -10 366 -10 340 -10 c 0,13,14
 198 -10 198 -10 119.5 85.5 c 128,-1,15
 41 181 41 181 41 354 c 0,16,17
 41 524 41 524 119.5 617 c 128,-1,18
 198 710 198 710 340 710 c 256,19,20
 482 710 482 710 560.5 617 c 128,-1,21
 639 524 639 524 639 354 c 0,22,0
 639 236 639 236 602 153 c 128,-1,1
211 152.5 m 128,-1,24
 251 87 251 87 334 85 c 1,25,-1
 287 169 l 1,26,-1
 393 169 l 1,27,28
 406 144 406 144 430 110 c 1,29,30
 509 167 509 167 509 354 c 0,31,32
 509 489 509 489 468 552 c 128,-1,33
 427 615 427 615 340 615 c 256,34,35
 253 615 253 615 212 552 c 128,-1,36
 171 489 171 489 171 354 c 0,37,23
 171 218 171 218 211 152.5 c 128,-1,24
EndSplineSet
EndChar

StartChar: R
Encoding: 82 82 141
Width: 636
GlyphClass: 2
Flags: W
AnchorPoint: "Anchor-10" 0 0 basechar 0
AnchorPoint: "Anchor-9" 313 660 basechar 0
AnchorPoint: "Anchor-8" 0 0 basechar 0
AnchorPoint: "Anchor-7" 315 0 basechar 0
LayerCount: 2
Fore
SplineSet
605 10 m 1,0,1
 595 2 595 2 575 -3 c 128,-1,2
 555 -8 555 -8 533 -8 c 0,3,4
 504 -8 504 -8 488 0.5 c 128,-1,5
 472 9 472 9 463 29 c 2,6,-1
 375 205 l 2,7,8
 356 243 356 243 332 257.5 c 128,-1,9
 308 272 308 272 263 272 c 2,10,-1
 206 272 l 1,11,-1
 206 0 l 1,12,-1
 79 0 l 1,13,-1
 79 700 l 1,14,-1
 314 700 l 2,15,16
 443 700 443 700 514 644 c 128,-1,17
 585 588 585 588 585 486 c 0,18,19
 585 418 585 418 548.5 369.5 c 128,-1,20
 512 321 512 321 445 298 c 1,21,22
 470 273 470 273 491 233 c 2,23,-1
 605 10 l 1,0,1
305 365 m 2,24,25
 382 365 382 365 419 394.5 c 128,-1,26
 456 424 456 424 456 486 c 256,27,28
 456 548 456 548 420 577.5 c 128,-1,29
 384 607 384 607 307 607 c 2,30,-1
 206 607 l 1,31,-1
 206 365 l 1,32,-1
 305 365 l 2,24,25
EndSplineSet
EndChar

StartChar: S
Encoding: 83 83 148
Width: 642
GlyphClass: 2
Flags: W
AnchorPoint: "Anchor-10" 0 0 basechar 0
AnchorPoint: "Anchor-9" 321 660 basechar 0
AnchorPoint: "Anchor-8" 0 0 basechar 0
AnchorPoint: "Anchor-7" 328 0 basechar 0
LayerCount: 2
Fore
SplineSet
192 9.5 m 128,-1,1
 133 29 133 29 101 65 c 128,-1,2
 69 101 69 101 69 148 c 0,3,4
 69 179 69 179 93.5 196 c 128,-1,5
 118 213 118 213 162 214 c 1,6,7
 171 152 171 152 215 118 c 128,-1,8
 259 84 259 84 331 84 c 0,9,10
 400 84 400 84 437.5 112 c 128,-1,11
 475 140 475 140 475 192 c 0,12,13
 475 234 475 234 438.5 260.5 c 128,-1,14
 402 287 402 287 310 312 c 0,15,16
 188 346 188 346 135 394 c 128,-1,17
 82 442 82 442 82 519 c 0,18,19
 82 608 82 608 149.5 659 c 128,-1,20
 217 710 217 710 335 710 c 0,21,22
 433 710 433 710 500.5 664 c 128,-1,23
 568 618 568 618 593 536 c 1,24,25
 580 523 580 523 556 513 c 128,-1,26
 532 503 532 503 513 503 c 0,27,28
 496 503 496 503 486 510.5 c 128,-1,29
 476 518 476 518 466 536 c 0,30,31
 426 617 426 617 335 617 c 0,32,33
 210 617 210 617 210 529 c 0,34,35
 210 500 210 500 222 481.5 c 128,-1,36
 234 463 234 463 264 448 c 128,-1,37
 294 433 294 433 352 415 c 0,38,39
 455 383 455 383 508 355.5 c 128,-1,40
 561 328 561 328 583 295.5 c 128,-1,41
 605 263 605 263 605 213 c 0,42,43
 605 147 605 147 571 96.5 c 128,-1,44
 537 46 537 46 474.5 18 c 128,-1,45
 412 -10 412 -10 329 -10 c 0,46,0
 251 -10 251 -10 192 9.5 c 128,-1,1
EndSplineSet
EndChar

StartChar: Scedilla
Encoding: 350 350 151
Width: 642
GlyphClass: 2
Flags: W
AnchorPoint: "Anchor-10" 0 0 basechar 0
AnchorPoint: "Anchor-9" 0 0 basechar 0
AnchorPoint: "Anchor-8" 0 0 basechar 0
AnchorPoint: "Anchor-7" 328 -214 basechar 0
LayerCount: 2
Fore
SplineSet
541 61 m 128,-1,1
 477 1 477 1 368 -8 c 1,2,-1
 328 -52 l 1,3,-1
 338 -52 l 2,4,5
 382 -52 382 -52 410 -75 c 128,-1,6
 438 -98 438 -98 438 -136 c 0,7,8
 438 -183 438 -183 404 -209.5 c 128,-1,9
 370 -236 370 -236 303 -236 c 0,10,11
 251 -236 251 -236 227 -222.5 c 128,-1,12
 203 -209 203 -209 203 -186 c 0,13,14
 203 -175 203 -175 207 -166 c 1,15,16
 219 -171 219 -171 242 -174 c 128,-1,17
 265 -177 265 -177 291 -177 c 0,18,19
 321 -177 321 -177 334.5 -167.5 c 128,-1,20
 348 -158 348 -158 348 -138 c 0,21,22
 348 -126 348 -126 338 -117 c 128,-1,23
 328 -108 328 -108 309 -108 c 0,24,25
 291 -108 291 -108 277 -114 c 1,26,-1
 247 -75 l 1,27,-1
 291 -9 l 1,28,29
 189 -1 189 -1 129 41 c 128,-1,30
 69 83 69 83 69 148 c 0,31,32
 69 179 69 179 93.5 196 c 128,-1,33
 118 213 118 213 162 214 c 1,34,35
 171 152 171 152 215 118 c 128,-1,36
 259 84 259 84 331 84 c 0,37,38
 400 84 400 84 437.5 112 c 128,-1,39
 475 140 475 140 475 192 c 0,40,41
 475 234 475 234 438.5 260.5 c 128,-1,42
 402 287 402 287 310 312 c 0,43,44
 188 346 188 346 135 394 c 128,-1,45
 82 442 82 442 82 519 c 0,46,47
 82 608 82 608 149.5 659 c 128,-1,48
 217 710 217 710 335 710 c 0,49,50
 433 710 433 710 500.5 664 c 128,-1,51
 568 618 568 618 593 536 c 1,52,53
 580 523 580 523 556 513 c 128,-1,54
 532 503 532 503 513 503 c 0,55,56
 496 503 496 503 486 510.5 c 128,-1,57
 476 518 476 518 466 536 c 0,58,59
 426 617 426 617 335 617 c 0,60,61
 210 617 210 617 210 529 c 0,62,63
 210 500 210 500 222 481.5 c 128,-1,64
 234 463 234 463 264 448 c 128,-1,65
 294 433 294 433 352 415 c 0,66,67
 455 383 455 383 508 355.5 c 128,-1,68
 561 328 561 328 583 295.5 c 128,-1,69
 605 263 605 263 605 213 c 0,70,0
 605 121 605 121 541 61 c 128,-1,1
EndSplineSet
Substitution2: "'locl' Localized Forms in Latin lookup 7 subtable" uni0218
Substitution2: "'locl' Localized Forms in Latin lookup 6 subtable" uni0218
Substitution2: "'aalt' Access All Alternates lookup 0 subtable" uni0218
EndChar

StartChar: uni1E9E
Encoding: 7838 7838 156
Width: 720
Flags: W
LayerCount: 2
Fore
SplineSet
612 325.5 m 128,-1,1
 663 279 663 279 663 194 c 0,2,3
 663 97 663 97 597.5 43.5 c 128,-1,4
 532 -10 532 -10 428 -10 c 0,5,6
 382 -10 382 -10 338 2.5 c 128,-1,7
 294 15 294 15 268 38 c 0,8,9
 250 54 250 54 250 81 c 0,10,11
 250 99 250 99 259.5 113 c 128,-1,12
 269 127 269 127 287 129 c 1,13,14
 342 79 342 79 419 79 c 0,15,16
 473 79 473 79 504 108.5 c 128,-1,17
 535 138 535 138 535 193 c 0,18,19
 535 257 535 257 501.5 285 c 128,-1,20
 468 313 468 313 404 313 c 0,21,22
 371 313 371 313 352 330.5 c 128,-1,23
 333 348 333 348 333 375 c 1,24,-1
 482 543 l 1,25,26
 442 619 442 619 342 619 c 0,27,28
 274 619 274 619 235 578.5 c 128,-1,29
 196 538 196 538 196 462 c 2,30,-1
 196 0 l 1,31,-1
 71 0 l 1,32,-1
 71 462 l 2,33,34
 71 536 71 536 106.5 592 c 128,-1,35
 142 648 142 648 204 678 c 128,-1,36
 266 708 266 708 345 708 c 0,37,38
 421 708 421 708 479 684 c 128,-1,39
 537 660 537 660 572 620 c 128,-1,40
 607 580 607 580 618 532 c 1,41,-1
 482 386 l 1,42,0
 561 372 561 372 612 325.5 c 128,-1,1
EndSplineSet
EndChar

StartChar: uni018F
Encoding: 399 399 157
Width: 712
Flags: W
LayerCount: 2
Fore
SplineSet
573 616 m 128,-1,1
 654 522 654 522 654 348 c 0,2,3
 654 175 654 175 573 82.5 c 128,-1,4
 492 -10 492 -10 341 -10 c 0,5,6
 199 -10 199 -10 124 73.5 c 128,-1,7
 49 157 49 157 49 315 c 2,8,-1
 49 376 l 1,9,-1
 527 376 l 1,10,11
 523 502 523 502 478 561 c 128,-1,12
 433 620 433 620 343 620 c 0,13,14
 297 620 297 620 262.5 604.5 c 128,-1,15
 228 589 228 589 169 542 c 0,16,17
 159 533 159 533 146 533 c 0,18,19
 127 533 127 533 105.5 553.5 c 128,-1,20
 84 574 84 574 72 603 c 1,21,22
 110 650 110 650 185.5 680 c 128,-1,23
 261 710 261 710 342 710 c 0,24,0
 492 710 492 710 573 616 c 128,-1,1
470 131 m 128,-1,26
 515 182 515 182 525 288 c 1,27,-1
 174 288 l 1,28,29
 174 185 174 185 216.5 132.5 c 128,-1,30
 259 80 259 80 342 80 c 256,31,25
 425 80 425 80 470 131 c 128,-1,26
EndSplineSet
EndChar

StartChar: T
Encoding: 84 84 158
Width: 534
GlyphClass: 2
Flags: W
AnchorPoint: "Anchor-10" 0 0 basechar 0
AnchorPoint: "Anchor-9" 268 660 basechar 0
AnchorPoint: "Anchor-8" 0 0 basechar 0
AnchorPoint: "Anchor-7" 268 0 basechar 0
LayerCount: 2
Fore
SplineSet
523 663 m 0,1,2
 523 634 523 634 512.5 620.5 c 128,-1,3
 502 607 502 607 480 607 c 2,4,-1
 330 607 l 1,5,-1
 330 0 l 1,6,-1
 204 0 l 1,7,-1
 204 607 l 1,8,-1
 15 607 l 1,9,-1
 15 700 l 1,10,-1
 519 700 l 1,11,0
 523 678 523 678 523 663 c 0,1,2
EndSplineSet
EndChar

StartChar: Tbar
Encoding: 358 358 159
Width: 533
GlyphClass: 2
Flags: W
AnchorPoint: "Anchor-10" 0 0 basechar 0
AnchorPoint: "Anchor-9" 268 660 basechar 0
AnchorPoint: "Anchor-8" 0 0 basechar 0
AnchorPoint: "Anchor-7" 268 0 basechar 0
LayerCount: 2
Fore
SplineSet
523 663 m 0,1,2
 523 634 523 634 512.5 620.5 c 128,-1,3
 502 607 502 607 480 607 c 2,4,-1
 330 607 l 1,5,-1
 330 363 l 1,6,-1
 441 363 l 1,7,-1
 441 278 l 1,8,-1
 330 278 l 1,9,-1
 330 0 l 1,10,-1
 204 0 l 1,11,-1
 204 278 l 1,12,-1
 95 278 l 1,13,-1
 95 363 l 1,14,-1
 204 363 l 1,15,-1
 204 607 l 1,16,-1
 15 607 l 1,17,-1
 15 700 l 1,18,-1
 519 700 l 1,19,0
 523 678 523 678 523 663 c 0,1,2
EndSplineSet
EndChar

StartChar: U
Encoding: 85 85 165
Width: 710
GlyphClass: 2
Flags: W
AnchorPoint: "Anchor-10" 625 673 basechar 0
AnchorPoint: "Anchor-9" 354 660 basechar 0
AnchorPoint: "Anchor-8" 445 10 basechar 0
AnchorPoint: "Anchor-7" 355 0 basechar 0
LayerCount: 2
Fore
SplineSet
79 251 m 2,1,-1
 79 700 l 1,2,-1
 206 700 l 1,3,-1
 206 233 l 2,4,5
 206 159 206 159 244 121.5 c 128,-1,6
 282 84 282 84 356 84 c 0,7,8
 432 84 432 84 468.5 121 c 128,-1,9
 505 158 505 158 505 233 c 2,10,-1
 505 700 l 1,11,-1
 632 700 l 1,12,-1
 632 251 l 2,13,14
 632 118 632 118 564 54 c 128,-1,15
 496 -10 496 -10 356 -10 c 0,16,0
 79 -10 79 -10 79 251 c 2,1,-1
EndSplineSet
EndChar

StartChar: Uhorn
Encoding: 431 431 178
Width: 710
GlyphClass: 2
Flags: W
AnchorPoint: "Anchor-10" 625 673 basechar 0
AnchorPoint: "Anchor-9" 354 660 basechar 0
AnchorPoint: "Anchor-8" 445 10 basechar 0
AnchorPoint: "Anchor-7" 355 0 basechar 0
LayerCount: 2
Fore
SplineSet
632 637 m 1,1,-1
 632 251 l 2,2,3
 632 118 632 118 564 54 c 128,-1,4
 496 -10 496 -10 356 -10 c 0,5,6
 79 -10 79 -10 79 251 c 2,7,-1
 79 700 l 1,8,-1
 206 700 l 1,9,-1
 206 233 l 2,10,11
 206 159 206 159 244 121.5 c 128,-1,12
 282 84 282 84 356 84 c 0,13,14
 432 84 432 84 468.5 121 c 128,-1,15
 505 158 505 158 505 233 c 2,16,-1
 505 700 l 1,17,-1
 625 700 l 2,18,19
 688 700 688 700 688 767 c 0,20,21
 688 797 688 797 659 819 c 1,22,23
 661 835 661 835 677 847 c 128,-1,24
 693 859 693 859 717 859 c 0,25,26
 752 859 752 859 773.5 836.5 c 128,-1,27
 795 814 795 814 795 777 c 0,28,0
 795 647 795 647 632 637 c 1,1,-1
EndSplineSet
EndChar

StartChar: Uogonek
Encoding: 370 370 186
Width: 710
GlyphClass: 2
Flags: W
AnchorPoint: "Anchor-10" 625 673 basechar 0
AnchorPoint: "Anchor-9" 354 660 basechar 0
AnchorPoint: "Anchor-8" 445 10 basechar 0
AnchorPoint: "Anchor-7" 355 0 basechar 0
LayerCount: 2
Fore
SplineSet
632 700 m 1,0,-1
 632 251 l 2,1,2
 632 138 632 138 582.5 74.5 c 128,-1,3
 533 11 533 11 431 -5 c 1,4,5
 392 -47 392 -47 392 -93 c 0,6,7
 392 -114 392 -114 402 -125 c 128,-1,8
 412 -136 412 -136 429 -136 c 0,9,10
 450 -136 450 -136 468 -126 c 1,11,12
 484 -139 484 -139 484 -157 c 0,13,14
 484 -177 484 -177 463.5 -188.5 c 128,-1,15
 443 -200 443 -200 407 -200 c 0,16,17
 355 -200 355 -200 326.5 -178.5 c 128,-1,18
 298 -157 298 -157 298 -115 c 0,19,20
 298 -52 298 -52 357 -10 c 1,21,-1
 356 -10 l 2,22,23
 79 -10 79 -10 79 251 c 2,24,-1
 79 700 l 1,25,-1
 206 700 l 1,26,-1
 206 233 l 2,27,28
 206 159 206 159 244 121.5 c 128,-1,29
 282 84 282 84 356 84 c 0,30,31
 432 84 432 84 468.5 121 c 128,-1,32
 505 158 505 158 505 233 c 2,33,-1
 505 700 l 1,34,-1
 632 700 l 1,0,-1
EndSplineSet
EndChar

StartChar: V
Encoding: 86 86 189
Width: 638
GlyphClass: 2
Flags: W
AnchorPoint: "Anchor-10" 0 0 basechar 0
AnchorPoint: "Anchor-9" 319 660 basechar 0
AnchorPoint: "Anchor-8" 0 0 basechar 0
AnchorPoint: "Anchor-7" 319 0 basechar 0
LayerCount: 2
Fore
SplineSet
615 700 m 1,0,1
 591 501 591 501 532.5 329 c 128,-1,2
 474 157 474 157 377 0 c 1,3,-1
 262 0 l 1,4,5
 165 155 165 155 106.5 327 c 128,-1,6
 48 499 48 499 23 700 c 1,7,-1
 154 700 l 1,8,9
 174 533 174 533 216 389 c 128,-1,10
 258 245 258 245 319 132 c 1,11,12
 380 245 380 245 422 389 c 128,-1,13
 464 533 464 533 484 700 c 1,14,-1
 615 700 l 1,0,1
EndSplineSet
EndChar

StartChar: W
Encoding: 87 87 190
Width: 883
GlyphClass: 2
Flags: W
AnchorPoint: "Anchor-10" 0 0 basechar 0
AnchorPoint: "Anchor-9" 446 660 basechar 0
AnchorPoint: "Anchor-8" 0 0 basechar 0
AnchorPoint: "Anchor-7" 446 0 basechar 0
LayerCount: 2
Fore
SplineSet
868 700 m 1,0,1
 845 503 845 503 808 343.5 c 128,-1,2
 771 184 771 184 706 0 c 1,3,-1
 571 0 l 1,4,5
 516 173 516 173 490 268 c 128,-1,6
 464 363 464 363 446 463 c 1,7,8
 426 352 426 352 399 252 c 128,-1,9
 372 152 372 152 322 0 c 1,10,-1
 187 0 l 1,11,12
 120 180 120 180 80.5 340 c 128,-1,13
 41 500 41 500 15 700 c 1,14,-1
 140 700 l 1,15,16
 160 522 160 522 183.5 405.5 c 128,-1,17
 207 289 207 289 254 136 c 1,18,19
 295 260 295 260 322.5 369 c 128,-1,20
 350 478 350 478 397 700 c 1,21,-1
 492 700 l 1,22,23
 552 444 552 444 577.5 344.5 c 128,-1,24
 603 245 603 245 638 137 c 1,25,26
 683 286 683 286 705 402 c 128,-1,27
 727 518 727 518 746 700 c 1,28,-1
 868 700 l 1,0,1
EndSplineSet
EndChar

StartChar: X
Encoding: 88 88 195
Width: 595
GlyphClass: 2
Flags: W
AnchorPoint: "Anchor-10" 0 0 basechar 0
AnchorPoint: "Anchor-9" 294 660 basechar 0
AnchorPoint: "Anchor-8" 0 0 basechar 0
AnchorPoint: "Anchor-7" 294 0 basechar 0
LayerCount: 2
Fore
SplineSet
454 0 m 1,0,1
 440 87 440 87 400.5 155 c 128,-1,2
 361 223 361 223 298 293 c 1,3,4
 235 224 235 224 195 155.5 c 128,-1,5
 155 87 155 87 141 0 c 1,6,-1
 11 0 l 1,7,8
 26 82 26 82 57.5 147.5 c 128,-1,9
 89 213 89 213 128 262.5 c 128,-1,10
 167 312 167 312 224 371 c 1,11,12
 143 456 143 456 94.5 529 c 128,-1,13
 46 602 46 602 26 700 c 1,14,-1
 154 700 l 1,15,16
 170 625 170 625 206 566.5 c 128,-1,17
 242 508 242 508 298 447 c 1,18,19
 354 508 354 508 389.5 567 c 128,-1,20
 425 626 425 626 441 700 c 1,21,-1
 570 700 l 1,22,23
 550 602 550 602 501.5 528.5 c 128,-1,24
 453 455 453 455 371 371 c 1,25,26
 428 313 428 313 467.5 263 c 128,-1,27
 507 213 507 213 538.5 147.5 c 128,-1,28
 570 82 570 82 585 0 c 1,29,-1
 454 0 l 1,0,1
EndSplineSet
EndChar

StartChar: Y
Encoding: 89 89 196
Width: 590
GlyphClass: 2
Flags: W
AnchorPoint: "Anchor-10" 0 0 basechar 0
AnchorPoint: "Anchor-9" 295 660 basechar 0
AnchorPoint: "Anchor-8" 0 0 basechar 0
AnchorPoint: "Anchor-7" 295 0 basechar 0
LayerCount: 2
Fore
SplineSet
577 700 m 1,0,-1
 358 294 l 1,1,-1
 358 0 l 1,2,-1
 232 0 l 1,3,-1
 232 294 l 1,4,-1
 13 700 l 1,5,-1
 145 700 l 1,6,-1
 296 406 l 1,7,-1
 446 700 l 1,8,-1
 577 700 l 1,0,-1
EndSplineSet
EndChar

StartChar: Z
Encoding: 90 90 205
Width: 580
GlyphClass: 2
Flags: W
AnchorPoint: "Anchor-10" 0 0 basechar 0
AnchorPoint: "Anchor-9" 283 660 basechar 0
AnchorPoint: "Anchor-8" 0 0 basechar 0
AnchorPoint: "Anchor-7" 283 0 basechar 0
LayerCount: 2
Fore
SplineSet
535 87 m 1,0,-1
 535 0 l 1,1,-1
 47 0 l 1,2,-1
 47 87 l 1,3,-1
 390 613 l 1,4,-1
 45 613 l 1,5,-1
 45 700 l 1,6,-1
 527 700 l 1,7,-1
 527 609 l 1,8,-1
 189 87 l 1,9,-1
 535 87 l 1,0,-1
EndSplineSet
EndChar

StartChar: a
Encoding: 97 97 210
Width: 565
GlyphClass: 2
Flags: W
AnchorPoint: "Anchor-10" 0 0 basechar 0
AnchorPoint: "Anchor-9" 277 550 basechar 0
AnchorPoint: "Anchor-8" 502 10 basechar 0
AnchorPoint: "Anchor-7" 279 0 basechar 0
LayerCount: 2
Fore
SplineSet
503 81 m 128,-1,1
 510 48 510 48 529 24 c 1,2,3
 512 11 512 11 485.5 2.5 c 128,-1,4
 459 -6 459 -6 437 -6 c 0,5,6
 389 -6 389 -6 379 73 c 1,7,8
 324 -10 324 -10 208 -10 c 0,9,10
 134 -10 134 -10 88.5 29.5 c 128,-1,11
 43 69 43 69 43 133 c 0,12,13
 43 224 43 224 124 271.5 c 128,-1,14
 205 319 205 319 375 328 c 1,15,-1
 375 373 l 2,16,17
 375 471 375 471 272 471 c 0,18,19
 235 471 235 471 202 456.5 c 128,-1,20
 169 442 169 442 124 407 c 0,21,22
 117 402 117 402 110 402 c 0,23,24
 94 402 94 402 76 420.5 c 128,-1,25
 58 439 58 439 44 471 c 1,26,27
 85 511 85 511 151 535.5 c 128,-1,28
 217 560 217 560 285 560 c 0,29,30
 386 560 386 560 441 511 c 128,-1,31
 496 462 496 462 496 373 c 2,32,-1
 496 184 l 2,33,0
 496 114 496 114 503 81 c 128,-1,1
375 169 m 1,35,-1
 375 259 l 1,36,37
 167 250 167 250 167 144 c 0,38,39
 167 110 167 110 187 91.5 c 128,-1,40
 207 73 207 73 244 73 c 0,41,34
 321 73 321 73 375 169 c 1,35,-1
EndSplineSet
Substitution2: "Single Substitution lookup 20 subtable" ordfeminine
Substitution2: "'aalt' Access All Alternates lookup 0 subtable" ordfeminine
EndChar

StartChar: uni0251
Encoding: 593 593 229
Width: 598
Flags: W
LayerCount: 2
Fore
SplineSet
533 76 m 128,-1,1
 539 44 539 44 554 21 c 1,2,3
 506 -6 506 -6 459 -6 c 0,4,5
 424 -6 424 -6 413 50 c 1,6,7
 363 -10 363 -10 260 -10 c 256,8,9
 157 -10 157 -10 95 59 c 128,-1,10
 33 128 33 128 33 272 c 0,11,12
 33 363 33 363 65 428 c 128,-1,13
 97 493 97 493 154 526.5 c 128,-1,14
 211 560 211 560 285 560 c 0,15,16
 318 560 318 560 350.5 550.5 c 128,-1,17
 383 541 383 541 406 527 c 1,18,-1
 406 550 l 1,19,-1
 527 550 l 1,20,-1
 527 174 l 2,21,0
 527 108 527 108 533 76 c 128,-1,1
406 142 m 1,23,-1
 406 440 l 1,24,25
 388 458 388 458 360 468.5 c 128,-1,26
 332 479 332 479 301 479 c 0,27,28
 237 479 237 479 197 427.5 c 128,-1,29
 157 376 157 376 157 272 c 256,30,31
 157 168 157 168 193.5 120.5 c 128,-1,32
 230 73 230 73 290 73 c 0,33,22
 369 73 369 73 406 142 c 1,23,-1
EndSplineSet
EndChar

StartChar: aogonek
Encoding: 261 261 231
Width: 565
GlyphClass: 2
Flags: W
AnchorPoint: "Anchor-10" 0 0 basechar 0
AnchorPoint: "Anchor-9" 277 550 basechar 0
AnchorPoint: "Anchor-8" 502 10 basechar 0
AnchorPoint: "Anchor-7" 279 0 basechar 0
LayerCount: 2
Fore
SplineSet
541 -157 m 0,1,2
 541 -177 541 -177 520.5 -188.5 c 128,-1,3
 500 -200 500 -200 464 -200 c 0,4,5
 412 -200 412 -200 383.5 -178.5 c 128,-1,6
 355 -157 355 -157 355 -115 c 0,7,8
 355 -48 355 -48 423 -4 c 1,9,10
 388 7 388 7 379 73 c 1,11,12
 324 -10 324 -10 208 -10 c 0,13,14
 134 -10 134 -10 88.5 29.5 c 128,-1,15
 43 69 43 69 43 133 c 0,16,17
 43 224 43 224 124 271.5 c 128,-1,18
 205 319 205 319 375 328 c 1,19,-1
 375 373 l 2,20,21
 375 471 375 471 272 471 c 0,22,23
 235 471 235 471 202 456.5 c 128,-1,24
 169 442 169 442 124 407 c 0,25,26
 117 402 117 402 110 402 c 0,27,28
 94 402 94 402 76 420.5 c 128,-1,29
 58 439 58 439 44 471 c 1,30,31
 85 511 85 511 151 535.5 c 128,-1,32
 217 560 217 560 285 560 c 0,33,34
 386 560 386 560 441 511 c 128,-1,35
 496 462 496 462 496 373 c 2,36,-1
 496 184 l 2,37,38
 496 114 496 114 503 81 c 128,-1,39
 510 48 510 48 529 24 c 1,40,41
 516 14 516 14 499 7 c 1,42,43
 474 -18 474 -18 461.5 -42 c 128,-1,44
 449 -66 449 -66 449 -93 c 0,45,46
 449 -114 449 -114 459 -125 c 128,-1,47
 469 -136 469 -136 486 -136 c 0,48,49
 507 -136 507 -136 525 -126 c 1,50,0
 541 -139 541 -139 541 -157 c 0,1,2
375 169 m 1,52,-1
 375 259 l 1,53,54
 167 250 167 250 167 144 c 0,55,56
 167 110 167 110 187 91.5 c 128,-1,57
 207 73 207 73 244 73 c 0,58,51
 321 73 321 73 375 169 c 1,52,-1
EndSplineSet
EndChar

StartChar: ae
Encoding: 230 230 235
Width: 899
GlyphClass: 2
Flags: W
AnchorPoint: "Anchor-10" 0 0 basechar 0
AnchorPoint: "Anchor-9" 451 550 basechar 0
AnchorPoint: "Anchor-8" 0 0 basechar 0
AnchorPoint: "Anchor-7" 451 0 basechar 0
LayerCount: 2
Fore
SplineSet
860 255 m 1,1,-1
 501 255 l 1,2,3
 509 73 509 73 629 73 c 0,4,5
 664 73 664 73 687 84 c 128,-1,6
 710 95 710 95 724.5 111 c 128,-1,7
 739 127 739 127 757 154 c 0,8,9
 763 165 763 165 777 165 c 0,10,11
 806 165 806 165 855 128 c 1,12,13
 829 64 829 64 774 26 c 128,-1,14
 719 -12 719 -12 629 -12 c 0,15,16
 566 -12 566 -12 516 10 c 128,-1,17
 466 32 466 32 433 76 c 1,18,19
 398 35 398 35 346.5 11.5 c 128,-1,20
 295 -12 295 -12 228 -12 c 0,21,22
 144 -12 144 -12 93.5 26 c 128,-1,23
 43 64 43 64 43 132 c 0,24,25
 43 230 43 230 126.5 279.5 c 128,-1,26
 210 329 210 329 378 331 c 1,27,-1
 378 373 l 2,28,29
 378 471 378 471 280 471 c 0,30,31
 249 471 249 471 222.5 462 c 128,-1,32
 196 453 196 453 177.5 441 c 128,-1,33
 159 429 159 429 122 403 c 0,34,35
 114 399 114 399 108 399 c 0,36,37
 93 399 93 399 76 418.5 c 128,-1,38
 59 438 59 438 44 471 c 1,39,40
 88 509 88 509 150.5 534.5 c 128,-1,41
 213 560 213 560 285 560 c 0,42,43
 340 560 340 560 383.5 542.5 c 128,-1,44
 427 525 427 525 456 493 c 1,45,46
 523 560 523 560 637 560 c 0,47,48
 743 560 743 560 804.5 499.5 c 128,-1,49
 866 439 866 439 866 322 c 0,50,0
 866 284 866 284 860 255 c 1,1,-1
743 329 m 1,51,52
 743 479 743 479 634 479 c 0,53,54
 519 479 519 479 504 329 c 1,55,-1
 743 329 l 1,51,52
331.5 99 m 128,-1,57
 370 127 370 127 388 178 c 1,58,59
 379 220 379 220 378 257 c 1,60,61
 167 250 167 250 167 143 c 0,62,63
 167 109 167 109 187.5 90 c 128,-1,64
 208 71 208 71 244 71 c 0,65,56
 293 71 293 71 331.5 99 c 128,-1,57
EndSplineSet
EndChar

StartChar: b
Encoding: 98 98 237
Width: 610
Flags: W
LayerCount: 2
Fore
SplineSet
465 526 m 128,-1,1
 516 492 516 492 543 428 c 128,-1,2
 570 364 570 364 570 277 c 256,3,4
 570 190 570 190 542 125 c 128,-1,5
 514 60 514 60 462.5 25 c 128,-1,6
 411 -10 411 -10 342 -10 c 0,7,8
 297 -10 297 -10 258.5 8 c 128,-1,9
 220 26 220 26 193 59 c 1,10,11
 181 -5 181 -5 143 -5 c 0,12,13
 120 -5 120 -5 94.5 2 c 128,-1,14
 69 9 69 9 47 22 c 1,15,16
 64 46 64 46 70 80.5 c 128,-1,17
 76 115 76 115 76 182 c 2,18,-1
 76 791 l 1,19,-1
 198 791 l 1,20,-1
 198 507 l 1,21,22
 230 534 230 534 266 547 c 128,-1,23
 302 560 302 560 345 560 c 0,24,0
 414 560 414 560 465 526 c 128,-1,1
447 277 m 0,26,27
 447 376 447 376 415 427.5 c 128,-1,28
 383 479 383 479 321 479 c 0,29,30
 287 479 287 479 254 464 c 128,-1,31
 221 449 221 449 198 425 c 1,32,-1
 198 148 l 1,33,34
 246 73 246 73 326 73 c 0,35,25
 447 73 447 73 447 277 c 0,26,27
EndSplineSet
EndChar

StartChar: c
Encoding: 99 99 238
Width: 568
GlyphClass: 2
Flags: W
AnchorPoint: "Anchor-10" 0 0 basechar 0
AnchorPoint: "Anchor-9" 300 550 basechar 0
AnchorPoint: "Anchor-8" 0 0 basechar 0
AnchorPoint: "Anchor-7" 300 0 basechar 0
LayerCount: 2
Fore
SplineSet
101.5 63.5 m 128,-1,1
 33 137 33 137 33 278 c 0,2,3
 33 409 33 409 103 484.5 c 128,-1,4
 173 560 173 560 295 560 c 0,5,6
 392 560 392 560 453.5 512.5 c 128,-1,7
 515 465 515 465 526 382 c 1,8,9
 480 355 480 355 446 355 c 0,10,11
 432 355 432 355 423.5 363.5 c 128,-1,12
 415 372 415 372 408 393 c 0,13,14
 395 436 395 436 367.5 456.5 c 128,-1,15
 340 477 340 477 295 477 c 0,16,17
 230 477 230 477 193.5 424.5 c 128,-1,18
 157 372 157 372 157 278 c 0,19,20
 157 178 157 178 194.5 126.5 c 128,-1,21
 232 75 232 75 303 75 c 0,22,23
 355 75 355 75 387.5 105.5 c 128,-1,24
 420 136 420 136 436 201 c 1,25,26
 477 201 477 201 496.5 183.5 c 128,-1,27
 516 166 516 166 516 131 c 0,28,29
 516 94 516 94 486.5 61.5 c 128,-1,30
 457 29 457 29 408 9.5 c 128,-1,31
 359 -10 359 -10 303 -10 c 0,32,0
 170 -10 170 -10 101.5 63.5 c 128,-1,1
EndSplineSet
EndChar

StartChar: ccedilla
Encoding: 231 231 241
Width: 568
GlyphClass: 2
Flags: W
AnchorPoint: "Anchor-10" 0 0 basechar 0
AnchorPoint: "Anchor-9" 0 0 basechar 0
AnchorPoint: "Anchor-8" 0 0 basechar 0
AnchorPoint: "Anchor-7" 300 -214 basechar 0
LayerCount: 2
Fore
SplineSet
496.5 183.5 m 128,-1,1
 516 166 516 166 516 131 c 0,2,3
 516 98 516 98 492.5 68.5 c 128,-1,4
 469 39 469 39 429 18.5 c 128,-1,5
 389 -2 389 -2 341 -8 c 1,6,-1
 301 -52 l 1,7,-1
 311 -52 l 2,8,9
 355 -52 355 -52 382.5 -75 c 128,-1,10
 410 -98 410 -98 410 -136 c 0,11,12
 410 -183 410 -183 376.5 -209.5 c 128,-1,13
 343 -236 343 -236 276 -236 c 0,14,15
 224 -236 224 -236 200 -222.5 c 128,-1,16
 176 -209 176 -209 176 -186 c 0,17,18
 176 -177 176 -177 179 -166 c 1,19,20
 191 -171 191 -171 214 -174 c 128,-1,21
 237 -177 237 -177 263 -177 c 0,22,23
 294 -177 294 -177 307.5 -167.5 c 128,-1,24
 321 -158 321 -158 321 -138 c 0,25,26
 321 -126 321 -126 311 -117 c 128,-1,27
 301 -108 301 -108 282 -108 c 0,28,29
 264 -108 264 -108 250 -114 c 1,30,-1
 219 -75 l 1,31,-1
 264 -8 l 1,32,33
 150 2 150 2 91.5 74.5 c 128,-1,34
 33 147 33 147 33 278 c 256,35,36
 33 409 33 409 103 484.5 c 128,-1,37
 173 560 173 560 295 560 c 0,38,39
 392 560 392 560 453.5 512.5 c 128,-1,40
 515 465 515 465 526 382 c 1,41,42
 480 355 480 355 446 355 c 0,43,44
 432 355 432 355 423.5 363.5 c 128,-1,45
 415 372 415 372 408 393 c 0,46,47
 395 436 395 436 367.5 456.5 c 128,-1,48
 340 477 340 477 295 477 c 0,49,50
 230 477 230 477 193.5 424.5 c 128,-1,51
 157 372 157 372 157 278 c 0,52,53
 157 178 157 178 194.5 126.5 c 128,-1,54
 232 75 232 75 303 75 c 0,55,56
 355 75 355 75 387.5 105.5 c 128,-1,57
 420 136 420 136 436 201 c 1,58,0
 477 201 477 201 496.5 183.5 c 128,-1,1
EndSplineSet
EndChar

StartChar: d
Encoding: 100 100 244
Width: 598
GlyphClass: 2
Flags: W
AnchorPoint: "Anchor-10" 578 550 basechar 0
AnchorPoint: "Anchor-9" 299 750 basechar 0
AnchorPoint: "Anchor-8" 0 0 basechar 0
AnchorPoint: "Anchor-7" 299 0 basechar 0
LayerCount: 2
Fore
SplineSet
533 80.5 m 128,-1,1
 539 45 539 45 554 21 c 1,2,3
 505 -6 505 -6 459 -6 c 0,4,5
 439 -6 439 -6 427 10.5 c 128,-1,6
 415 27 415 27 410 64 c 1,7,8
 382 26 382 26 345.5 8 c 128,-1,9
 309 -10 309 -10 260 -10 c 0,10,11
 153 -10 153 -10 93 64.5 c 128,-1,12
 33 139 33 139 33 273 c 0,13,14
 33 361 33 361 63.5 425.5 c 128,-1,15
 94 490 94 490 151 525 c 128,-1,16
 208 560 208 560 285 560 c 0,17,18
 317 560 317 560 350 551 c 128,-1,19
 383 542 383 542 406 527 c 1,20,-1
 406 791 l 1,21,-1
 527 791 l 1,22,-1
 527 181 l 2,23,0
 527 116 527 116 533 80.5 c 128,-1,1
350 92.5 m 128,-1,25
 381 112 381 112 406 154 c 1,26,-1
 406 440 l 1,27,28
 387 457 387 457 357 468 c 128,-1,29
 327 479 327 479 296 479 c 0,30,31
 229 479 229 479 193 425.5 c 128,-1,32
 157 372 157 372 157 273 c 0,33,34
 157 73 157 73 278 73 c 0,35,24
 319 73 319 73 350 92.5 c 128,-1,25
EndSplineSet
EndChar

StartChar: eth
Encoding: 240 240 245
Width: 587
Flags: W
LayerCount: 2
Fore
SplineSet
547 295 m 0,1,2
 547 -12 547 -12 294 -12 c 0,3,4
 167 -12 167 -12 103.5 65 c 128,-1,5
 40 142 40 142 40 268 c 0,6,7
 40 345 40 345 67.5 408.5 c 128,-1,8
 95 472 95 472 152 509.5 c 128,-1,9
 209 547 209 547 294 547 c 0,10,11
 333 547 333 547 360 538 c 1,12,13
 331 586 331 586 296 626 c 1,14,-1
 216 575 l 1,15,-1
 176 633 l 1,16,-1
 245 677 l 1,17,18
 209 709 209 709 172 734 c 1,19,-1
 258 801 l 1,20,21
 309 767 309 767 342 739 c 1,22,-1
 429 795 l 1,23,-1
 469 736 l 1,24,-1
 394 689 l 1,25,0
 547 526 547 526 547 295 c 0,1,2
393.5 116.5 m 128,-1,27
 424 164 424 164 424 268 c 0,28,29
 424 367 424 367 393 416.5 c 128,-1,30
 362 466 362 466 294 466 c 256,31,32
 226 466 226 466 194.5 417 c 128,-1,33
 163 368 163 368 163 268 c 0,34,35
 163 164 163 164 194 116.5 c 128,-1,36
 225 69 225 69 294 69 c 256,37,26
 363 69 363 69 393.5 116.5 c 128,-1,27
EndSplineSet
EndChar

StartChar: dcroat
Encoding: 273 273 247
Width: 602
GlyphClass: 2
Flags: W
AnchorPoint: "Anchor-10" 578 550 basechar 0
AnchorPoint: "Anchor-9" 299 750 basechar 0
AnchorPoint: "Anchor-8" 0 0 basechar 0
AnchorPoint: "Anchor-7" 299 0 basechar 0
LayerCount: 2
Fore
SplineSet
527 637 m 1,0,-1
 527 181 l 2,1,2
 527 116 527 116 533 80.5 c 128,-1,3
 539 45 539 45 554 21 c 1,4,5
 505 -6 505 -6 459 -6 c 0,6,7
 439 -6 439 -6 427 10.5 c 128,-1,8
 415 27 415 27 410 64 c 1,9,10
 382 26 382 26 345.5 8 c 128,-1,11
 309 -10 309 -10 260 -10 c 0,12,13
 153 -10 153 -10 93 64.5 c 128,-1,14
 33 139 33 139 33 273 c 0,15,16
 33 361 33 361 63.5 425.5 c 128,-1,17
 94 490 94 490 151 525 c 128,-1,18
 208 560 208 560 285 560 c 0,19,20
 317 560 317 560 350 551 c 128,-1,21
 383 542 383 542 406 527 c 1,22,-1
 406 637 l 1,23,-1
 291 637 l 1,24,-1
 291 713 l 1,25,-1
 406 713 l 1,26,-1
 406 791 l 1,27,-1
 527 791 l 1,28,-1
 527 713 l 1,29,-1
 602 713 l 1,30,-1
 602 637 l 1,31,-1
 527 637 l 1,0,-1
350 92.5 m 128,-1,33
 381 112 381 112 406 154 c 1,34,-1
 406 440 l 1,35,36
 387 457 387 457 357 468 c 128,-1,37
 327 479 327 479 296 479 c 0,38,39
 229 479 229 479 193 425.5 c 128,-1,40
 157 372 157 372 157 273 c 0,41,42
 157 73 157 73 278 73 c 0,43,32
 319 73 319 73 350 92.5 c 128,-1,33
EndSplineSet
EndChar

StartChar: e
Encoding: 101 101 250
Width: 573
GlyphClass: 2
Flags: W
AnchorPoint: "Anchor-10" 0 0 basechar 0
AnchorPoint: "Anchor-9" 293 550 basechar 0
AnchorPoint: "Anchor-8" 398 10 basechar 0
AnchorPoint: "Anchor-7" 297 0 basechar 0
LayerCount: 2
Fore
SplineSet
536 255 m 1,1,-1
 168 255 l 1,2,3
 173 169 173 169 208 122 c 128,-1,4
 243 75 243 75 303 75 c 0,5,6
 344 75 344 75 370.5 91.5 c 128,-1,7
 397 108 397 108 431 156 c 0,8,9
 437 165 437 165 452 165 c 0,10,11
 480 165 480 165 529 130 c 1,12,13
 501 62 501 62 442.5 26 c 128,-1,14
 384 -10 384 -10 303 -10 c 0,15,16
 182 -10 182 -10 112.5 66.5 c 128,-1,17
 43 143 43 143 43 276 c 0,18,19
 43 408 43 408 113 484 c 128,-1,20
 183 560 183 560 305 560 c 0,21,22
 417 560 417 560 478.5 495 c 128,-1,23
 540 430 540 430 540 312 c 0,24,0
 540 295 540 295 536 255 c 1,1,-1
417 329 m 1,25,26
 417 478 417 478 302 478 c 0,27,28
 245 478 245 478 211.5 440.5 c 128,-1,29
 178 403 178 403 170 329 c 1,30,-1
 417 329 l 1,25,26
EndSplineSet
EndChar

StartChar: eogonek
Encoding: 281 281 266
Width: 573
GlyphClass: 2
Flags: W
AnchorPoint: "Anchor-10" 0 0 basechar 0
AnchorPoint: "Anchor-9" 293 550 basechar 0
AnchorPoint: "Anchor-8" 398 10 basechar 0
AnchorPoint: "Anchor-7" 297 0 basechar 0
LayerCount: 2
Fore
SplineSet
536 255 m 1,1,-1
 168 255 l 1,2,3
 173 169 173 169 208 122 c 128,-1,4
 243 75 243 75 303 75 c 0,5,6
 344 75 344 75 370.5 91.5 c 128,-1,7
 397 108 397 108 431 156 c 0,8,9
 437 165 437 165 452 165 c 0,10,11
 480 165 480 165 529 130 c 1,12,13
 509 82 509 82 473.5 49.5 c 128,-1,14
 438 17 438 17 390 2 c 1,15,16
 345 -45 345 -45 345 -93 c 0,17,18
 345 -114 345 -114 355 -125 c 128,-1,19
 365 -136 365 -136 382 -136 c 0,20,21
 401 -136 401 -136 421 -126 c 1,22,23
 437 -139 437 -139 437 -157 c 0,24,25
 437 -177 437 -177 416.5 -188.5 c 128,-1,26
 396 -200 396 -200 360 -200 c 0,27,28
 308 -200 308 -200 279 -178.5 c 128,-1,29
 250 -157 250 -157 250 -115 c 0,30,31
 250 -51 250 -51 310 -10 c 1,32,-1
 303 -10 l 2,33,34
 182 -10 182 -10 112.5 66.5 c 128,-1,35
 43 143 43 143 43 276 c 0,36,37
 43 408 43 408 113 484 c 128,-1,38
 183 560 183 560 305 560 c 0,39,40
 417 560 417 560 478.5 495 c 128,-1,41
 540 430 540 430 540 312 c 0,42,0
 540 295 540 295 536 255 c 1,1,-1
417 329 m 1,43,44
 417 478 417 478 302 478 c 0,45,46
 245 478 245 478 211.5 440.5 c 128,-1,47
 178 403 178 403 170 329 c 1,48,-1
 417 329 l 1,43,44
EndSplineSet
EndChar

StartChar: uni0259
Encoding: 601 601 268
Width: 573
GlyphClass: 2
Flags: W
AnchorPoint: "Anchor-10" 0 0 basechar 0
AnchorPoint: "Anchor-9" 277 550 basechar 0
AnchorPoint: "Anchor-8" 176 540 basechar 0
AnchorPoint: "Anchor-7" 281 0 basechar 0
LayerCount: 2
Fore
SplineSet
460.5 483.5 m 128,-1,1
 530 407 530 407 530 274 c 0,2,3
 530 142 530 142 460 66 c 128,-1,4
 390 -10 390 -10 268 -10 c 0,5,6
 156 -10 156 -10 94.5 55 c 128,-1,7
 33 120 33 120 33 238 c 0,8,9
 33 255 33 255 37 295 c 1,10,-1
 406 295 l 1,11,12
 401 381 401 381 366 428 c 128,-1,13
 331 475 331 475 270 475 c 0,14,15
 229 475 229 475 203 458.5 c 128,-1,16
 177 442 177 442 143 394 c 0,17,18
 136 385 136 385 122 385 c 0,19,20
 93 385 93 385 44 420 c 1,21,22
 73 488 73 488 131 524 c 128,-1,23
 189 560 189 560 270 560 c 0,24,0
 391 560 391 560 460.5 483.5 c 128,-1,1
362.5 109.5 m 128,-1,26
 396 147 396 147 404 221 c 1,27,-1
 157 221 l 1,28,29
 157 72 157 72 271 72 c 0,30,25
 329 72 329 72 362.5 109.5 c 128,-1,26
EndSplineSet
EndChar

StartChar: f
Encoding: 102 102 269
Width: 355
Flags: W
LayerCount: 2
Fore
SplineSet
341 773 m 128,-1,1
 372 757 372 757 372 730 c 0,2,3
 372 717 372 717 368 705.5 c 128,-1,4
 364 694 364 694 358 689 c 1,5,6
 327 704 327 704 282 704 c 0,7,8
 250 704 250 704 233 681.5 c 128,-1,9
 216 659 216 659 216 616 c 2,10,-1
 216 550 l 1,11,-1
 327 550 l 1,12,-1
 327 471 l 1,13,-1
 216 471 l 1,14,-1
 216 0 l 1,15,-1
 95 0 l 1,16,-1
 95 471 l 1,17,-1
 5 471 l 1,18,-1
 5 550 l 1,19,-1
 95 550 l 1,20,-1
 95 617 l 2,21,22
 95 698 95 698 138 743.5 c 128,-1,23
 181 789 181 789 257 789 c 0,24,0
 310 789 310 789 341 773 c 128,-1,1
EndSplineSet
EndChar

StartChar: g
Encoding: 103 103 270
Width: 585
GlyphClass: 2
Flags: W
AnchorPoint: "Anchor-10" 0 0 basechar 0
AnchorPoint: "Anchor-9" 293 550 basechar 0
AnchorPoint: "Anchor-8" 0 0 basechar 0
AnchorPoint: "Anchor-7" 293 -189 basechar 0
LayerCount: 2
Fore
SplineSet
567 577 m 128,-1,1
 579 555 579 555 578 502 c 1,2,3
 507 502 507 502 477 485 c 1,4,5
 513 438 513 438 513 376 c 0,6,7
 513 282 513 282 453.5 233 c 128,-1,8
 394 184 394 184 279 184 c 0,9,10
 225 184 225 184 203 176.5 c 128,-1,11
 181 169 181 169 181 150 c 256,12,13
 181 131 181 131 207.5 124 c 128,-1,14
 234 117 234 117 309 117 c 0,15,16
 426 117 426 117 489.5 77 c 128,-1,17
 553 37 553 37 553 -36 c 0,18,19
 553 -115 553 -115 482.5 -160 c 128,-1,20
 412 -205 412 -205 289 -205 c 0,21,22
 167 -205 167 -205 102 -166.5 c 128,-1,23
 37 -128 37 -128 37 -57 c 0,24,25
 37 -12 37 -12 68.5 16 c 128,-1,26
 100 44 100 44 161 54 c 1,27,-1
 161 57 l 1,28,29
 123 65 123 65 102 85.5 c 128,-1,30
 81 106 81 106 81 136 c 0,31,32
 81 162 81 162 102.5 182 c 128,-1,33
 124 202 124 202 160 211 c 1,34,35
 113 236 113 236 86 276 c 128,-1,36
 59 316 59 316 59 364 c 0,37,38
 59 459 59 459 120.5 509.5 c 128,-1,39
 182 560 182 560 298 560 c 0,40,41
 361 560 361 560 410 537 c 1,42,43
 434 565 434 565 465 582 c 128,-1,44
 496 599 496 599 523 599 c 0,45,0
 555 599 555 599 567 577 c 128,-1,1
364 292 m 128,-1,47
 389 317 389 317 389 372 c 0,48,49
 389 428 389 428 364 453.5 c 128,-1,50
 339 479 339 479 285 479 c 0,51,52
 232 479 232 479 207 453 c 128,-1,53
 182 427 182 427 182 372 c 0,54,55
 182 319 182 319 207.5 293 c 128,-1,56
 233 267 233 267 285 267 c 0,57,46
 339 267 339 267 364 292 c 128,-1,47
161 -42 m 0,59,60
 161 -83 161 -83 192.5 -103 c 128,-1,61
 224 -123 224 -123 289 -123 c 0,62,63
 360 -123 360 -123 397.5 -102.5 c 128,-1,64
 435 -82 435 -82 435 -42 c 256,65,66
 435 -2 435 -2 400.5 16.5 c 128,-1,67
 366 35 366 35 293 35 c 0,68,58
 161 35 161 35 161 -42 c 0,59,60
EndSplineSet
EndChar

StartChar: h
Encoding: 104 104 277
Width: 630
GlyphClass: 2
Flags: W
AnchorPoint: "Anchor-10" 0 0 basechar 0
AnchorPoint: "Anchor-9" 125 737 basechar 0
AnchorPoint: "Anchor-8" 0 0 basechar 0
AnchorPoint: "Anchor-7" 315 0 basechar 0
LayerCount: 2
Fore
SplineSet
501 514 m 128,-1,1
 546 468 546 468 546 389 c 2,2,-1
 546 0 l 1,3,-1
 424 0 l 1,4,-1
 424 376 l 2,5,6
 424 424 424 424 403.5 447.5 c 128,-1,7
 383 471 383 471 340 471 c 0,8,9
 303 471 303 471 263.5 455 c 128,-1,10
 224 439 224 439 186 408 c 1,11,-1
 186 0 l 1,12,-1
 64 0 l 1,13,-1
 64 791 l 1,14,-1
 186 791 l 1,15,-1
 186 486 l 1,16,17
 225 521 225 521 276.5 540.5 c 128,-1,18
 328 560 328 560 380 560 c 0,19,0
 456 560 456 560 501 514 c 128,-1,1
EndSplineSet
EndChar

StartChar: hbar
Encoding: 295 295 278
Width: 647
GlyphClass: 2
Flags: W
AnchorPoint: "Anchor-10" 0 0 basechar 0
AnchorPoint: "Anchor-9" 142 737 basechar 0
AnchorPoint: "Anchor-8" 0 0 basechar 0
AnchorPoint: "Anchor-7" 332 0 basechar 0
LayerCount: 2
Fore
SplineSet
517 514 m 128,-1,1
 562 468 562 468 562 389 c 2,2,-1
 562 0 l 1,3,-1
 441 0 l 1,4,-1
 441 376 l 2,5,6
 441 424 441 424 420.5 447.5 c 128,-1,7
 400 471 400 471 357 471 c 0,8,9
 320 471 320 471 280 454.5 c 128,-1,10
 240 438 240 438 202 407 c 1,11,-1
 202 0 l 1,12,-1
 81 0 l 1,13,-1
 81 636 l 1,14,-1
 17 636 l 1,15,-1
 17 704 l 1,16,-1
 81 704 l 1,17,-1
 81 791 l 1,18,-1
 202 791 l 1,19,-1
 202 704 l 1,20,-1
 316 704 l 1,21,-1
 316 636 l 1,22,-1
 202 636 l 1,23,-1
 202 485 l 1,24,25
 241 520 241 520 293 540 c 128,-1,26
 345 560 345 560 396 560 c 0,27,0
 472 560 472 560 517 514 c 128,-1,1
EndSplineSet
EndChar

StartChar: dotlessi
Encoding: 305 305 283
Width: 288
GlyphClass: 2
Flags: W
AnchorPoint: "Anchor-10" 0 0 basechar 0
AnchorPoint: "Anchor-9" 144 550 basechar 0
AnchorPoint: "Anchor-8" 205 0 basechar 0
AnchorPoint: "Anchor-7" 144 0 basechar 0
LayerCount: 2
Fore
SplineSet
83 550 m 1,0,-1
 205 550 l 1,1,-1
 205 0 l 1,2,-1
 83 0 l 1,3,-1
 83 550 l 1,0,-1
EndSplineSet
EndChar

StartChar: uni0237
Encoding: 567 567 297
Width: 270
GlyphClass: 2
Flags: W
AnchorPoint: "Anchor-10" 0 0 basechar 0
AnchorPoint: "Anchor-9" 134 550 basechar 0
AnchorPoint: "Anchor-8" 0 0 basechar 0
AnchorPoint: "Anchor-7" 34 -205 basechar 0
LayerCount: 2
Fore
SplineSet
-26.5 -198.5 m 128,-1,1
 -54 -192 -54 -192 -66 -180 c 0,2,3
 -74 -172 -74 -172 -74 -159 c 256,4,5
 -74 -146 -74 -146 -68 -134.5 c 128,-1,6
 -62 -123 -62 -123 -56 -120 c 1,7,8
 -30 -134 -30 -134 10 -134 c 0,9,10
 40 -134 40 -134 56.5 -116 c 128,-1,11
 73 -98 73 -98 73 -62 c 2,12,-1
 73 550 l 1,13,-1
 195 550 l 1,14,-1
 195 -53 l 2,15,16
 195 -123 195 -123 153 -164 c 128,-1,17
 111 -205 111 -205 34 -205 c 0,18,0
 1 -205 1 -205 -26.5 -198.5 c 128,-1,1
EndSplineSet
EndChar

StartChar: k
Encoding: 107 107 299
Width: 594
Flags: W
LayerCount: 2
Fore
SplineSet
582 0 m 1,0,1
 571 0 571 0 520 -3 c 0,2,3
 494 -5 494 -5 488 -5 c 0,4,5
 467 -5 467 -5 454 3 c 128,-1,6
 441 11 441 11 431 27 c 2,7,-1
 336 191 l 2,8,9
 321 217 321 217 298 228.5 c 128,-1,10
 275 240 275 240 232 237 c 2,11,-1
 199 235 l 1,12,-1
 199 0 l 1,13,-1
 78 0 l 1,14,-1
 78 791 l 1,15,-1
 199 791 l 1,16,-1
 199 324 l 1,17,-1
 227 325 l 2,18,19
 259 327 259 327 275.5 337.5 c 128,-1,20
 292 348 292 348 308 376 c 2,21,-1
 411 550 l 1,22,-1
 548 550 l 1,23,-1
 416 346 l 2,24,25
 403 324 403 324 392.5 311.5 c 128,-1,26
 382 299 382 299 365 290 c 1,27,28
 392 283 392 283 409.5 269 c 128,-1,29
 427 255 427 255 441 232 c 2,30,-1
 582 0 l 1,0,1
EndSplineSet
EndChar

StartChar: kgreenlandic
Encoding: 312 312 301
Width: 608
Flags: W
LayerCount: 2
Fore
SplineSet
574 15 m 1,0,1
 517 -3 517 -3 489 -3 c 0,2,3
 468 -3 468 -3 454.5 4.5 c 128,-1,4
 441 12 441 12 430 28 c 2,5,-1
 322 184 l 2,6,7
 303 211 303 211 285 222 c 128,-1,8
 267 233 267 233 225 231 c 2,9,-1
 199 229 l 1,10,-1
 199 0 l 1,11,-1
 78 0 l 1,12,-1
 78 550 l 1,13,-1
 199 550 l 1,14,-1
 199 317 l 1,15,-1
 218 318 l 2,16,17
 248 320 248 320 261.5 330.5 c 128,-1,18
 275 341 275 341 294 370 c 2,19,-1
 411 550 l 1,20,-1
 548 550 l 1,21,-1
 397 331 l 2,22,23
 377 301 377 301 357 283 c 1,24,25
 399 267 399 267 428 226 c 2,26,-1
 574 15 l 1,0,1
EndSplineSet
EndChar

StartChar: l
Encoding: 108 108 302
Width: 268
GlyphClass: 2
Flags: W
AnchorPoint: "Anchor-10" 248 550 basechar 0
AnchorPoint: "Anchor-9" 134 750 basechar 0
AnchorPoint: "Anchor-8" 0 0 basechar 0
AnchorPoint: "Anchor-7" 134 0 basechar 0
LayerCount: 2
Fore
SplineSet
73 791 m 1,0,-1
 195 791 l 1,1,-1
 195 0 l 1,2,-1
 73 0 l 1,3,-1
 73 791 l 1,0,-1
EndSplineSet
EndChar

StartChar: lslash
Encoding: 322 322 310
Width: 268
GlyphClass: 2
Flags: W
AnchorPoint: "Anchor-10" 248 550 basechar 0
AnchorPoint: "Anchor-9" 134 750 basechar 0
AnchorPoint: "Anchor-8" 0 0 basechar 0
AnchorPoint: "Anchor-7" 134 0 basechar 0
LayerCount: 2
Fore
SplineSet
268 418 m 1,0,-1
 195 384 l 1,1,-1
 195 0 l 1,2,-1
 73 0 l 1,3,-1
 73 327 l 1,4,-1
 0 293 l 1,5,-1
 0 390 l 1,6,-1
 73 424 l 1,7,-1
 73 791 l 1,8,-1
 195 791 l 1,9,-1
 195 480 l 1,10,-1
 268 514 l 1,11,-1
 268 418 l 1,0,-1
EndSplineSet
EndChar

StartChar: m
Encoding: 109 109 311
Width: 912
GlyphClass: 2
Flags: W
AnchorPoint: "Anchor-10" 0 0 basechar 0
AnchorPoint: "Anchor-9" 456 550 basechar 0
AnchorPoint: "Anchor-8" 0 0 basechar 0
AnchorPoint: "Anchor-7" 456 0 basechar 0
LayerCount: 2
Fore
SplineSet
789.5 513.5 m 128,-1,1
 834 467 834 467 834 388 c 2,2,-1
 834 0 l 1,3,-1
 712 0 l 1,4,-1
 712 385 l 2,5,6
 712 437 712 437 694.5 458 c 128,-1,7
 677 479 677 479 634 479 c 0,8,9
 568 479 568 479 517 420 c 1,10,11
 518 415 518 415 518 404 c 2,12,-1
 518 0 l 1,13,-1
 396 0 l 1,14,-1
 396 395 l 2,15,16
 396 439 396 439 379 459 c 128,-1,17
 362 479 362 479 326 479 c 0,18,19
 293 479 293 479 262.5 462.5 c 128,-1,20
 232 446 232 446 200 410 c 1,21,-1
 200 0 l 1,22,-1
 79 0 l 1,23,-1
 79 356 l 2,24,25
 79 501 79 501 67 532 c 1,26,27
 84 542 84 542 108 548 c 128,-1,28
 132 554 132 554 151 554 c 0,29,30
 174 554 174 554 186 538 c 128,-1,31
 198 522 198 522 199 488 c 1,32,33
 237 526 237 526 276.5 543 c 128,-1,34
 316 560 316 560 364 560 c 0,35,36
 411 560 411 560 446 540.5 c 128,-1,37
 481 521 481 521 500 485 c 1,38,39
 562 560 562 560 668 560 c 0,40,0
 745 560 745 560 789.5 513.5 c 128,-1,1
EndSplineSet
EndChar

StartChar: n
Encoding: 110 110 313
Width: 610
GlyphClass: 2
Flags: W
AnchorPoint: "Anchor-10" 0 0 basechar 0
AnchorPoint: "Anchor-9" 305 550 basechar 0
AnchorPoint: "Anchor-8" 0 0 basechar 0
AnchorPoint: "Anchor-7" 305 0 basechar 0
LayerCount: 2
Fore
SplineSet
536 57 m 128,-1,1
 539 33 539 33 549 14 c 1,2,3
 502 -5 502 -5 450 -5 c 0,4,5
 429 -5 429 -5 420.5 18.5 c 128,-1,6
 412 42 412 42 412 102 c 2,7,-1
 412 366 l 2,8,9
 412 424 412 424 393 448.5 c 128,-1,10
 374 473 374 473 329 473 c 0,11,12
 264 473 264 473 191 409 c 1,13,-1
 191 0 l 1,14,-1
 70 0 l 1,15,-1
 70 368 l 2,16,17
 70 498 70 498 58 534 c 1,18,19
 116 554 116 554 156 554 c 0,20,21
 175 554 175 554 183 540 c 128,-1,22
 191 526 191 526 191 496 c 2,23,-1
 191 484 l 1,24,25
 241 526 241 526 280 543 c 128,-1,26
 319 560 319 560 362 560 c 0,27,28
 448 560 448 560 490.5 513.5 c 128,-1,29
 533 467 533 467 533 372 c 2,30,-1
 533 135 l 2,31,0
 533 81 533 81 536 57 c 128,-1,1
EndSplineSet
EndChar

StartChar: eng
Encoding: 331 331 320
Width: 609
Flags: W
LayerCount: 2
Fore
SplineSet
490.5 513.5 m 128,-1,1
 533 467 533 467 533 372 c 2,2,-1
 533 -46 l 2,3,4
 533 -119 533 -119 489.5 -162 c 128,-1,5
 446 -205 446 -205 366 -205 c 0,6,7
 324 -205 324 -205 291 -194 c 128,-1,8
 258 -183 258 -183 258 -158 c 0,9,10
 258 -146 258 -146 264 -134.5 c 128,-1,11
 270 -123 270 -123 276 -121 c 1,12,13
 306 -134 306 -134 344 -134 c 0,14,15
 377 -134 377 -134 394.5 -114 c 128,-1,16
 412 -94 412 -94 412 -55 c 2,17,-1
 412 366 l 2,18,19
 412 422 412 422 393.5 447.5 c 128,-1,20
 375 473 375 473 329 473 c 0,21,22
 265 473 265 473 191 409 c 1,23,-1
 191 0 l 1,24,-1
 70 0 l 1,25,-1
 70 368 l 2,26,27
 70 424 70 424 68 465.5 c 128,-1,28
 66 507 66 507 58 532 c 1,29,30
 116 552 116 552 156 552 c 0,31,32
 174 552 174 552 182.5 538.5 c 128,-1,33
 191 525 191 525 191 494 c 2,34,-1
 191 485 l 1,35,36
 232 520 232 520 272.5 540 c 128,-1,37
 313 560 313 560 362 560 c 0,38,0
 448 560 448 560 490.5 513.5 c 128,-1,1
EndSplineSet
EndChar

StartChar: o
Encoding: 111 111 323
Width: 561
GlyphClass: 2
Flags: W
AnchorPoint: "Anchor-10" 420 474 basechar 0
AnchorPoint: "Anchor-9" 281 550 basechar 0
AnchorPoint: "Anchor-8" 366 10 basechar 0
AnchorPoint: "Anchor-7" 281 0 basechar 0
LayerCount: 2
Fore
SplineSet
97 64 m 128,-1,1
 33 138 33 138 33 276 c 256,2,3
 33 414 33 414 97 487 c 128,-1,4
 161 560 161 560 281 560 c 256,5,6
 401 560 401 560 464.5 487 c 128,-1,7
 528 414 528 414 528 276 c 0,8,9
 528 137 528 137 464 63.5 c 128,-1,10
 400 -10 400 -10 281 -10 c 0,11,0
 161 -10 161 -10 97 64 c 128,-1,1
375.5 121.5 m 128,-1,13
 405 170 405 170 405 276 c 0,14,15
 405 381 405 381 375.5 429 c 128,-1,16
 346 477 346 477 281 477 c 256,17,18
 216 477 216 477 186.5 429.5 c 128,-1,19
 157 382 157 382 157 276 c 0,20,21
 157 169 157 169 186.5 121 c 128,-1,22
 216 73 216 73 281 73 c 256,23,12
 346 73 346 73 375.5 121.5 c 128,-1,13
EndSplineSet
Substitution2: "Single Substitution lookup 20 subtable" ordmasculine
Substitution2: "'aalt' Access All Alternates lookup 0 subtable" ordmasculine
EndChar

StartChar: ohorn
Encoding: 417 417 337
Width: 561
GlyphClass: 2
Flags: W
AnchorPoint: "Anchor-10" 420 474 basechar 0
AnchorPoint: "Anchor-9" 274 550 basechar 0
AnchorPoint: "Anchor-8" 366 10 basechar 0
AnchorPoint: "Anchor-7" 274 0 basechar 0
LayerCount: 2
Fore
SplineSet
491 448 m 1,1,2
 528 380 528 380 528 276 c 0,3,4
 528 137 528 137 464 63.5 c 128,-1,5
 400 -10 400 -10 281 -10 c 0,6,7
 161 -10 161 -10 97 64 c 128,-1,8
 33 138 33 138 33 276 c 256,9,10
 33 414 33 414 97 487 c 128,-1,11
 161 560 161 560 281 560 c 0,12,13
 384 560 384 560 447 505 c 1,14,15
 483 518 483 518 483 568 c 0,16,17
 483 598 483 598 454 620 c 1,18,19
 456 636 456 636 472 648 c 128,-1,20
 488 660 488 660 512 660 c 0,21,22
 547 660 547 660 568.5 637.5 c 128,-1,23
 590 615 590 615 590 578 c 0,24,0
 590 477 590 477 491 448 c 1,1,2
375.5 121.5 m 128,-1,26
 405 170 405 170 405 276 c 0,27,28
 405 381 405 381 375.5 429 c 128,-1,29
 346 477 346 477 281 477 c 256,30,31
 216 477 216 477 186.5 429.5 c 128,-1,32
 157 382 157 382 157 276 c 0,33,34
 157 169 157 169 186.5 121 c 128,-1,35
 216 73 216 73 281 73 c 256,36,25
 346 73 346 73 375.5 121.5 c 128,-1,26
EndSplineSet
EndChar

StartChar: oslash
Encoding: 248 248 345
Width: 561
GlyphClass: 2
Flags: W
AnchorPoint: "Anchor-10" 420 474 basechar 0
AnchorPoint: "Anchor-9" 281 550 basechar 0
AnchorPoint: "Anchor-8" 366 10 basechar 0
AnchorPoint: "Anchor-7" 281 0 basechar 0
LayerCount: 2
Fore
SplineSet
528 276 m 0,1,2
 528 137 528 137 464 63.5 c 128,-1,3
 400 -10 400 -10 281 -10 c 0,4,5
 192 -10 192 -10 131 33 c 1,6,-1
 107 0 l 1,7,-1
 30 0 l 1,8,-1
 87 76 l 1,9,10
 33 150 33 150 33 276 c 0,11,12
 33 414 33 414 97 487 c 128,-1,13
 161 560 161 560 281 560 c 0,14,15
 365 560 365 560 422 524 c 1,16,-1
 441 550 l 1,17,-1
 518 550 l 1,18,-1
 468 483 l 1,19,0
 528 409 528 409 528 276 c 0,1,2
165 181 m 1,21,-1
 363 445 l 1,22,23
 334 477 334 477 281 477 c 0,24,25
 216 477 216 477 186.5 429.5 c 128,-1,26
 157 382 157 382 157 276 c 0,27,20
 157 223 157 223 165 181 c 1,21,-1
375.5 121.5 m 128,-1,29
 405 170 405 170 405 276 c 0,30,31
 405 338 405 338 394 384 c 1,32,-1
 192 113 l 1,33,34
 222 73 222 73 281 73 c 0,35,28
 346 73 346 73 375.5 121.5 c 128,-1,29
EndSplineSet
EndChar

StartChar: oe
Encoding: 339 339 348
Width: 937
GlyphClass: 2
Flags: W
AnchorPoint: "Anchor-10" 420 474 basechar 0
AnchorPoint: "Anchor-9" 656 550 basechar 0
AnchorPoint: "Anchor-8" 761 10 basechar 0
AnchorPoint: "Anchor-7" 660 0 basechar 0
LayerCount: 2
Fore
SplineSet
899 255 m 1,1,-1
 531 255 l 1,2,3
 536 169 536 169 571 122 c 128,-1,4
 606 75 606 75 667 75 c 0,5,6
 708 75 708 75 734 91.5 c 128,-1,7
 760 108 760 108 794 156 c 0,8,9
 802 165 802 165 815 165 c 0,10,11
 845 165 845 165 892 130 c 1,12,13
 864 62 864 62 806 26 c 128,-1,14
 748 -10 748 -10 667 -10 c 0,15,16
 604 -10 604 -10 554.5 11 c 128,-1,17
 505 32 505 32 471 72 c 1,18,19
 407 -10 407 -10 281 -10 c 0,20,21
 161 -10 161 -10 97 64 c 128,-1,22
 33 138 33 138 33 276 c 256,23,24
 33 414 33 414 97 487 c 128,-1,25
 161 560 161 560 281 560 c 0,26,27
 408 560 408 560 472 478 c 1,28,29
 506 518 506 518 555.5 539 c 128,-1,30
 605 560 605 560 668 560 c 0,31,32
 780 560 780 560 841.5 495.5 c 128,-1,33
 903 431 903 431 903 312 c 0,34,0
 903 295 903 295 899 255 c 1,1,-1
780 329 m 1,35,36
 780 478 780 478 665 478 c 0,37,38
 608 478 608 478 574.5 440.5 c 128,-1,39
 541 403 541 403 533 329 c 1,40,-1
 780 329 l 1,35,36
375.5 121.5 m 128,-1,42
 405 170 405 170 405 276 c 0,43,44
 405 381 405 381 375.5 429 c 128,-1,45
 346 477 346 477 281 477 c 256,46,47
 216 477 216 477 186.5 429.5 c 128,-1,48
 157 382 157 382 157 276 c 0,49,50
 157 169 157 169 186.5 121 c 128,-1,51
 216 73 216 73 281 73 c 256,52,41
 346 73 346 73 375.5 121.5 c 128,-1,42
EndSplineSet
EndChar

StartChar: p
Encoding: 112 112 349
Width: 598
Flags: W
LayerCount: 2
Fore
SplineSet
509.5 489.5 m 128,-1,1
 566 419 566 419 566 283 c 0,2,3
 566 195 566 195 534.5 129 c 128,-1,4
 503 63 503 63 445 26.5 c 128,-1,5
 387 -10 387 -10 311 -10 c 0,6,7
 256 -10 256 -10 194 11 c 1,8,-1
 194 -225 l 1,9,-1
 73 -225 l 1,10,-1
 73 348 l 2,11,12
 73 425 73 425 67.5 465 c 128,-1,13
 62 505 62 505 47 526 c 1,14,15
 71 539 71 539 96.5 546.5 c 128,-1,16
 122 554 122 554 143 554 c 0,17,18
 162 554 162 554 173.5 540 c 128,-1,19
 185 526 185 526 190 496 c 1,20,21
 251 560 251 560 345 560 c 0,22,0
 453 560 453 560 509.5 489.5 c 128,-1,1
404.5 127 m 128,-1,24
 442 181 442 181 442 283 c 0,25,26
 442 383 442 383 413 431 c 128,-1,27
 384 479 384 479 323 479 c 0,28,29
 286 479 286 479 251.5 462 c 128,-1,30
 217 445 217 445 194 417 c 1,31,-1
 194 95 l 1,32,33
 241 73 241 73 297 73 c 0,34,23
 367 73 367 73 404.5 127 c 128,-1,24
EndSplineSet
EndChar

StartChar: thorn
Encoding: 254 254 350
Width: 609
Flags: W
LayerCount: 2
Fore
SplineSet
505.5 492 m 128,-1,1
 566 424 566 424 566 276 c 0,2,3
 566 133 566 133 496.5 60.5 c 128,-1,4
 427 -12 427 -12 313 -12 c 0,5,6
 253 -12 253 -12 195 12 c 1,7,-1
 195 -225 l 1,8,-1
 73 -225 l 1,9,-1
 73 784 l 1,10,-1
 195 784 l 1,11,-1
 195 504 l 1,12,13
 253 560 253 560 340 560 c 0,14,0
 445 560 445 560 505.5 492 c 128,-1,1
404 119 m 128,-1,16
 442 167 442 167 442 276 c 256,17,18
 442 385 442 385 412 432 c 128,-1,19
 382 479 382 479 322 479 c 0,20,21
 285 479 285 479 252 461.5 c 128,-1,22
 219 444 219 444 195 416 c 1,23,-1
 195 96 l 1,24,25
 247 71 247 71 296 71 c 0,26,15
 366 71 366 71 404 119 c 128,-1,16
EndSplineSet
EndChar

StartChar: q
Encoding: 113 113 351
Width: 608
Flags: W
LayerCount: 2
Fore
SplineSet
555 526 m 1,1,2
 540 503 540 503 533.5 460.5 c 128,-1,3
 527 418 527 418 527 347 c 2,4,-1
 527 -225 l 1,5,-1
 406 -225 l 1,6,-1
 406 41 l 1,7,8
 346 -10 346 -10 260 -10 c 0,9,10
 153 -10 153 -10 93 65 c 128,-1,11
 33 140 33 140 33 275 c 0,12,13
 33 361 33 361 60.5 425.5 c 128,-1,14
 88 490 88 490 139.5 525 c 128,-1,15
 191 560 191 560 260 560 c 0,16,17
 313 560 313 560 350.5 545.5 c 128,-1,18
 388 531 388 531 414 501 c 1,19,20
 426 554 426 554 461 554 c 0,21,0
 508 554 508 554 555 526 c 1,1,2
406 129 m 1,23,-1
 406 411 l 1,24,-1
 406 417 l 1,25,26
 360 480 360 480 286 480 c 0,27,28
 222 480 222 480 189.5 428 c 128,-1,29
 157 376 157 376 157 275 c 0,30,31
 157 171 157 171 188 121 c 128,-1,32
 219 71 219 71 283 71 c 0,33,22
 356 71 356 71 406 129 c 1,23,-1
EndSplineSet
EndChar

StartChar: r
Encoding: 114 114 352
Width: 427
GlyphClass: 2
Flags: W
AnchorPoint: "Anchor-10" 0 0 basechar 0
AnchorPoint: "Anchor-9" 213 550 basechar 0
AnchorPoint: "Anchor-8" 0 0 basechar 0
AnchorPoint: "Anchor-7" 132 0 basechar 0
LayerCount: 2
Fore
SplineSet
390.5 539 m 128,-1,1
 411 521 411 521 411 484 c 0,2,3
 411 470 411 470 407 456.5 c 128,-1,4
 403 443 403 443 396 435 c 1,5,6
 385 442 385 442 369.5 445 c 128,-1,7
 354 448 354 448 328 448 c 0,8,9
 263 448 263 448 228 403.5 c 128,-1,10
 193 359 193 359 193 276 c 2,11,-1
 193 0 l 1,12,-1
 72 0 l 1,13,-1
 72 550 l 1,14,-1
 193 550 l 1,15,-1
 193 468 l 1,16,17
 214 510 214 510 249 533.5 c 128,-1,18
 284 557 284 557 326 557 c 0,19,0
 370 557 370 557 390.5 539 c 128,-1,1
EndSplineSet
EndChar

StartChar: s
Encoding: 115 115 359
Width: 498
GlyphClass: 2
Flags: W
AnchorPoint: "Anchor-10" 0 0 basechar 0
AnchorPoint: "Anchor-9" 243 550 basechar 0
AnchorPoint: "Anchor-8" 0 0 basechar 0
AnchorPoint: "Anchor-7" 243 0 basechar 0
LayerCount: 2
Fore
SplineSet
138.5 4 m 128,-1,1
 91 18 91 18 63.5 42.5 c 128,-1,2
 36 67 36 67 36 97 c 0,3,4
 36 120 36 120 52 136.5 c 128,-1,5
 68 153 68 153 97 156 c 1,6,7
 122 114 122 114 158.5 93.5 c 128,-1,8
 195 73 195 73 249 73 c 0,9,10
 301 73 301 73 325.5 94.5 c 128,-1,11
 350 116 350 116 350 152 c 0,12,13
 350 185 350 185 320.5 202 c 128,-1,14
 291 219 291 219 229 237 c 0,15,16
 172 254 172 254 135 270.5 c 128,-1,17
 98 287 98 287 72 320 c 128,-1,18
 46 353 46 353 46 405 c 0,19,20
 46 453 46 453 74.5 488.5 c 128,-1,21
 103 524 103 524 149.5 542 c 128,-1,22
 196 560 196 560 249 560 c 0,23,24
 319 560 319 560 372.5 533 c 128,-1,25
 426 506 426 506 457 459 c 1,26,27
 444 438 444 438 425.5 423.5 c 128,-1,28
 407 409 407 409 392 409 c 0,29,30
 375 409 375 409 363 424 c 0,31,32
 317 479 317 479 251 479 c 0,33,34
 209 479 209 479 185 461.5 c 128,-1,35
 161 444 161 444 161 408 c 0,36,37
 161 384 161 384 177 368.5 c 128,-1,38
 193 353 193 353 216.5 344 c 128,-1,39
 240 335 240 335 283 323 c 0,40,41
 340 307 340 307 376.5 291.5 c 128,-1,42
 413 276 413 276 439 244 c 128,-1,43
 465 212 465 212 465 159 c 0,44,45
 465 79 465 79 407 34.5 c 128,-1,46
 349 -10 349 -10 245 -10 c 0,47,0
 186 -10 186 -10 138.5 4 c 128,-1,1
EndSplineSet
EndChar

StartChar: scedilla
Encoding: 351 351 362
Width: 498
GlyphClass: 2
Flags: W
AnchorPoint: "Anchor-10" 0 0 basechar 0
AnchorPoint: "Anchor-9" 0 0 basechar 0
AnchorPoint: "Anchor-8" 0 0 basechar 0
AnchorPoint: "Anchor-7" 243 -214 basechar 0
LayerCount: 2
Fore
SplineSet
417.5 43 m 128,-1,1
 370 0 370 0 283 -8 c 1,2,-1
 244 -52 l 1,3,-1
 254 -52 l 2,4,5
 298 -52 298 -52 325.5 -75 c 128,-1,6
 353 -98 353 -98 353 -136 c 0,7,8
 353 -183 353 -183 319 -209.5 c 128,-1,9
 285 -236 285 -236 219 -236 c 0,10,11
 167 -236 167 -236 142.5 -222.5 c 128,-1,12
 118 -209 118 -209 118 -186 c 0,13,14
 118 -175 118 -175 122 -166 c 1,15,16
 134 -171 134 -171 157 -174 c 128,-1,17
 180 -177 180 -177 206 -177 c 0,18,19
 236 -177 236 -177 249.5 -167.5 c 128,-1,20
 263 -158 263 -158 263 -138 c 0,21,22
 263 -126 263 -126 253 -117 c 128,-1,23
 243 -108 243 -108 224 -108 c 0,24,25
 208 -108 208 -108 192 -114 c 1,26,-1
 162 -75 l 1,27,-1
 206 -8 l 1,28,29
 131 -1 131 -1 83.5 28 c 128,-1,30
 36 57 36 57 36 97 c 0,31,32
 36 120 36 120 52 136.5 c 128,-1,33
 68 153 68 153 97 156 c 1,34,35
 122 114 122 114 158.5 93.5 c 128,-1,36
 195 73 195 73 249 73 c 0,37,38
 301 73 301 73 325.5 94.5 c 128,-1,39
 350 116 350 116 350 152 c 0,40,41
 350 185 350 185 320.5 202 c 128,-1,42
 291 219 291 219 229 237 c 0,43,44
 172 254 172 254 135 270.5 c 128,-1,45
 98 287 98 287 72 320 c 128,-1,46
 46 353 46 353 46 405 c 0,47,48
 46 453 46 453 74.5 488.5 c 128,-1,49
 103 524 103 524 149.5 542 c 128,-1,50
 196 560 196 560 249 560 c 0,51,52
 319 560 319 560 372.5 533 c 128,-1,53
 426 506 426 506 457 459 c 1,54,55
 444 438 444 438 425.5 423.5 c 128,-1,56
 407 409 407 409 392 409 c 0,57,58
 375 409 375 409 363 424 c 0,59,60
 317 479 317 479 251 479 c 0,61,62
 209 479 209 479 185 461.5 c 128,-1,63
 161 444 161 444 161 408 c 0,64,65
 161 384 161 384 177 368.5 c 128,-1,66
 193 353 193 353 216.5 344 c 128,-1,67
 240 335 240 335 283 323 c 0,68,69
 340 307 340 307 376.5 291.5 c 128,-1,70
 413 276 413 276 439 244 c 128,-1,71
 465 212 465 212 465 159 c 0,72,0
 465 86 465 86 417.5 43 c 128,-1,1
EndSplineSet
Substitution2: "'locl' Localized Forms in Latin lookup 7 subtable" uni0219
Substitution2: "'locl' Localized Forms in Latin lookup 6 subtable" uni0219
Substitution2: "'aalt' Access All Alternates lookup 0 subtable" uni0219
EndChar

StartChar: germandbls
Encoding: 223 223 367
Width: 630
Flags: W
LayerCount: 2
Fore
SplineSet
540.5 304 m 128,-1,1
 573 261 573 261 573 199 c 0,2,3
 573 96 573 96 514.5 41 c 128,-1,4
 456 -14 456 -14 362 -14 c 0,5,6
 297 -14 297 -14 255 6 c 128,-1,7
 213 26 213 26 213 69 c 0,8,9
 213 84 213 84 221 95.5 c 128,-1,10
 229 107 229 107 241 110 c 1,11,12
 285 69 285 69 353 69 c 0,13,14
 407 69 407 69 437.5 101 c 128,-1,15
 468 133 468 133 468 191 c 0,16,17
 468 314 468 314 347 314 c 0,18,19
 339 314 339 314 319 312 c 2,20,-1
 295 311 l 2,21,22
 282 311 282 311 272 339.5 c 128,-1,23
 262 368 262 368 262 386 c 0,24,25
 262 395 262 395 269 395 c 2,26,-1
 324 395 l 2,27,28
 376 395 376 395 409.5 429.5 c 128,-1,29
 443 464 443 464 443 526 c 0,30,31
 443 580 443 580 411.5 615 c 128,-1,32
 380 650 380 650 318 650 c 0,33,34
 250 650 250 650 214.5 613 c 128,-1,35
 179 576 179 576 179 509 c 2,36,-1
 179 0 l 1,37,-1
 71 0 l 1,38,-1
 71 509 l 2,39,40
 71 578 71 578 103.5 628 c 128,-1,41
 136 678 136 678 193 704.5 c 128,-1,42
 250 731 250 731 320 731 c 256,43,44
 390 731 390 731 442.5 705 c 128,-1,45
 495 679 495 679 522.5 633 c 128,-1,46
 550 587 550 587 550 530 c 0,47,48
 550 469 550 469 524 425.5 c 128,-1,49
 498 382 498 382 452 361 c 1,50,0
 508 347 508 347 540.5 304 c 128,-1,1
EndSplineSet
EndChar

StartChar: t
Encoding: 116 116 368
Width: 395
GlyphClass: 2
Flags: W
AnchorPoint: "Anchor-10" 341 630 basechar 0
AnchorPoint: "Anchor-9" 163 660 basechar 0
AnchorPoint: "Anchor-8" 0 0 basechar 0
AnchorPoint: "Anchor-7" 249 0 basechar 0
LayerCount: 2
Fore
SplineSet
377 73.5 m 128,-1,1
 383 64 383 64 383 51 c 0,2,3
 383 31 383 31 369 19 c 0,4,5
 353 6 353 6 321.5 -2 c 128,-1,6
 290 -10 290 -10 252 -10 c 0,7,8
 184 -10 184 -10 143.5 27.5 c 128,-1,9
 103 65 103 65 103 128 c 2,10,-1
 103 469 l 1,11,-1
 12 469 l 1,12,-1
 12 550 l 1,13,-1
 103 550 l 1,14,-1
 103 700 l 1,15,-1
 224 700 l 1,16,-1
 224 550 l 1,17,-1
 341 550 l 1,18,-1
 341 469 l 1,19,-1
 224 469 l 1,20,-1
 224 141 l 2,21,22
 224 103 224 103 238 86.5 c 128,-1,23
 252 70 252 70 283 70 c 0,24,25
 321 70 321 70 362 87 c 1,26,0
 371 83 371 83 377 73.5 c 128,-1,1
EndSplineSet
EndChar

StartChar: tbar
Encoding: 359 359 369
Width: 397
GlyphClass: 2
Flags: W
AnchorPoint: "Anchor-10" 341 630 basechar 0
AnchorPoint: "Anchor-9" 163 660 basechar 0
AnchorPoint: "Anchor-8" 0 0 basechar 0
AnchorPoint: "Anchor-7" 249 0 basechar 0
LayerCount: 2
Fore
SplineSet
377 73.5 m 128,-1,1
 383 64 383 64 383 51 c 0,2,3
 383 31 383 31 369 19 c 0,4,5
 353 6 353 6 321.5 -2 c 128,-1,6
 290 -10 290 -10 252 -10 c 0,7,8
 184 -10 184 -10 143.5 27.5 c 128,-1,9
 103 65 103 65 103 128 c 2,10,-1
 103 273 l 1,11,-1
 12 273 l 1,12,-1
 12 353 l 1,13,-1
 103 353 l 1,14,-1
 103 469 l 1,15,-1
 12 469 l 1,16,-1
 12 550 l 1,17,-1
 103 550 l 1,18,-1
 103 700 l 1,19,-1
 224 700 l 1,20,-1
 224 550 l 1,21,-1
 341 550 l 1,22,-1
 341 469 l 1,23,-1
 224 469 l 1,24,-1
 224 353 l 1,25,-1
 335 353 l 1,26,-1
 335 273 l 1,27,-1
 224 273 l 1,28,-1
 224 141 l 2,29,30
 224 103 224 103 238 86.5 c 128,-1,31
 252 70 252 70 283 70 c 0,32,33
 321 70 321 70 362 87 c 1,34,0
 371 83 371 83 377 73.5 c 128,-1,1
EndSplineSet
EndChar

StartChar: uni0163
Encoding: 355 355 371
Width: 395
GlyphClass: 2
Flags: W
AnchorPoint: "Anchor-10" 341 630 basechar 0
AnchorPoint: "Anchor-9" 0 0 basechar 0
AnchorPoint: "Anchor-8" 0 0 basechar 0
AnchorPoint: "Anchor-7" 249 -214 basechar 0
LayerCount: 2
Fore
SplineSet
377 73.5 m 128,-1,1
 383 64 383 64 383 51 c 0,2,3
 383 31 383 31 369 19 c 0,4,5
 344 -2 344 -2 289 -8 c 1,6,-1
 250 -52 l 1,7,-1
 260 -52 l 2,8,9
 304 -52 304 -52 331.5 -75 c 128,-1,10
 359 -98 359 -98 359 -136 c 0,11,12
 359 -183 359 -183 325 -209.5 c 128,-1,13
 291 -236 291 -236 225 -236 c 0,14,15
 173 -236 173 -236 148.5 -222.5 c 128,-1,16
 124 -209 124 -209 124 -186 c 0,17,18
 124 -175 124 -175 128 -166 c 1,19,20
 140 -171 140 -171 163 -174 c 128,-1,21
 186 -177 186 -177 212 -177 c 0,22,23
 242 -177 242 -177 255.5 -167.5 c 128,-1,24
 269 -158 269 -158 269 -138 c 0,25,26
 269 -126 269 -126 259 -117 c 128,-1,27
 249 -108 249 -108 230 -108 c 0,28,29
 214 -108 214 -108 198 -114 c 1,30,-1
 168 -75 l 1,31,-1
 214 -6 l 1,32,33
 163 4 163 4 133 39.5 c 128,-1,34
 103 75 103 75 103 128 c 2,35,-1
 103 469 l 1,36,-1
 12 469 l 1,37,-1
 12 550 l 1,38,-1
 103 550 l 1,39,-1
 103 700 l 1,40,-1
 224 700 l 1,41,-1
 224 550 l 1,42,-1
 341 550 l 1,43,-1
 341 469 l 1,44,-1
 224 469 l 1,45,-1
 224 141 l 2,46,47
 224 103 224 103 238 86.5 c 128,-1,48
 252 70 252 70 283 70 c 0,49,50
 321 70 321 70 362 87 c 1,51,0
 371 83 371 83 377 73.5 c 128,-1,1
EndSplineSet
Substitution2: "'locl' Localized Forms in Latin lookup 7 subtable" uni021B
Substitution2: "'locl' Localized Forms in Latin lookup 6 subtable" uni021B
Substitution2: "'aalt' Access All Alternates lookup 0 subtable" uni021B
EndChar

StartChar: u
Encoding: 117 117 376
Width: 623
GlyphClass: 2
Flags: W
AnchorPoint: "Anchor-10" 527 523 basechar 0
AnchorPoint: "Anchor-9" 311 550 basechar 0
AnchorPoint: "Anchor-8" 559 14 basechar 0
AnchorPoint: "Anchor-7" 305 0 basechar 0
LayerCount: 2
Fore
SplineSet
547.5 59 m 128,-1,1
 551 33 551 33 559 14 c 1,2,3
 521 -5 521 -5 477 -5 c 0,4,5
 451 -5 451 -5 438.5 10 c 128,-1,6
 426 25 426 25 422 62 c 1,7,8
 393 28 393 28 348.5 9 c 128,-1,9
 304 -10 304 -10 252 -10 c 0,10,11
 166 -10 166 -10 121.5 37 c 128,-1,12
 77 84 77 84 77 175 c 2,13,-1
 77 550 l 1,14,-1
 198 550 l 1,15,-1
 198 182 l 2,16,17
 198 122 198 122 218 96.5 c 128,-1,18
 238 71 238 71 284 71 c 0,19,20
 325 71 325 71 360 92 c 128,-1,21
 395 113 395 113 421 153 c 1,22,-1
 421 550 l 1,23,-1
 544 550 l 1,24,-1
 544 126 l 2,25,0
 544 85 544 85 547.5 59 c 128,-1,1
EndSplineSet
EndChar

StartChar: uhorn
Encoding: 432 432 389
Width: 623
GlyphClass: 2
Flags: W
AnchorPoint: "Anchor-10" 527 523 basechar 0
AnchorPoint: "Anchor-9" 311 550 basechar 0
AnchorPoint: "Anchor-8" 559 14 basechar 0
AnchorPoint: "Anchor-7" 305 0 basechar 0
LayerCount: 2
Fore
SplineSet
544 488 m 1,1,-1
 544 126 l 2,2,3
 544 85 544 85 547.5 59 c 128,-1,4
 551 33 551 33 559 14 c 1,5,6
 521 -5 521 -5 477 -5 c 0,7,8
 451 -5 451 -5 438.5 10 c 128,-1,9
 426 25 426 25 422 62 c 1,10,11
 393 28 393 28 348.5 9 c 128,-1,12
 304 -10 304 -10 252 -10 c 0,13,14
 166 -10 166 -10 121.5 37 c 128,-1,15
 77 84 77 84 77 175 c 2,16,-1
 77 550 l 1,17,-1
 198 550 l 1,18,-1
 198 182 l 2,19,20
 198 122 198 122 218 96.5 c 128,-1,21
 238 71 238 71 284 71 c 0,22,23
 325 71 325 71 360 92 c 128,-1,24
 395 113 395 113 421 153 c 1,25,-1
 421 550 l 1,26,-1
 527 550 l 2,27,28
 590 550 590 550 590 617 c 0,29,30
 590 647 590 647 561 669 c 1,31,32
 563 685 563 685 579 697 c 128,-1,33
 595 709 595 709 619 709 c 0,34,35
 654 709 654 709 675.5 686.5 c 128,-1,36
 697 664 697 664 697 627 c 0,37,0
 697 500 697 500 544 488 c 1,1,-1
EndSplineSet
EndChar

StartChar: uogonek
Encoding: 371 371 397
Width: 623
GlyphClass: 2
Flags: W
AnchorPoint: "Anchor-10" 527 523 basechar 0
AnchorPoint: "Anchor-9" 311 550 basechar 0
AnchorPoint: "Anchor-8" 559 14 basechar 0
AnchorPoint: "Anchor-7" 305 0 basechar 0
LayerCount: 2
Fore
SplineSet
598 -153 m 0,1,2
 598 -173 598 -173 577.5 -184.5 c 128,-1,3
 557 -196 557 -196 521 -196 c 0,4,5
 469 -196 469 -196 440 -174.5 c 128,-1,6
 411 -153 411 -153 411 -112 c 0,7,8
 411 -49 411 -49 472 -5 c 1,9,10
 448 -3 448 -3 436.5 12 c 128,-1,11
 425 27 425 27 422 62 c 1,12,13
 393 28 393 28 348.5 9 c 128,-1,14
 304 -10 304 -10 252 -10 c 0,15,16
 166 -10 166 -10 121.5 37 c 128,-1,17
 77 84 77 84 77 175 c 2,18,-1
 77 550 l 1,19,-1
 198 550 l 1,20,-1
 198 182 l 2,21,22
 198 122 198 122 218 96.5 c 128,-1,23
 238 71 238 71 284 71 c 0,24,25
 325 71 325 71 360 92 c 128,-1,26
 395 113 395 113 421 153 c 1,27,-1
 421 550 l 1,28,-1
 544 550 l 1,29,-1
 544 126 l 2,30,31
 544 85 544 85 547.5 59 c 128,-1,32
 551 33 551 33 559 14 c 1,33,34
 506 -37 506 -37 506 -90 c 0,35,36
 506 -110 506 -110 516 -121 c 128,-1,37
 526 -132 526 -132 543 -132 c 0,38,39
 565 -132 565 -132 582 -122 c 1,40,0
 598 -135 598 -135 598 -153 c 0,1,2
EndSplineSet
EndChar

StartChar: v
Encoding: 118 118 400
Width: 548
Flags: W
LayerCount: 2
Fore
SplineSet
528 550 m 1,0,1
 516 392 516 392 470 256.5 c 128,-1,2
 424 121 424 121 334 0 c 1,3,-1
 219 0 l 1,4,5
 129 122 129 122 81 257.5 c 128,-1,6
 33 393 33 393 20 550 c 1,7,-1
 146 550 l 1,8,9
 153 425 153 425 184 319 c 128,-1,10
 215 213 215 213 278 112 c 1,11,12
 339 212 339 212 368 317.5 c 128,-1,13
 397 423 397 423 402 550 c 1,14,-1
 528 550 l 1,0,1
EndSplineSet
EndChar

StartChar: w
Encoding: 119 119 401
Width: 787
GlyphClass: 2
Flags: W
AnchorPoint: "Anchor-10" 0 0 basechar 0
AnchorPoint: "Anchor-9" 399 550 basechar 0
AnchorPoint: "Anchor-8" 0 0 basechar 0
AnchorPoint: "Anchor-7" 393 0 basechar 0
LayerCount: 2
Fore
SplineSet
761 550 m 1,0,1
 749 395 749 395 713.5 259 c 128,-1,2
 678 123 678 123 612 0 c 1,3,-1
 521 0 l 1,4,5
 477 81 477 81 447 160.5 c 128,-1,6
 417 240 417 240 398 328 c 1,7,8
 360 159 360 159 273 0 c 1,9,-1
 181 0 l 1,10,11
 114 119 114 119 77.5 253 c 128,-1,12
 41 387 41 387 24 550 c 1,13,-1
 148 550 l 1,14,15
 160 417 160 417 178.5 320.5 c 128,-1,16
 197 224 197 224 236 138 c 1,17,18
 319 315 319 315 346 550 c 1,19,-1
 452 550 l 1,20,21
 480 314 480 314 564 135 c 1,22,23
 602 224 602 224 618.5 324 c 128,-1,24
 635 424 635 424 641 550 c 1,25,-1
 761 550 l 1,0,1
EndSplineSet
EndChar

StartChar: x
Encoding: 120 120 406
Width: 508
Flags: W
LayerCount: 2
Fore
SplineSet
375 0 m 1,0,1
 370 59 370 59 338.5 111.5 c 128,-1,2
 307 164 307 164 254 220 c 1,3,4
 201 164 201 164 169.5 111.5 c 128,-1,5
 138 59 138 59 133 0 c 1,6,-1
 16 0 l 1,7,8
 22 80 22 80 66 146 c 128,-1,9
 110 212 110 212 187 288 c 1,10,11
 110 364 110 364 68.5 422.5 c 128,-1,12
 27 481 27 481 21 550 c 1,13,-1
 138 550 l 1,14,15
 141 500 141 500 170.5 454.5 c 128,-1,16
 200 409 200 409 254 353 c 1,17,18
 308 409 308 409 337.5 454.5 c 128,-1,19
 367 500 367 500 370 550 c 1,20,-1
 487 550 l 1,21,22
 481 481 481 481 439.5 422.5 c 128,-1,23
 398 364 398 364 321 288 c 1,24,25
 398 212 398 212 442 146 c 128,-1,26
 486 80 486 80 492 0 c 1,27,-1
 375 0 l 1,0,1
EndSplineSet
EndChar

StartChar: y
Encoding: 121 121 407
Width: 518
GlyphClass: 2
Flags: W
AnchorPoint: "Anchor-10" 0 0 basechar 0
AnchorPoint: "Anchor-9" 260 550 basechar 0
AnchorPoint: "Anchor-8" 0 0 basechar 0
AnchorPoint: "Anchor-7" 398 0 basechar 0
LayerCount: 2
Fore
SplineSet
517 550 m 1,0,-1
 304 -42 l 2,1,2
 273 -131 273 -131 227 -169 c 128,-1,3
 181 -207 181 -207 106 -207 c 0,4,5
 60 -207 60 -207 32 -190 c 128,-1,6
 4 -173 4 -173 4 -145 c 0,7,8
 4 -131 4 -131 9.5 -119 c 128,-1,9
 15 -107 15 -107 28 -93 c 1,10,11
 39 -101 39 -101 56.5 -105.5 c 128,-1,12
 74 -110 74 -110 92 -110 c 0,13,14
 131 -110 131 -110 155.5 -83.5 c 128,-1,15
 180 -57 180 -57 200 9 c 1,16,-1
 4 550 l 1,17,-1
 129 550 l 1,18,-1
 262 157 l 1,19,-1
 392 550 l 1,20,-1
 517 550 l 1,0,-1
EndSplineSet
EndChar

StartChar: z
Encoding: 122 122 416
Width: 513
GlyphClass: 2
Flags: W
AnchorPoint: "Anchor-10" 0 0 basechar 0
AnchorPoint: "Anchor-9" 257 550 basechar 0
AnchorPoint: "Anchor-8" 0 0 basechar 0
AnchorPoint: "Anchor-7" 257 0 basechar 0
LayerCount: 2
Fore
SplineSet
483 85 m 1,0,-1
 483 0 l 1,1,-1
 30 0 l 1,2,-1
 30 75 l 1,3,-1
 337 465 l 1,4,-1
 56 465 l 1,5,-1
 56 550 l 1,6,-1
 475 550 l 1,7,-1
 475 476 l 1,8,-1
 164 85 l 1,9,-1
 483 85 l 1,0,-1
EndSplineSet
EndChar

StartChar: ordfeminine
Encoding: 170 170 423
Width: 380
Flags: W
LayerCount: 2
Fore
SplineSet
357 377 m 1,1,2
 335 360 335 360 298 360 c 0,3,4
 258 360 258 360 252 404 c 1,5,6
 214 359 214 359 142 359 c 0,7,8
 93 359 93 359 63 384.5 c 128,-1,9
 33 410 33 410 33 454 c 0,10,11
 33 519 33 519 87.5 545 c 128,-1,12
 142 571 142 571 251 573 c 1,13,-1
 251 584 l 2,14,15
 251 647 251 647 190 647 c 0,16,17
 168 647 168 647 151 639.5 c 128,-1,18
 134 632 134 632 115 620 c 0,19,20
 110 617 110 617 100 611 c 128,-1,21
 90 605 90 605 81 605 c 0,22,23
 69 605 69 605 57 622 c 128,-1,24
 45 639 45 639 41 659 c 1,25,26
 69 681 69 681 111.5 696.5 c 128,-1,27
 154 712 154 712 203 712 c 0,28,29
 267 712 267 712 306.5 681 c 128,-1,30
 346 650 346 650 346 590 c 2,31,-1
 346 446 l 2,32,0
 346 398 346 398 357 377 c 1,1,2
216 433.5 m 128,-1,34
 237 444 237 444 251 462 c 1,35,-1
 251 518 l 1,36,37
 189 516 189 516 158.5 503.5 c 128,-1,38
 128 491 128 491 128 463 c 0,39,40
 128 423 128 423 172 423 c 0,41,33
 195 423 195 423 216 433.5 c 128,-1,34
EndSplineSet
EndChar

StartChar: ordmasculine
Encoding: 186 186 424
Width: 380
Flags: W
LayerCount: 2
Fore
SplineSet
66 405.5 m 128,-1,1
 23 454 23 454 23 533 c 0,2,3
 23 613 23 613 66 661.5 c 128,-1,4
 109 710 109 710 191 710 c 0,5,6
 272 710 272 710 314.5 661.5 c 128,-1,7
 357 613 357 613 357 533 c 0,8,9
 357 454 357 454 314 405.5 c 128,-1,10
 271 357 271 357 191 357 c 0,11,0
 109 357 109 357 66 405.5 c 128,-1,1
244.5 447.5 m 128,-1,13
 261 473 261 473 261 533 c 256,14,15
 261 593 261 593 244.5 619 c 128,-1,16
 228 645 228 645 191 645 c 256,17,18
 154 645 154 645 136.5 618.5 c 128,-1,19
 119 592 119 592 119 533 c 256,20,21
 119 474 119 474 136.5 448 c 128,-1,22
 154 422 154 422 191 422 c 256,23,12
 228 422 228 422 244.5 447.5 c 128,-1,13
EndSplineSet
EndChar

StartChar: uni207F
Encoding: 8319 8319 425
Width: 380
Flags: W
LayerCount: 2
Fore
SplineSet
350.5 396.5 m 128,-1,1
 353 384 353 384 359 372 c 1,2,3
 326 360 326 360 288 360 c 0,4,5
 269 360 269 360 261 373.5 c 128,-1,6
 253 387 253 387 253 421 c 2,7,-1
 253 595 l 2,8,9
 253 618 253 618 243.5 628.5 c 128,-1,10
 234 639 234 639 213 639 c 0,11,12
 171 639 171 639 125 591 c 1,13,-1
 125 363 l 1,14,-1
 30 363 l 1,15,-1
 30 593 l 2,16,17
 30 673 30 673 22 692 c 1,18,19
 34 698 34 698 53 703.5 c 128,-1,20
 72 709 72 709 90 709 c 0,21,22
 109 709 109 709 117 700.5 c 128,-1,23
 125 692 125 692 125 673 c 2,24,-1
 125 660 l 1,25,26
 150 684 150 684 182.5 700 c 128,-1,27
 215 716 215 716 249 716 c 0,28,29
 300 716 300 716 324 689.5 c 128,-1,30
 348 663 348 663 348 609 c 2,31,-1
 348 440 l 2,32,0
 348 409 348 409 350.5 396.5 c 128,-1,1
EndSplineSet
EndChar

StartChar: uni0394
Encoding: 916 916 426
Width: 586
Flags: W
LayerCount: 2
Fore
SplineSet
586 57 m 1,0,-1
 586 0 l 1,1,-1
 0 0 l 1,2,-1
 0 57 l 1,3,-1
 247 700 l 1,4,-1
 339 700 l 1,5,-1
 586 57 l 1,0,-1
454 98 m 1,6,-1
 293 530 l 1,7,-1
 132 98 l 1,8,-1
 454 98 l 1,6,-1
EndSplineSet
EndChar

StartChar: uni03A9
Encoding: 937 937 427
Width: 703
Flags: W
LayerCount: 2
Fore
SplineSet
63 85 m 1,0,-1
 220 85 l 1,1,-1
 220 140 l 1,2,3
 133 166 133 166 81.5 239 c 128,-1,4
 30 312 30 312 30 410 c 0,5,6
 30 500 30 500 70 568 c 128,-1,7
 110 636 110 636 182.5 673 c 128,-1,8
 255 710 255 710 351 710 c 256,9,10
 447 710 447 710 520 673 c 128,-1,11
 593 636 593 636 633 568 c 128,-1,12
 673 500 673 500 673 410 c 0,13,14
 673 311 673 311 621 237 c 128,-1,15
 569 163 569 163 483 140 c 1,16,-1
 483 85 l 1,17,-1
 639 85 l 1,18,-1
 639 0 l 1,19,-1
 389 0 l 1,20,-1
 389 194 l 1,21,22
 468 208 468 208 511.5 264.5 c 128,-1,23
 555 321 555 321 555 410 c 0,24,25
 555 512 555 512 501.5 568 c 128,-1,26
 448 624 448 624 351 624 c 0,27,28
 255 624 255 624 201.5 568 c 128,-1,29
 148 512 148 512 148 410 c 0,30,31
 148 322 148 322 191.5 265 c 128,-1,32
 235 208 235 208 314 194 c 1,33,-1
 314 0 l 1,34,-1
 63 0 l 1,35,-1
 63 85 l 1,0,-1
EndSplineSet
EndChar

StartChar: uni03BC
Encoding: 956 956 428
Width: 623
GlyphClass: 2
Flags: W
AnchorPoint: "Anchor-6" 530 523 basechar 0
AnchorPoint: "Anchor-5" 311 550 basechar 0
AnchorPoint: "Anchor-4" 559 14 basechar 0
AnchorPoint: "Anchor-3" 305 0 basechar 0
LayerCount: 2
Fore
SplineSet
559 14 m 1,1,2
 523 -5 523 -5 477 -5 c 0,3,4
 452 -5 452 -5 440 10.5 c 128,-1,5
 428 26 428 26 424 62 c 1,6,7
 405 27 405 27 370 7.5 c 128,-1,8
 335 -12 335 -12 292 -12 c 0,9,10
 232 -12 232 -12 198 17 c 1,11,-1
 198 -220 l 1,12,-1
 77 -220 l 1,13,-1
 77 550 l 1,14,-1
 198 550 l 1,15,-1
 198 180 l 2,16,17
 198 69 198 69 298 69 c 0,18,19
 338 69 338 69 370.5 93 c 128,-1,20
 403 117 403 117 422 165 c 1,21,-1
 422 550 l 1,22,-1
 544 550 l 1,23,-1
 544 126 l 2,24,0
 544 47 544 47 559 14 c 1,1,2
EndSplineSet
EndChar

StartChar: pi
Encoding: 960 960 429
Width: 640
Flags: W
LayerCount: 2
Fore
SplineSet
422 22 m 128,-1,1
 393 54 393 54 393 106 c 2,2,-1
 393 463 l 1,3,-1
 234 463 l 1,4,-1
 234 0 l 1,5,-1
 116 0 l 1,6,-1
 116 463 l 1,7,-1
 16 463 l 1,8,-1
 16 550 l 1,9,-1
 617 550 l 1,10,-1
 617 463 l 1,11,-1
 511 463 l 1,12,-1
 511 119 l 2,13,14
 511 59 511 59 561 59 c 0,15,16
 578 59 578 59 595.5 64 c 128,-1,17
 613 69 613 69 626 77 c 1,18,-1
 626 13 l 1,19,20
 582 -10 582 -10 513 -10 c 0,21,0
 451 -10 451 -10 422 22 c 128,-1,1
EndSplineSet
EndChar

StartChar: uni0E01
Encoding: 3585 3585 430
Width: 612
GlyphClass: 2
Flags: W
AnchorPoint: "Anchor-12" 552 550 basechar 0
AnchorPoint: "Anchor-11" 552 0 basechar 0
LayerCount: 2
Fore
SplineSet
483.5 534.5 m 128,-1,1
 552 483 552 483 552 383 c 2,2,-1
 552 0 l 1,3,-1
 433 0 l 1,4,-1
 433 383 l 2,5,6
 433 442 433 442 400.5 474.5 c 128,-1,7
 368 507 368 507 301 507 c 0,8,9
 259 507 259 507 226 496 c 128,-1,10
 193 485 193 485 174 469 c 128,-1,11
 155 453 155 453 155 440 c 0,12,13
 155 421 155 421 175 406.5 c 128,-1,14
 195 392 195 392 212 392 c 0,15,16
 221 392 221 392 244 399 c 0,17,18
 262 405 262 405 270 405 c 0,19,20
 280 405 280 405 294.5 383 c 128,-1,21
 309 361 309 361 309 346 c 0,22,23
 309 336 309 336 300 336 c 0,24,25
 241 336 241 336 219 309.5 c 128,-1,26
 197 283 197 283 197 218 c 2,27,-1
 197 0 l 1,28,-1
 79 0 l 1,29,-1
 79 218 l 2,30,31
 79 302 79 302 132 343 c 1,32,33
 98 357 98 357 71.5 382 c 128,-1,34
 45 407 45 407 45 437 c 0,35,36
 45 470 45 470 76.5 504.5 c 128,-1,37
 108 539 108 539 166 562.5 c 128,-1,38
 224 586 224 586 301 586 c 0,39,0
 415 586 415 586 483.5 534.5 c 128,-1,1
EndSplineSet
EndChar

StartChar: uni0E02
Encoding: 3586 3586 431
Width: 593
GlyphClass: 2
Flags: W
AnchorPoint: "Anchor-12" 527 550 basechar 0
AnchorPoint: "Anchor-11" 527 0 basechar 0
LayerCount: 2
Fore
SplineSet
174 30 m 128,-1,1
 120 69 120 69 120 151 c 2,2,-1
 120 247 l 2,3,4
 120 259 120 259 125 267.5 c 128,-1,5
 130 276 130 276 141 283 c 0,6,7
 187 314 187 314 210.5 333 c 128,-1,8
 234 352 234 352 249.5 378 c 128,-1,9
 265 404 265 404 265 437 c 0,10,11
 265 478 265 478 242.5 499 c 128,-1,12
 220 520 220 520 182 520 c 0,13,14
 146 520 146 520 124.5 500 c 128,-1,15
 103 480 103 480 103 452 c 0,16,17
 103 430 103 430 113 418.5 c 128,-1,18
 123 407 123 407 140 407 c 0,19,20
 156 407 156 407 164.5 417 c 128,-1,21
 173 427 173 427 173 443 c 0,22,23
 173 454 173 454 167.5 462 c 128,-1,24
 162 470 162 470 152 472 c 0,25,26
 143 476 143 476 132 476 c 1,27,28
 134 483 134 483 143.5 488.5 c 128,-1,29
 153 494 153 494 167 494 c 0,30,31
 193 494 193 494 211 478 c 128,-1,32
 229 462 229 462 229 432 c 0,33,34
 229 396 229 396 204 372.5 c 128,-1,35
 179 349 179 349 141 349 c 0,36,37
 98 349 98 349 69.5 377.5 c 128,-1,38
 41 406 41 406 41 456 c 0,39,40
 41 510 41 510 83.5 545.5 c 128,-1,41
 126 581 126 581 192 581 c 0,42,43
 261 581 261 581 304.5 544.5 c 128,-1,44
 348 508 348 508 348 443 c 0,45,46
 348 380 348 380 320.5 337 c 128,-1,47
 293 294 293 294 238 246 c 1,48,-1
 238 165 l 2,49,50
 238 116 238 116 256 93 c 128,-1,51
 274 70 274 70 321 70 c 0,52,53
 373 70 373 70 390.5 93 c 128,-1,54
 408 116 408 116 408 172 c 2,55,-1
 408 576 l 1,56,-1
 527 576 l 1,57,-1
 527 163 l 2,58,59
 527 -9 527 -9 320 -9 c 0,60,0
 228 -9 228 -9 174 30 c 128,-1,1
EndSplineSet
EndChar

StartChar: uni0E03
Encoding: 3587 3587 432
Width: 629
GlyphClass: 2
Flags: W
AnchorPoint: "Anchor-12" 563 550 basechar 0
AnchorPoint: "Anchor-11" 563 0 basechar 0
LayerCount: 2
Fore
SplineSet
180.5 36 m 128,-1,1
 123 81 123 81 123 172 c 2,2,-1
 123 216 l 2,3,4
 123 259 123 259 142.5 288 c 128,-1,5
 162 317 162 317 200 352 c 0,6,7
 235 386 235 386 251 409 c 128,-1,8
 267 432 267 432 267 465 c 0,9,10
 267 506 267 506 237 506 c 0,11,12
 212 506 212 506 194 473 c 1,13,14
 183 490 183 490 171.5 498.5 c 128,-1,15
 160 507 160 507 144 507 c 256,16,17
 128 507 128 507 118 497 c 128,-1,18
 108 487 108 487 108 469 c 256,19,20
 108 451 108 451 118.5 441 c 128,-1,21
 129 431 129 431 144 431 c 0,22,23
 172 431 172 431 187 457 c 1,24,25
 195 450 195 450 199.5 444.5 c 128,-1,26
 204 439 204 439 204 430 c 0,27,28
 204 408 204 408 184 391.5 c 128,-1,29
 164 375 164 375 131 375 c 0,30,31
 86 375 86 375 56.5 401.5 c 128,-1,32
 27 428 27 428 27 476 c 256,33,34
 27 524 27 524 54 552 c 128,-1,35
 81 580 81 580 120 580 c 0,36,37
 147 580 147 580 164.5 570.5 c 128,-1,38
 182 561 182 561 194 541 c 1,39,40
 219 580 219 580 275 580 c 0,41,42
 321 580 321 580 348.5 552.5 c 128,-1,43
 376 525 376 525 376 475 c 0,44,45
 376 429 376 429 357.5 395 c 128,-1,46
 339 361 339 361 303 317 c 0,47,48
 275 283 275 283 261.5 260.5 c 128,-1,49
 248 238 248 238 248 212 c 2,50,-1
 248 172 l 2,51,52
 248 119 248 119 269.5 95.5 c 128,-1,53
 291 72 291 72 344 72 c 0,54,55
 402 72 402 72 423 95 c 128,-1,56
 444 118 444 118 444 172 c 2,57,-1
 444 576 l 1,58,-1
 563 576 l 1,59,-1
 563 166 l 2,60,61
 563 82 563 82 509 36.5 c 128,-1,62
 455 -9 455 -9 343 -9 c 0,63,0
 238 -9 238 -9 180.5 36 c 128,-1,1
EndSplineSet
EndChar

StartChar: uni0E04
Encoding: 3588 3588 433
Width: 631
GlyphClass: 2
Flags: W
AnchorPoint: "Anchor-12" 571 550 basechar 0
AnchorPoint: "Anchor-11" 571 0 basechar 0
LayerCount: 2
Fore
SplineSet
511.5 523.5 m 128,-1,1
 571 461 571 461 571 353 c 2,2,-1
 571 0 l 1,3,-1
 452 0 l 1,4,-1
 452 348 l 2,5,6
 452 426 452 426 424.5 466.5 c 128,-1,7
 397 507 397 507 320 507 c 0,8,9
 247 507 247 507 208.5 467.5 c 128,-1,10
 170 428 170 428 170 355 c 0,11,12
 170 315 170 315 178 281 c 1,13,14
 199 322 199 322 234.5 346 c 128,-1,15
 270 370 270 370 317 370 c 256,16,17
 364 370 364 370 391 344.5 c 128,-1,18
 418 319 418 319 418 275 c 256,19,20
 418 231 418 231 392 206.5 c 128,-1,21
 366 182 366 182 323 182 c 0,22,23
 297 182 297 182 278 196.5 c 128,-1,24
 259 211 259 211 259 231 c 0,25,26
 259 242 259 242 264 251 c 128,-1,27
 269 260 269 260 278 262 c 1,28,29
 286 247 286 247 296 240 c 128,-1,30
 306 233 306 233 321 233 c 0,31,32
 338 233 338 233 347 243.5 c 128,-1,33
 356 254 356 254 356 271 c 0,34,35
 356 287 356 287 344.5 296.5 c 128,-1,36
 333 306 333 306 314 306 c 0,37,38
 197 306 197 306 191 0 c 1,39,-1
 86 0 l 2,40,41
 71 0 71 0 71 20 c 0,42,43
 71 44 71 44 79.5 73 c 128,-1,44
 88 102 88 102 102 139 c 0,45,46
 113 164 113 164 113 171 c 0,47,48
 113 176 113 176 109 183.5 c 128,-1,49
 105 191 105 191 99 200 c 0,50,51
 78 235 78 235 65 269.5 c 128,-1,52
 52 304 52 304 52 355 c 0,53,54
 52 425 52 425 85.5 477.5 c 128,-1,55
 119 530 119 530 179.5 558 c 128,-1,56
 240 586 240 586 320 586 c 0,57,0
 452 586 452 586 511.5 523.5 c 128,-1,1
EndSplineSet
EndChar

StartChar: uni0E05
Encoding: 3589 3589 434
Width: 640
GlyphClass: 2
Flags: W
AnchorPoint: "Anchor-12" 580 550 basechar 0
AnchorPoint: "Anchor-11" 580 0 basechar 0
LayerCount: 2
Fore
SplineSet
540.5 513 m 128,-1,1
 580 463 580 463 580 370 c 2,2,-1
 580 0 l 1,3,-1
 462 0 l 1,4,-1
 462 370 l 2,5,6
 462 420 462 420 447.5 450 c 128,-1,7
 433 480 433 480 398 493 c 1,8,9
 354 460 354 460 322 439 c 1,10,11
 287 460 287 460 243 493 c 1,12,13
 170 454 170 454 170 355 c 0,14,15
 170 315 170 315 178 281 c 1,16,17
 199 322 199 322 234.5 346 c 128,-1,18
 270 370 270 370 317 370 c 0,19,20
 365 370 365 370 391.5 344.5 c 128,-1,21
 418 319 418 319 418 275 c 256,22,23
 418 231 418 231 392.5 206.5 c 128,-1,24
 367 182 367 182 324 182 c 0,25,26
 297 182 297 182 278 196.5 c 128,-1,27
 259 211 259 211 259 231 c 0,28,29
 259 242 259 242 264 251 c 128,-1,30
 269 260 269 260 279 262 c 1,31,32
 292 233 292 233 322 233 c 0,33,34
 339 233 339 233 348 243.5 c 128,-1,35
 357 254 357 254 357 271 c 0,36,37
 357 287 357 287 345.5 296.5 c 128,-1,38
 334 306 334 306 315 306 c 0,39,40
 197 306 197 306 191 0 c 1,41,-1
 86 0 l 2,42,43
 71 0 71 0 71 20 c 0,44,45
 71 44 71 44 79.5 73 c 128,-1,46
 88 102 88 102 102 139 c 0,47,48
 113 164 113 164 113 171 c 0,49,50
 113 176 113 176 109 183.5 c 128,-1,51
 105 191 105 191 99 200 c 0,52,53
 78 235 78 235 65 269.5 c 128,-1,54
 52 304 52 304 52 355 c 0,55,56
 52 443 52 443 99.5 503.5 c 128,-1,57
 147 564 147 564 242 586 c 1,58,59
 265 574 265 574 282 561 c 128,-1,60
 299 548 299 548 322 528 c 1,61,62
 367 568 367 568 399 586 c 1,63,0
 501 563 501 563 540.5 513 c 128,-1,1
EndSplineSet
EndChar

StartChar: uni0E06
Encoding: 3590 3590 435
Width: 688
GlyphClass: 2
Flags: W
AnchorPoint: "Anchor-12" 611 550 basechar 0
AnchorPoint: "Anchor-11" 611 0 basechar 0
LayerCount: 2
Fore
SplineSet
615 43 m 2,1,-1
 616 18 l 2,2,3
 616 0 616 0 601 0 c 2,4,-1
 495 0 l 1,5,6
 464 77 464 77 411.5 123.5 c 128,-1,7
 359 170 359 170 297 189 c 1,8,-1
 298 166 l 2,9,10
 300 140 300 140 300 126 c 0,11,12
 301 61 301 61 271.5 26 c 128,-1,13
 242 -9 242 -9 175 -9 c 0,14,15
 119 -9 119 -9 87 26.5 c 128,-1,16
 55 62 55 62 55 124 c 0,17,18
 55 185 55 185 91.5 223.5 c 128,-1,19
 128 262 128 262 187 270 c 1,20,21
 194 294 194 294 205 310.5 c 128,-1,22
 216 327 216 327 238 356 c 0,23,24
 261 386 261 386 272.5 409.5 c 128,-1,25
 284 433 284 433 284 465 c 0,26,27
 284 505 284 505 253 505 c 0,28,29
 228 505 228 505 210 473 c 1,30,31
 191 507 191 507 161 507 c 0,32,33
 146 507 146 507 135.5 497 c 128,-1,34
 125 487 125 487 125 469 c 0,35,36
 125 452 125 452 135.5 442.5 c 128,-1,37
 146 433 146 433 161 433 c 0,38,39
 190 433 190 433 202 460 c 1,40,41
 221 450 221 450 221 432 c 0,42,43
 221 410 221 410 201 393 c 128,-1,44
 181 376 181 376 148 376 c 0,45,46
 103 376 103 376 73.5 402.5 c 128,-1,47
 44 429 44 429 44 476 c 0,48,49
 44 524 44 524 71 552 c 128,-1,50
 98 580 98 580 137 580 c 0,51,52
 165 580 165 580 182.5 570.5 c 128,-1,53
 200 561 200 561 211 541 c 1,54,55
 233 579 233 579 292 579 c 0,56,57
 337 579 337 579 365 552 c 128,-1,58
 393 525 393 525 393 475 c 0,59,60
 393 431 393 431 379.5 397 c 128,-1,61
 366 363 366 363 341 322 c 0,62,63
 316 283 316 283 306 258 c 1,64,65
 362 243 362 243 411.5 212 c 128,-1,66
 461 181 461 181 492 140 c 1,67,-1
 492 576 l 1,68,-1
 611 576 l 1,69,-1
 611 129 l 2,70,0
 611 85 611 85 615 43 c 2,1,-1
179.5 72 m 128,-1,72
 184 88 184 88 184 122 c 0,73,74
 184 137 184 137 179 197 c 1,75,76
 124 182 124 182 124 120 c 0,77,78
 124 90 124 90 132.5 73 c 128,-1,79
 141 56 141 56 157 56 c 0,80,71
 175 56 175 56 179.5 72 c 128,-1,72
EndSplineSet
EndChar

StartChar: uni0E07
Encoding: 3591 3591 436
Width: 547
GlyphClass: 2
Flags: W
AnchorPoint: "Anchor-12" 480 550 basechar 0
AnchorPoint: "Anchor-11" 442 0 basechar 0
LayerCount: 2
Fore
SplineSet
199 1.5 m 128,-1,1
 160 10 160 10 158 21 c 0,2,3
 135 133 135 133 102 214 c 128,-1,4
 69 295 69 295 18 365 c 1,5,6
 33 382 33 382 56 394.5 c 128,-1,7
 79 407 79 407 101 407 c 0,8,9
 125 407 125 407 137 396.5 c 128,-1,10
 149 386 149 386 160 363 c 0,11,12
 185 310 185 310 204.5 241.5 c 128,-1,13
 224 173 224 173 242 78 c 0,14,15
 243 67 243 67 290 67 c 0,16,17
 336 67 336 67 339 79 c 0,18,19
 353 171 353 171 360 264 c 128,-1,20
 367 357 367 357 367 424 c 0,21,22
 367 470 367 470 357 491 c 128,-1,23
 347 512 347 512 322 512 c 0,24,25
 305 512 305 512 295.5 503.5 c 128,-1,26
 286 495 286 495 286 481 c 0,27,28
 286 465 286 465 294.5 456.5 c 128,-1,29
 303 448 303 448 318 448 c 0,30,31
 332 448 332 448 346 454 c 1,32,33
 349 447 349 447 349 438 c 0,34,35
 349 423 349 423 335.5 411.5 c 128,-1,36
 322 400 322 400 298 400 c 0,37,38
 261 400 261 400 239 423 c 128,-1,39
 217 446 217 446 217 484 c 0,40,41
 217 527 217 527 249.5 554.5 c 128,-1,42
 282 582 282 582 340 582 c 0,43,44
 413 582 413 582 450 543.5 c 128,-1,45
 487 505 487 505 487 434 c 256,46,47
 487 363 487 363 473.5 271.5 c 128,-1,48
 460 180 460 180 431 21 c 0,49,50
 429 9 429 9 386 1 c 128,-1,51
 343 -7 343 -7 290 -7 c 0,52,0
 238 -7 238 -7 199 1.5 c 128,-1,1
EndSplineSet
EndChar

StartChar: uni0E08
Encoding: 3592 3592 437
Width: 608
GlyphClass: 2
Flags: W
AnchorPoint: "Anchor-12" 540 550 basechar 0
AnchorPoint: "Anchor-11" 490 1 basechar 0
LayerCount: 2
Fore
SplineSet
278 -1 m 128,-1,1
 246 7 246 7 245 19 c 0,2,3
 240 88 240 88 235.5 143 c 128,-1,4
 231 198 231 198 224 236 c 0,5,6
 220 260 220 260 210 271.5 c 128,-1,7
 200 283 200 283 182 283 c 0,8,9
 165 283 165 283 155 274 c 128,-1,10
 145 265 145 265 145 250 c 0,11,12
 145 234 145 234 154.5 224.5 c 128,-1,13
 164 215 164 215 180 215 c 0,14,15
 194 215 194 215 206 220 c 1,16,17
 209 216 209 216 209 207 c 0,18,19
 209 190 209 190 196 180 c 128,-1,20
 183 170 183 170 160 170 c 0,21,22
 126 170 126 170 104.5 193.5 c 128,-1,23
 83 217 83 217 83 254 c 0,24,25
 83 294 83 294 113.5 321.5 c 128,-1,26
 144 349 144 349 190 349 c 0,27,28
 239 349 239 349 269.5 324 c 128,-1,29
 300 299 300 299 309 254 c 0,30,31
 316 218 316 218 321 168.5 c 128,-1,32
 326 119 326 119 330 73 c 0,33,34
 332 64 332 64 359 64 c 0,35,36
 387 64 387 64 388 74 c 0,37,38
 398 147 398 147 407 196 c 0,39,40
 417 254 417 254 422 293.5 c 128,-1,41
 427 333 427 333 427 372 c 0,42,43
 427 434 427 434 396.5 466.5 c 128,-1,44
 366 499 366 499 306 499 c 0,45,46
 220 499 220 499 144 435 c 0,47,48
 134 427 134 427 127 424 c 128,-1,49
 120 421 120 421 110 421 c 0,50,51
 96 421 96 421 77.5 444 c 128,-1,52
 59 467 59 467 47 498 c 1,53,54
 87 532 87 532 157 559 c 128,-1,55
 227 586 227 586 307 586 c 0,56,57
 418 586 418 586 482 531.5 c 128,-1,58
 546 477 546 477 546 377 c 0,59,60
 546 334 546 334 537.5 290 c 128,-1,61
 529 246 529 246 512 175 c 0,62,63
 490 86 490 86 479 19 c 0,64,65
 477 7 477 7 440.5 -1 c 128,-1,66
 404 -9 404 -9 359 -9 c 0,67,0
 310 -9 310 -9 278 -1 c 128,-1,1
EndSplineSet
EndChar

StartChar: uni0E09
Encoding: 3593 3593 438
Width: 642
GlyphClass: 2
Flags: W
AnchorPoint: "Anchor-12" 583 550 basechar 0
AnchorPoint: "Anchor-11" 583 0 basechar 0
LayerCount: 2
Fore
SplineSet
630 101 m 0,1,2
 630 53 630 53 597 24.5 c 128,-1,3
 564 -4 564 -4 507 -4 c 0,4,5
 454 -4 454 -4 423 25 c 128,-1,6
 392 54 392 54 392 101 c 0,7,8
 392 124 392 124 400 142 c 128,-1,9
 408 160 408 160 422 179 c 1,10,11
 388 173 388 173 358 146.5 c 128,-1,12
 328 120 328 120 308 81 c 128,-1,13
 288 42 288 42 285 0 c 1,14,-1
 198 0 l 2,15,16
 186 0 186 0 181 5 c 128,-1,17
 176 10 176 10 176 22 c 2,18,-1
 176 74 l 2,19,20
 176 107 176 107 182 161 c 0,21,22
 189 212 189 212 189 253 c 0,23,24
 189 275 189 275 178.5 287 c 128,-1,25
 168 299 168 299 148 299 c 256,26,27
 128 299 128 299 117 288 c 128,-1,28
 106 277 106 277 106 258 c 256,29,30
 106 239 106 239 117.5 229 c 128,-1,31
 129 219 129 219 148 219 c 0,32,33
 162 219 162 219 174 225 c 1,34,35
 177 219 177 219 177 212 c 0,36,37
 177 196 177 196 163 184.5 c 128,-1,38
 149 173 149 173 125 173 c 0,39,40
 91 173 91 173 68.5 195 c 128,-1,41
 46 217 46 217 46 258 c 0,42,43
 46 302 46 302 79.5 330.5 c 128,-1,44
 113 359 113 359 165 359 c 0,45,46
 227 359 227 359 262 326.5 c 128,-1,47
 297 294 297 294 297 240 c 0,48,49
 297 208 297 208 292 173 c 1,50,51
 321 208 321 208 360.5 227.5 c 128,-1,52
 400 247 400 247 443 247 c 0,53,54
 456 247 456 247 462 246 c 1,55,56
 464 256 464 256 464 261 c 2,57,-1
 464 380 l 2,58,59
 464 439 464 439 428 469 c 128,-1,60
 392 499 392 499 322 499 c 0,61,62
 267 499 267 499 225.5 480 c 128,-1,63
 184 461 184 461 144 430 c 0,64,65
 141 428 141 428 133 422 c 128,-1,66
 125 416 125 416 115 416 c 0,67,68
 100 416 100 416 81 436 c 128,-1,69
 62 456 62 456 50 488 c 1,70,71
 94 529 94 529 165 557.5 c 128,-1,72
 236 586 236 586 323 586 c 0,73,74
 440 586 440 586 511.5 533.5 c 128,-1,75
 583 481 583 481 583 385 c 2,76,-1
 583 254 l 2,77,78
 583 231 583 231 568 213 c 1,79,0
 630 171 630 171 630 101 c 0,1,2
543.5 68 m 128,-1,81
 555 81 555 81 555 105 c 0,82,83
 555 126 555 126 544 142.5 c 128,-1,84
 533 159 533 159 511 169 c 1,85,86
 490 154 490 154 478 138.5 c 128,-1,87
 466 123 466 123 466 103 c 0,88,89
 466 81 466 81 478 68 c 128,-1,90
 490 55 490 55 511 55 c 256,91,80
 532 55 532 55 543.5 68 c 128,-1,81
EndSplineSet
EndChar

StartChar: uni0E0A
Encoding: 3594 3594 439
Width: 615
GlyphClass: 2
Flags: W
AnchorPoint: "Anchor-12" 535 550 basechar 0
AnchorPoint: "Anchor-11" 535 0 basechar 0
LayerCount: 2
Fore
SplineSet
515.5 382 m 128,-1,1
 535 354 535 354 535 310 c 2,2,-1
 535 163 l 2,3,4
 535 69 535 69 477 30 c 128,-1,5
 419 -9 419 -9 318 -9 c 0,6,7
 230 -9 230 -9 167.5 31 c 128,-1,8
 105 71 105 71 105 151 c 2,9,-1
 105 242 l 2,10,11
 105 262 105 262 126 275 c 0,12,13
 171 303 171 303 197.5 323 c 128,-1,14
 224 343 224 343 242 371 c 128,-1,15
 260 399 260 399 260 436 c 0,16,17
 260 476 260 476 237.5 496.5 c 128,-1,18
 215 517 215 517 174 517 c 0,19,20
 141 517 141 517 122 499 c 128,-1,21
 103 481 103 481 103 456 c 0,22,23
 103 435 103 435 113.5 423 c 128,-1,24
 124 411 124 411 141 411 c 256,25,26
 158 411 158 411 167 421.5 c 128,-1,27
 176 432 176 432 176 449 c 0,28,29
 176 468 176 468 168 479 c 1,30,31
 174 482 174 482 184 482 c 0,32,33
 202 482 202 482 214.5 470 c 128,-1,34
 227 458 227 458 227 436 c 0,35,36
 227 401 227 401 203 376.5 c 128,-1,37
 179 352 179 352 141 352 c 0,38,39
 97 352 97 352 69 378 c 128,-1,40
 41 404 41 404 41 457 c 0,41,42
 41 491 41 491 59.5 519 c 128,-1,43
 78 547 78 547 111 563 c 128,-1,44
 144 579 144 579 184 579 c 0,45,46
 249 579 249 579 293.5 545 c 128,-1,47
 338 511 338 511 342 449 c 1,48,49
 398 458 398 458 427.5 498 c 128,-1,50
 457 538 457 538 471 624 c 1,51,52
 515 624 515 624 539.5 607.5 c 128,-1,53
 564 591 564 591 564 559 c 0,54,55
 564 515 564 515 535.5 476.5 c 128,-1,56
 507 438 507 438 464 421 c 1,57,0
 496 410 496 410 515.5 382 c 128,-1,1
417 324 m 2,58,59
 417 357 417 357 406 373 c 128,-1,60
 395 389 395 389 380 389 c 0,61,62
 374 389 374 389 361.5 387 c 128,-1,63
 349 385 349 385 342 385 c 0,64,65
 340 385 340 385 337 388 c 1,66,67
 327 340 327 340 298 305 c 128,-1,68
 269 270 269 270 224 239 c 1,69,-1
 224 165 l 2,70,71
 224 119 224 119 249 94.5 c 128,-1,72
 274 70 274 70 319 70 c 0,73,74
 373 70 373 70 395 94 c 128,-1,75
 417 118 417 118 417 172 c 2,76,-1
 417 324 l 2,58,59
EndSplineSet
EndChar

StartChar: uni0E0B
Encoding: 3595 3595 440
Width: 642
GlyphClass: 2
Flags: W
AnchorPoint: "Anchor-12" 566 550 basechar 0
AnchorPoint: "Anchor-11" 566 0 basechar 0
LayerCount: 2
Fore
SplineSet
549 386.5 m 128,-1,1
 566 358 566 358 566 313 c 2,2,-1
 566 166 l 2,3,4
 566 83 566 83 508 37 c 128,-1,5
 450 -9 450 -9 336 -9 c 0,6,7
 229 -9 229 -9 166 36.5 c 128,-1,8
 103 82 103 82 103 172 c 2,9,-1
 103 216 l 2,10,11
 103 259 103 259 125 288.5 c 128,-1,12
 147 318 147 318 189 353 c 0,13,14
 227 385 227 385 245.5 409 c 128,-1,15
 264 433 264 433 264 466 c 0,16,17
 264 506 264 506 233 506 c 0,18,19
 210 506 210 506 190 473 c 1,20,21
 180 490 180 490 168.5 498.5 c 128,-1,22
 157 507 157 507 141 507 c 0,23,24
 126 507 126 507 115.5 497 c 128,-1,25
 105 487 105 487 105 469 c 0,26,27
 105 452 105 452 115.5 442.5 c 128,-1,28
 126 433 126 433 141 433 c 0,29,30
 168 433 168 433 183 458 c 1,31,32
 189 455 189 455 193 447.5 c 128,-1,33
 197 440 197 440 197 431 c 0,34,35
 197 409 197 409 176.5 392.5 c 128,-1,36
 156 376 156 376 122 376 c 0,37,38
 80 376 80 376 52 403.5 c 128,-1,39
 24 431 24 431 24 476 c 0,40,41
 24 524 24 524 51 552 c 128,-1,42
 78 580 78 580 117 580 c 0,43,44
 145 580 145 580 162 570.5 c 128,-1,45
 179 561 179 561 191 541 c 1,46,47
 202 559 202 559 222.5 569.5 c 128,-1,48
 243 580 243 580 272 580 c 0,49,50
 317 580 317 580 345 552.5 c 128,-1,51
 373 525 373 525 373 475 c 0,52,53
 373 462 373 462 372 456 c 1,54,55
 428 474 428 474 458 512 c 128,-1,56
 488 550 488 550 502 624 c 1,57,58
 547 623 547 623 571 607 c 128,-1,59
 595 591 595 591 595 559 c 0,60,61
 595 518 595 518 568.5 481.5 c 128,-1,62
 542 445 542 445 504 427 c 1,63,0
 532 415 532 415 549 386.5 c 128,-1,1
448 326 m 2,64,65
 448 360 448 360 437 375.5 c 128,-1,66
 426 391 426 391 411 391 c 0,67,68
 405 391 405 391 392.5 389 c 128,-1,69
 380 387 380 387 373 387 c 256,70,71
 366 387 366 387 356 404 c 1,72,73
 345 382 345 382 330 363 c 128,-1,74
 315 344 315 344 290 317 c 0,75,76
 258 282 258 282 243 259.5 c 128,-1,77
 228 237 228 237 228 212 c 2,78,-1
 228 172 l 2,79,80
 228 121 228 121 255 96.5 c 128,-1,81
 282 72 282 72 337 72 c 0,82,83
 397 72 397 72 422.5 96 c 128,-1,84
 448 120 448 120 448 172 c 2,85,-1
 448 326 l 2,64,65
EndSplineSet
EndChar

StartChar: uni0E0C
Encoding: 3596 3596 441
Width: 913
GlyphClass: 2
Flags: W
AnchorPoint: "Anchor-12" 836 550 basechar 0
AnchorPoint: "Anchor-11" 836 0 basechar 0
LayerCount: 2
Fore
SplineSet
840 44 m 2,1,-1
 841 20 l 2,2,3
 841 0 841 0 826 0 c 2,4,-1
 720 0 l 1,5,6
 658 141 658 141 553 170 c 1,7,-1
 553 123 l 2,8,9
 553 64 553 64 527 27.5 c 128,-1,10
 501 -9 501 -9 442 -9 c 0,11,12
 397 -9 397 -9 368.5 17 c 128,-1,13
 340 43 340 43 336 90 c 1,14,15
 332 46 332 46 300 19.5 c 128,-1,16
 268 -7 268 -7 212 -7 c 0,17,18
 149 -7 149 -7 110.5 27.5 c 128,-1,19
 72 62 72 62 72 123 c 2,20,-1
 72 221 l 2,21,22
 72 300 72 300 126 344 c 1,23,24
 94 359 94 359 69.5 384 c 128,-1,25
 45 409 45 409 45 437 c 0,26,27
 45 470 45 470 74.5 504.5 c 128,-1,28
 104 539 104 539 160.5 562.5 c 128,-1,29
 217 586 217 586 294 586 c 0,30,31
 411 586 411 586 481.5 534.5 c 128,-1,32
 552 483 552 483 552 383 c 2,33,-1
 552 242 l 1,34,35
 599 233 599 233 642 207.5 c 128,-1,36
 685 182 685 182 718 141 c 1,37,-1
 718 576 l 1,38,-1
 836 576 l 1,39,-1
 836 138 l 2,40,0
 836 86 836 86 840 44 c 2,1,-1
362.5 192.5 m 128,-1,42
 388 226 388 226 433 239 c 1,43,-1
 433 383 l 2,44,45
 433 442 433 442 398.5 475 c 128,-1,46
 364 508 364 508 294 508 c 0,47,48
 253 508 253 508 221 496.5 c 128,-1,49
 189 485 189 485 172 469 c 128,-1,50
 155 453 155 453 155 440 c 0,51,52
 155 422 155 422 173 408.5 c 128,-1,53
 191 395 191 395 207 395 c 0,54,55
 218 395 218 395 238 401 c 0,56,57
 256 407 256 407 263 407 c 0,58,59
 274 407 274 407 288 382.5 c 128,-1,60
 302 358 302 358 302 342 c 0,61,62
 302 331 302 331 294 331 c 0,63,64
 235 331 235 331 212.5 305.5 c 128,-1,65
 190 280 190 280 190 221 c 2,66,-1
 190 111 l 2,67,68
 190 85 190 85 201.5 70.5 c 128,-1,69
 213 56 213 56 235 56 c 0,70,71
 255 56 255 56 265 66.5 c 128,-1,72
 275 77 275 77 275 96 c 0,73,74
 275 113 275 113 264 122.5 c 128,-1,75
 253 132 253 132 235 132 c 0,76,77
 220 132 220 132 208 129 c 1,78,79
 204 136 204 136 204 145 c 0,80,81
 204 161 204 161 217.5 171.5 c 128,-1,82
 231 182 231 182 254 182 c 0,83,84
 288 182 288 182 309.5 164.5 c 128,-1,85
 331 147 331 147 335 113 c 1,86,41
 337 159 337 159 362.5 192.5 c 128,-1,42
433 71.5 m 128,-1,88
 437 87 437 87 437 125 c 2,89,-1
 436 171 l 1,90,91
 412 165 412 165 401.5 150 c 128,-1,92
 391 135 391 135 391 108 c 0,93,94
 391 86 391 86 399 71 c 128,-1,95
 407 56 407 56 419 56 c 0,96,87
 429 56 429 56 433 71.5 c 128,-1,88
EndSplineSet
EndChar

StartChar: uni0E240E45
Encoding: 65537 -1 442
Width: 939
Flags: W
LayerCount: 2
Fore
SplineSet
433 383 m 2,0,1
 433 442 433 442 398.5 475 c 128,-1,2
 364 508 364 508 294 508 c 0,3,4
 253 508 253 508 221 496.5 c 128,-1,5
 189 485 189 485 172 469 c 128,-1,6
 155 453 155 453 155 440 c 0,7,8
 155 422 155 422 173 408.5 c 128,-1,9
 191 395 191 395 207 395 c 0,10,11
 218 395 218 395 238 401 c 0,12,13
 256 407 256 407 263 407 c 0,14,15
 274 407 274 407 288 382.5 c 128,-1,16
 302 358 302 358 302 342 c 0,17,18
 302 331 302 331 294 331 c 0,19,20
 235 331 235 331 212.5 306 c 128,-1,21
 190 281 190 281 190 221 c 2,22,-1
 190 111 l 2,23,24
 190 85 190 85 201.5 70.5 c 128,-1,25
 213 56 213 56 235 56 c 0,26,27
 255 56 255 56 265 66.5 c 128,-1,28
 275 77 275 77 275 96 c 0,29,30
 275 113 275 113 264 122.5 c 128,-1,31
 253 132 253 132 235 132 c 0,32,33
 220 132 220 132 208 129 c 1,34,35
 204 136 204 136 204 145 c 0,36,37
 204 161 204 161 217.5 171.5 c 128,-1,38
 231 182 231 182 254 182 c 0,39,40
 291 182 291 182 313.5 161 c 128,-1,41
 336 140 336 140 336 99 c 0,42,43
 336 51 336 51 303.5 22 c 128,-1,44
 271 -7 271 -7 212 -7 c 0,45,46
 149 -7 149 -7 110.5 27.5 c 128,-1,47
 72 62 72 62 72 123 c 2,48,-1
 72 221 l 2,49,50
 72 300 72 300 126 345 c 1,51,52
 94 359 94 359 69.5 384 c 128,-1,53
 45 409 45 409 45 437 c 0,54,55
 45 470 45 470 74.5 504.5 c 128,-1,56
 104 539 104 539 160.5 562.5 c 128,-1,57
 217 586 217 586 294 586 c 0,58,59
 424 586 424 586 492 525 c 1,60,61
 577 586 577 586 674 586 c 256,62,63
 771 586 771 586 825 537.5 c 128,-1,64
 879 489 879 489 879 398 c 2,65,-1
 879 -219 l 1,66,-1
 761 -219 l 1,67,-1
 761 400 l 2,68,69
 761 449 761 449 736.5 474 c 128,-1,70
 712 499 712 499 666 499 c 0,71,72
 599 499 599 499 542 447 c 1,73,74
 552 415 552 415 552 383 c 2,75,-1
 552 -220 l 1,76,-1
 433 -220 l 1,77,-1
 433 383 l 2,0,1
EndSplineSet
Ligature2: "'liga' Standard Ligatures lookup 13 subtable" uni0E24 uni0E45
EndChar

StartChar: uni0E260E45
Encoding: 65538 -1 443
Width: 942
Flags: W
LayerCount: 2
Fore
SplineSet
442 377 m 2,0,1
 442 443 442 443 408.5 475.5 c 128,-1,2
 375 508 375 508 306 508 c 0,3,4
 264 508 264 508 232 497 c 128,-1,5
 200 486 200 486 182.5 470 c 128,-1,6
 165 454 165 454 165 441 c 0,7,8
 165 423 165 423 183 410 c 128,-1,9
 201 397 201 397 216 397 c 0,10,11
 224 397 224 397 233.5 400 c 128,-1,12
 243 403 243 403 247 404 c 0,13,14
 263 411 263 411 274 411 c 256,15,16
 285 411 285 411 298.5 387 c 128,-1,17
 312 363 312 363 312 347 c 0,18,19
 312 336 312 336 304 336 c 0,20,21
 265 336 265 336 243.5 317 c 128,-1,22
 222 298 222 298 222 262 c 0,23,24
 222 241 222 241 226 220.5 c 128,-1,25
 230 200 230 200 231 194 c 0,26,27
 242 150 242 150 242 111 c 0,28,29
 242 56 242 56 211 24.5 c 128,-1,30
 180 -7 180 -7 119 -7 c 0,31,32
 63 -7 63 -7 34 18.5 c 128,-1,33
 5 44 5 44 5 85 c 0,34,35
 5 122 5 122 27 143 c 128,-1,36
 49 164 49 164 78 164 c 0,37,38
 95 164 95 164 105 154 c 128,-1,39
 115 144 115 144 115 126 c 1,40,-1
 99 126 l 2,41,42
 82 126 82 126 72.5 116 c 128,-1,43
 63 106 63 106 63 90 c 0,44,45
 63 75 63 75 72.5 65 c 128,-1,46
 82 55 82 55 98 55 c 0,47,48
 116 55 116 55 125 66 c 128,-1,49
 134 77 134 77 134 95 c 256,50,51
 134 113 134 113 130.5 130 c 128,-1,52
 127 147 127 147 120 172 c 0,53,54
 112 200 112 200 108 219.5 c 128,-1,55
 104 239 104 239 104 262 c 0,56,57
 104 289 104 289 116 311 c 128,-1,58
 128 333 128 333 150 347 c 1,59,60
 111 358 111 358 83 383.5 c 128,-1,61
 55 409 55 409 55 438 c 0,62,63
 55 470 55 470 85 504.5 c 128,-1,64
 115 539 115 539 172 562.5 c 128,-1,65
 229 586 229 586 306 586 c 0,66,67
 433 586 433 586 500 528 c 1,68,69
 581 586 581 586 677 586 c 0,70,71
 774 586 774 586 828 537.5 c 128,-1,72
 882 489 882 489 882 398 c 2,73,-1
 882 -219 l 1,74,-1
 764 -219 l 1,75,-1
 764 400 l 2,76,77
 764 449 764 449 739.5 474 c 128,-1,78
 715 499 715 499 669 499 c 0,79,80
 606 499 606 499 549 450 c 1,81,82
 560 417 560 417 560 377 c 2,83,-1
 560 -220 l 1,84,-1
 442 -220 l 1,85,-1
 442 377 l 2,0,1
EndSplineSet
Ligature2: "'liga' Standard Ligatures lookup 13 subtable" uni0E26 uni0E45
EndChar

StartChar: uni0E0D
Encoding: 3597 3597 444
Width: 940
GlyphClass: 2
Flags: W
AnchorPoint: "Anchor-12" 873 550 basechar 0
AnchorPoint: "Anchor-11" 873 -243 basechar 0
LayerCount: 2
Fore
SplineSet
523 7.5 m 128,-1,1
 475 24 475 24 452.5 64.5 c 128,-1,2
 430 105 430 105 430 177 c 2,3,-1
 430 383 l 2,4,5
 430 443 430 443 396 475.5 c 128,-1,6
 362 508 362 508 292 508 c 0,7,8
 251 508 251 508 219.5 496.5 c 128,-1,9
 188 485 188 485 171.5 469 c 128,-1,10
 155 453 155 453 155 440 c 0,11,12
 155 422 155 422 174.5 408.5 c 128,-1,13
 194 395 194 395 210 395 c 0,14,15
 225 395 225 395 243 402 c 0,16,17
 246 403 246 403 253.5 405 c 128,-1,18
 261 407 261 407 267 407 c 0,19,20
 278 407 278 407 292 382.5 c 128,-1,21
 306 358 306 358 306 342 c 0,22,23
 306 331 306 331 297 331 c 0,24,25
 238 331 238 331 214 305.5 c 128,-1,26
 190 280 190 280 190 221 c 2,27,-1
 190 111 l 2,28,29
 190 85 190 85 201.5 70.5 c 128,-1,30
 213 56 213 56 235 56 c 0,31,32
 255 56 255 56 265 66.5 c 128,-1,33
 275 77 275 77 275 96 c 0,34,35
 275 113 275 113 264 122.5 c 128,-1,36
 253 132 253 132 235 132 c 0,37,38
 220 132 220 132 208 129 c 1,39,40
 204 136 204 136 204 145 c 0,41,42
 204 161 204 161 217.5 171.5 c 128,-1,43
 231 182 231 182 254 182 c 0,44,45
 291 182 291 182 313.5 161 c 128,-1,46
 336 140 336 140 336 99 c 0,47,48
 336 51 336 51 303.5 22 c 128,-1,49
 271 -7 271 -7 212 -7 c 0,50,51
 149 -7 149 -7 110.5 27.5 c 128,-1,52
 72 62 72 62 72 123 c 2,53,-1
 72 221 l 2,54,55
 72 299 72 299 129 345 c 1,56,57
 96 359 96 359 70.5 384 c 128,-1,58
 45 409 45 409 45 437 c 0,59,60
 45 469 45 469 78 504 c 128,-1,61
 111 539 111 539 169.5 562.5 c 128,-1,62
 228 586 228 586 299 586 c 0,63,64
 416 586 416 586 482 535 c 128,-1,65
 548 484 548 484 548 383 c 2,66,-1
 548 173 l 2,67,68
 548 132 548 132 557.5 110 c 128,-1,69
 567 88 567 88 589 78.5 c 128,-1,70
 611 69 611 69 653 69 c 256,71,72
 695 69 695 69 717 79 c 128,-1,73
 739 89 739 89 747 111 c 128,-1,74
 755 133 755 133 755 174 c 2,75,-1
 755 576 l 1,76,-1
 873 576 l 1,77,-1
 873 183 l 2,78,79
 873 108 873 108 850.5 66.5 c 128,-1,80
 828 25 828 25 781 8 c 128,-1,81
 734 -9 734 -9 653 -9 c 0,82,0
 571 -9 571 -9 523 7.5 c 128,-1,1
503.5 -226.5 m 128,-1,84
 456 -200 456 -200 456 -144 c 0,85,86
 456 -100 456 -100 483.5 -74.5 c 128,-1,87
 511 -49 511 -49 550 -49 c 0,88,89
 587 -49 587 -49 608.5 -68 c 128,-1,90
 630 -87 630 -87 630 -119 c 0,91,92
 630 -137 630 -137 618 -149.5 c 128,-1,93
 606 -162 606 -162 591 -162 c 0,94,95
 584 -162 584 -162 577.5 -159.5 c 128,-1,96
 571 -157 571 -157 569 -153 c 1,97,98
 580 -144 580 -144 580 -126 c 0,99,100
 580 -115 580 -115 573 -107.5 c 128,-1,101
 566 -100 566 -100 555 -100 c 0,102,103
 542 -100 542 -100 534 -108 c 128,-1,104
 526 -116 526 -116 526 -131 c 0,105,106
 526 -153 526 -153 551.5 -168.5 c 128,-1,107
 577 -184 577 -184 623 -184 c 0,108,109
 676 -184 676 -184 703.5 -163 c 128,-1,110
 731 -142 731 -142 743 -90 c 0,111,112
 749 -67 749 -67 768 -67 c 0,113,114
 785 -67 785 -67 807.5 -73.5 c 128,-1,115
 830 -80 830 -80 842 -87 c 1,116,117
 834 -171 834 -171 771 -212 c 128,-1,118
 708 -253 708 -253 625 -253 c 0,119,83
 551 -253 551 -253 503.5 -226.5 c 128,-1,84
EndSplineSet
Substitution2: "Single Substitution lookup 14 subtable" yoYingthai.less
Substitution2: "'aalt' Access All Alternates lookup 0 subtable" yoYingthai.less
EndChar

StartChar: yoYingthai.less
Encoding: 65539 -1 445
Width: 940
GlyphClass: 2
Flags: W
AnchorPoint: "Anchor-12" 873 550 basechar 0
AnchorPoint: "Anchor-11" 873 0 basechar 0
LayerCount: 2
Fore
SplineSet
523 7.5 m 128,-1,1
 475 24 475 24 452.5 64.5 c 128,-1,2
 430 105 430 105 430 177 c 2,3,-1
 430 383 l 2,4,5
 430 443 430 443 396 475.5 c 128,-1,6
 362 508 362 508 292 508 c 0,7,8
 251 508 251 508 219.5 496.5 c 128,-1,9
 188 485 188 485 171.5 469 c 128,-1,10
 155 453 155 453 155 440 c 0,11,12
 155 422 155 422 174.5 408.5 c 128,-1,13
 194 395 194 395 210 395 c 0,14,15
 225 395 225 395 243 402 c 0,16,17
 246 403 246 403 253.5 405 c 128,-1,18
 261 407 261 407 267 407 c 0,19,20
 278 407 278 407 292 382.5 c 128,-1,21
 306 358 306 358 306 342 c 0,22,23
 306 331 306 331 297 331 c 0,24,25
 238 331 238 331 214 305.5 c 128,-1,26
 190 280 190 280 190 221 c 2,27,-1
 190 111 l 2,28,29
 190 85 190 85 201.5 70.5 c 128,-1,30
 213 56 213 56 235 56 c 0,31,32
 255 56 255 56 265 66.5 c 128,-1,33
 275 77 275 77 275 96 c 0,34,35
 275 113 275 113 264 122.5 c 128,-1,36
 253 132 253 132 235 132 c 0,37,38
 220 132 220 132 208 129 c 1,39,40
 204 136 204 136 204 145 c 0,41,42
 204 161 204 161 217.5 171.5 c 128,-1,43
 231 182 231 182 254 182 c 0,44,45
 291 182 291 182 313.5 161 c 128,-1,46
 336 140 336 140 336 99 c 0,47,48
 336 51 336 51 303.5 22 c 128,-1,49
 271 -7 271 -7 212 -7 c 0,50,51
 149 -7 149 -7 110.5 27.5 c 128,-1,52
 72 62 72 62 72 123 c 2,53,-1
 72 221 l 2,54,55
 72 299 72 299 129 345 c 1,56,57
 96 359 96 359 70.5 384 c 128,-1,58
 45 409 45 409 45 437 c 0,59,60
 45 469 45 469 78 504 c 128,-1,61
 111 539 111 539 169.5 562.5 c 128,-1,62
 228 586 228 586 299 586 c 0,63,64
 416 586 416 586 482 535 c 128,-1,65
 548 484 548 484 548 383 c 2,66,-1
 548 173 l 2,67,68
 548 132 548 132 557.5 110 c 128,-1,69
 567 88 567 88 589 78.5 c 128,-1,70
 611 69 611 69 653 69 c 256,71,72
 695 69 695 69 717 79 c 128,-1,73
 739 89 739 89 747 111 c 128,-1,74
 755 133 755 133 755 174 c 2,75,-1
 755 576 l 1,76,-1
 873 576 l 1,77,-1
 873 183 l 2,78,79
 873 108 873 108 850.5 66.5 c 128,-1,80
 828 25 828 25 781 8 c 128,-1,81
 734 -9 734 -9 653 -9 c 0,82,0
 571 -9 571 -9 523 7.5 c 128,-1,1
EndSplineSet
EndChar

StartChar: uni0E0E
Encoding: 3598 3598 446
Width: 620
GlyphClass: 2
Flags: W
AnchorPoint: "Anchor-12" 560 550 basechar 0
AnchorPoint: "Anchor-11" 560 -245 basechar 0
LayerCount: 2
Fore
SplineSet
491.5 535 m 128,-1,1
 560 484 560 484 560 377 c 2,2,-1
 560 -245 l 1,3,-1
 441 -245 l 1,4,5
 404 -195 404 -195 348 -161 c 1,6,7
 321 -201 321 -201 276 -225.5 c 128,-1,8
 231 -250 231 -250 175 -250 c 0,9,10
 118 -250 118 -250 82.5 -224 c 128,-1,11
 47 -198 47 -198 47 -154 c 0,12,13
 47 -109 47 -109 90.5 -80.5 c 128,-1,14
 134 -52 134 -52 203 -52 c 0,15,16
 247 -52 247 -52 291 -63 c 1,17,18
 295 -38 295 -38 297 -4 c 1,19,20
 345 -4 345 -4 362 -18 c 128,-1,21
 379 -32 379 -32 379 -64 c 0,22,23
 379 -81 379 -81 376 -97 c 1,24,25
 416 -119 416 -119 442 -150 c 1,26,-1
 442 377 l 2,27,28
 442 443 442 443 408.5 475.5 c 128,-1,29
 375 508 375 508 306 508 c 0,30,31
 264 508 264 508 232 497 c 128,-1,32
 200 486 200 486 182.5 470 c 128,-1,33
 165 454 165 454 165 441 c 0,34,35
 165 423 165 423 183 410 c 128,-1,36
 201 397 201 397 216 397 c 0,37,38
 224 397 224 397 233.5 400 c 128,-1,39
 243 403 243 403 247 404 c 0,40,41
 263 411 263 411 274 411 c 256,42,43
 285 411 285 411 298.5 387 c 128,-1,44
 312 363 312 363 312 347 c 0,45,46
 312 336 312 336 304 336 c 0,47,48
 265 336 265 336 243.5 317.5 c 128,-1,49
 222 299 222 299 222 262 c 0,50,51
 222 241 222 241 226 220.5 c 128,-1,52
 230 200 230 200 231 194 c 0,53,54
 242 150 242 150 242 111 c 0,55,56
 242 56 242 56 211 24.5 c 128,-1,57
 180 -7 180 -7 119 -7 c 0,58,59
 63 -7 63 -7 34 18.5 c 128,-1,60
 5 44 5 44 5 85 c 0,61,62
 5 122 5 122 27 143 c 128,-1,63
 49 164 49 164 78 164 c 0,64,65
 95 164 95 164 105 154 c 128,-1,66
 115 144 115 144 115 126 c 1,67,-1
 99 126 l 2,68,69
 82 126 82 126 72.5 116 c 128,-1,70
 63 106 63 106 63 90 c 0,71,72
 63 75 63 75 72.5 65 c 128,-1,73
 82 55 82 55 98 55 c 0,74,75
 116 55 116 55 125 66 c 128,-1,76
 134 77 134 77 134 95 c 256,77,78
 134 113 134 113 130.5 130 c 128,-1,79
 127 147 127 147 120 172 c 0,80,81
 112 200 112 200 108 219.5 c 128,-1,82
 104 239 104 239 104 262 c 0,83,84
 104 319 104 319 151 347 c 1,85,86
 111 360 111 360 83 384.5 c 128,-1,87
 55 409 55 409 55 438 c 0,88,89
 55 470 55 470 85 504.5 c 128,-1,90
 115 539 115 539 172 562.5 c 128,-1,91
 229 586 229 586 306 586 c 0,92,0
 423 586 423 586 491.5 535 c 128,-1,1
272 -128 m 1,94,95
 241 -119 241 -119 209 -119 c 256,96,97
 177 -119 177 -119 158 -129.5 c 128,-1,98
 139 -140 139 -140 139 -156 c 0,99,100
 139 -170 139 -170 152.5 -178.5 c 128,-1,101
 166 -187 166 -187 187 -187 c 0,102,93
 244 -187 244 -187 272 -128 c 1,94,95
EndSplineSet
Substitution2: "Single Substitution lookup 14 subtable" doChadathai.short
Substitution2: "'aalt' Access All Alternates lookup 0 subtable" doChadathai.short
EndChar

StartChar: doChadathai.short
Encoding: 65540 -1 447
Width: 620
GlyphClass: 2
Flags: W
AnchorPoint: "Anchor-12" 560 550 basechar 0
AnchorPoint: "Anchor-11" 560 -195 basechar 0
LayerCount: 2
Fore
SplineSet
491.5 535 m 128,-1,1
 560 484 560 484 560 377 c 2,2,-1
 560 -195 l 1,3,-1
 442 -195 l 1,4,5
 406 -146 406 -146 350 -112 c 1,6,7
 324 -151 324 -151 278.5 -175.5 c 128,-1,8
 233 -200 233 -200 177 -200 c 0,9,10
 118 -200 118 -200 84 -176 c 128,-1,11
 50 -152 50 -152 50 -108 c 256,12,13
 50 -64 50 -64 92 -36.5 c 128,-1,14
 134 -9 134 -9 203 -9 c 0,15,16
 248 -9 248 -9 295 -22 c 1,17,18
 300 1 300 1 301 29 c 1,19,20
 346 29 346 29 362.5 16 c 128,-1,21
 379 3 379 3 379 -29 c 0,22,23
 379 -42 379 -42 376 -55 c 1,24,25
 416 -77 416 -77 442 -105 c 1,26,-1
 442 377 l 2,27,28
 442 443 442 443 408.5 475.5 c 128,-1,29
 375 508 375 508 306 508 c 0,30,31
 264 508 264 508 232 497 c 128,-1,32
 200 486 200 486 182.5 470 c 128,-1,33
 165 454 165 454 165 441 c 0,34,35
 165 423 165 423 183 410 c 128,-1,36
 201 397 201 397 216 397 c 0,37,38
 224 397 224 397 233.5 400 c 128,-1,39
 243 403 243 403 247 404 c 0,40,41
 263 411 263 411 274 411 c 256,42,43
 285 411 285 411 298.5 387 c 128,-1,44
 312 363 312 363 312 347 c 0,45,46
 312 336 312 336 304 336 c 0,47,48
 265 336 265 336 243.5 317.5 c 128,-1,49
 222 299 222 299 222 262 c 0,50,51
 222 241 222 241 226 220.5 c 128,-1,52
 230 200 230 200 231 194 c 0,53,54
 242 150 242 150 242 111 c 0,55,56
 242 56 242 56 211 24.5 c 128,-1,57
 180 -7 180 -7 119 -7 c 0,58,59
 63 -7 63 -7 34 18.5 c 128,-1,60
 5 44 5 44 5 85 c 0,61,62
 5 122 5 122 27 143 c 128,-1,63
 49 164 49 164 78 164 c 0,64,65
 95 164 95 164 105 154 c 128,-1,66
 115 144 115 144 115 126 c 1,67,-1
 99 126 l 2,68,69
 82 126 82 126 72.5 116 c 128,-1,70
 63 106 63 106 63 90 c 0,71,72
 63 75 63 75 72.5 65 c 128,-1,73
 82 55 82 55 98 55 c 0,74,75
 116 55 116 55 125 66 c 128,-1,76
 134 77 134 77 134 95 c 256,77,78
 134 113 134 113 130.5 130 c 128,-1,79
 127 147 127 147 120 172 c 0,80,81
 112 200 112 200 108 219.5 c 128,-1,82
 104 239 104 239 104 262 c 0,83,84
 104 319 104 319 151 347 c 1,85,86
 111 360 111 360 83 384.5 c 128,-1,87
 55 409 55 409 55 438 c 0,88,89
 55 470 55 470 85 504.5 c 128,-1,90
 115 539 115 539 172 562.5 c 128,-1,91
 229 586 229 586 306 586 c 0,92,0
 423 586 423 586 491.5 535 c 128,-1,1
277 -79 m 1,94,95
 240 -69 240 -69 209 -69 c 0,96,97
 176 -69 176 -69 158.5 -79 c 128,-1,98
 141 -89 141 -89 141 -106 c 0,99,100
 141 -121 141 -121 153.5 -129.5 c 128,-1,101
 166 -138 166 -138 189 -138 c 0,102,93
 248 -138 248 -138 277 -79 c 1,94,95
EndSplineSet
EndChar

StartChar: uni0E0F
Encoding: 3599 3599 448
Width: 620
GlyphClass: 2
Flags: W
AnchorPoint: "Anchor-12" 560 550 basechar 0
AnchorPoint: "Anchor-11" 560 -250 basechar 0
LayerCount: 2
Fore
SplineSet
491.5 535 m 128,-1,1
 560 484 560 484 560 377 c 2,2,-1
 560 -250 l 1,3,-1
 439 -250 l 1,4,-1
 383 -202 l 1,5,-1
 323 -247 l 1,6,-1
 274 -202 l 1,7,8
 248 -226 248 -226 214 -239.5 c 128,-1,9
 180 -253 180 -253 140 -253 c 0,10,11
 86 -253 86 -253 53 -229.5 c 128,-1,12
 20 -206 20 -206 20 -166 c 256,13,14
 20 -126 20 -126 55.5 -101.5 c 128,-1,15
 91 -77 91 -77 141 -77 c 0,16,17
 190 -77 190 -77 236 -102 c 1,18,19
 246 -63 246 -63 246 -16 c 1,20,21
 290 -16 290 -16 313.5 -32 c 128,-1,22
 337 -48 337 -48 337 -75 c 0,23,24
 337 -118 337 -118 311 -159 c 1,25,-1
 328 -174 l 1,26,-1
 384 -139 l 1,27,-1
 444 -175 l 1,28,-1
 442 377 l 2,29,30
 442 443 442 443 408.5 475.5 c 128,-1,31
 375 508 375 508 306 508 c 0,32,33
 264 508 264 508 232 497 c 128,-1,34
 200 486 200 486 182.5 470 c 128,-1,35
 165 454 165 454 165 441 c 0,36,37
 165 423 165 423 183 410 c 128,-1,38
 201 397 201 397 216 397 c 0,39,40
 224 397 224 397 233.5 400 c 128,-1,41
 243 403 243 403 247 404 c 0,42,43
 263 411 263 411 274 411 c 256,44,45
 285 411 285 411 298.5 387 c 128,-1,46
 312 363 312 363 312 347 c 0,47,48
 312 336 312 336 304 336 c 0,49,50
 265 336 265 336 243.5 317.5 c 128,-1,51
 222 299 222 299 222 262 c 0,52,53
 222 241 222 241 226 220.5 c 128,-1,54
 230 200 230 200 231 194 c 0,55,56
 242 150 242 150 242 111 c 0,57,58
 242 56 242 56 211 24.5 c 128,-1,59
 180 -7 180 -7 119 -7 c 0,60,61
 63 -7 63 -7 34 18.5 c 128,-1,62
 5 44 5 44 5 85 c 0,63,64
 5 122 5 122 27 143 c 128,-1,65
 49 164 49 164 78 164 c 0,66,67
 95 164 95 164 105 154 c 128,-1,68
 115 144 115 144 115 126 c 1,69,-1
 99 126 l 2,70,71
 82 126 82 126 72.5 116 c 128,-1,72
 63 106 63 106 63 90 c 0,73,74
 63 75 63 75 72.5 65 c 128,-1,75
 82 55 82 55 98 55 c 0,76,77
 116 55 116 55 125 66 c 128,-1,78
 134 77 134 77 134 95 c 256,79,80
 134 113 134 113 130.5 130 c 128,-1,81
 127 147 127 147 120 172 c 0,82,83
 112 200 112 200 108 219.5 c 128,-1,84
 104 239 104 239 104 262 c 0,85,86
 104 319 104 319 151 347 c 1,87,88
 111 360 111 360 83 384.5 c 128,-1,89
 55 409 55 409 55 438 c 0,90,91
 55 470 55 470 85 504.5 c 128,-1,92
 115 539 115 539 172 562.5 c 128,-1,93
 229 586 229 586 306 586 c 0,94,0
 423 586 423 586 491.5 535 c 128,-1,1
216 -155 m 1,96,97
 183 -135 183 -135 158 -135 c 0,98,99
 139 -135 139 -135 126.5 -142.5 c 128,-1,100
 114 -150 114 -150 114 -164 c 0,101,102
 114 -179 114 -179 126 -187.5 c 128,-1,103
 138 -196 138 -196 157 -196 c 0,104,95
 193 -196 193 -196 216 -155 c 1,96,97
EndSplineSet
Substitution2: "Single Substitution lookup 14 subtable" toPatakthai.short
Substitution2: "'aalt' Access All Alternates lookup 0 subtable" toPatakthai.short
EndChar

StartChar: toPatakthai.short
Encoding: 65541 -1 449
Width: 620
GlyphClass: 2
Flags: W
AnchorPoint: "Anchor-12" 560 550 basechar 0
AnchorPoint: "Anchor-11" 560 -197 basechar 0
LayerCount: 2
Fore
SplineSet
491.5 535 m 128,-1,1
 560 484 560 484 560 377 c 2,2,-1
 560 -197 l 1,3,-1
 439 -197 l 1,4,-1
 383 -149 l 1,5,-1
 323 -194 l 1,6,-1
 275 -150 l 1,7,8
 218 -200 218 -200 140 -200 c 0,9,10
 86 -200 86 -200 53 -176.5 c 128,-1,11
 20 -153 20 -153 20 -113 c 256,12,13
 20 -73 20 -73 55.5 -48.5 c 128,-1,14
 91 -24 91 -24 141 -24 c 0,15,16
 194 -24 194 -24 241 -52 c 1,17,18
 247 -21 247 -21 246 10 c 1,19,20
 337 10 337 10 337 -42 c 0,21,22
 337 -74 337 -74 313 -108 c 1,23,-1
 328 -121 l 1,24,-1
 384 -86 l 1,25,-1
 444 -126 l 1,26,-1
 442 377 l 2,27,28
 441 444 441 444 407.5 476 c 128,-1,29
 374 508 374 508 306 508 c 0,30,31
 264 508 264 508 232 497 c 128,-1,32
 200 486 200 486 182.5 470 c 128,-1,33
 165 454 165 454 165 441 c 0,34,35
 165 423 165 423 183 410 c 128,-1,36
 201 397 201 397 216 397 c 0,37,38
 224 397 224 397 233.5 400 c 128,-1,39
 243 403 243 403 247 404 c 0,40,41
 263 411 263 411 274 411 c 256,42,43
 285 411 285 411 298.5 387 c 128,-1,44
 312 363 312 363 312 347 c 0,45,46
 312 336 312 336 304 336 c 0,47,48
 265 336 265 336 243.5 317.5 c 128,-1,49
 222 299 222 299 222 262 c 0,50,51
 222 241 222 241 226 220.5 c 128,-1,52
 230 200 230 200 231 194 c 0,53,54
 242 150 242 150 242 111 c 0,55,56
 242 56 242 56 211 24.5 c 128,-1,57
 180 -7 180 -7 119 -7 c 0,58,59
 63 -7 63 -7 34 18.5 c 128,-1,60
 5 44 5 44 5 85 c 0,61,62
 5 122 5 122 27 143 c 128,-1,63
 49 164 49 164 78 164 c 0,64,65
 95 164 95 164 105 154 c 128,-1,66
 115 144 115 144 115 126 c 1,67,-1
 99 126 l 2,68,69
 82 126 82 126 72.5 116 c 128,-1,70
 63 106 63 106 63 90 c 0,71,72
 63 75 63 75 72.5 65 c 128,-1,73
 82 55 82 55 98 55 c 0,74,75
 116 55 116 55 125 66 c 128,-1,76
 134 77 134 77 134 95 c 256,77,78
 134 113 134 113 130.5 130 c 128,-1,79
 127 147 127 147 120 172 c 0,80,81
 112 200 112 200 108 219.5 c 128,-1,82
 104 239 104 239 104 262 c 0,83,84
 104 319 104 319 151 347 c 1,85,86
 111 360 111 360 83 384.5 c 128,-1,87
 55 409 55 409 55 438 c 0,88,89
 55 470 55 470 85 504.5 c 128,-1,90
 115 539 115 539 172 562.5 c 128,-1,91
 229 586 229 586 306 586 c 0,92,0
 423 586 423 586 491.5 535 c 128,-1,1
221 -105 m 1,94,95
 186 -82 186 -82 158 -82 c 0,96,97
 139 -82 139 -82 126.5 -89.5 c 128,-1,98
 114 -97 114 -97 114 -111 c 0,99,100
 114 -126 114 -126 126 -134.5 c 128,-1,101
 138 -143 138 -143 157 -143 c 0,102,93
 197 -143 197 -143 221 -105 c 1,94,95
EndSplineSet
EndChar

StartChar: uni0E10
Encoding: 3600 3600 450
Width: 589
GlyphClass: 2
Flags: W
AnchorPoint: "Anchor-12" 529 550 basechar 0
AnchorPoint: "Anchor-11" 529 -283 basechar 0
LayerCount: 2
Fore
SplineSet
540 557.5 m 128,-1,1
 549 539 549 539 549 522 c 0,2,3
 549 489 549 489 520.5 470.5 c 128,-1,4
 492 452 492 452 445 452 c 0,5,6
 418 452 418 452 392.5 457.5 c 128,-1,7
 367 463 367 463 328 475 c 0,8,9
 291 486 291 486 270 490.5 c 128,-1,10
 249 495 249 495 228 495 c 0,11,12
 169 495 169 495 169 441 c 0,13,14
 169 421 169 421 175 410 c 1,15,16
 305 410 305 410 379 397 c 0,17,18
 445 386 445 386 479.5 348 c 128,-1,19
 514 310 514 310 514 238 c 0,20,21
 514 207 514 207 508.5 173 c 128,-1,22
 503 139 503 139 492 87 c 2,23,-1
 479 19 l 2,24,25
 477 7 477 7 440 -1 c 128,-1,26
 403 -9 403 -9 355 -9 c 0,27,28
 306 -9 306 -9 270.5 0 c 128,-1,29
 235 9 235 9 235 20 c 2,30,-1
 233 55 l 2,31,32
 229 138 229 138 223 177 c 0,33,34
 220 201 220 201 211 212 c 128,-1,35
 202 223 202 223 184 223 c 0,36,37
 168 223 168 223 159 214 c 128,-1,38
 150 205 150 205 150 191 c 0,39,40
 150 176 150 176 159 167 c 128,-1,41
 168 158 168 158 183 158 c 0,42,43
 195 158 195 158 202 162 c 128,-1,44
 209 166 209 166 210 167 c 1,45,46
 213 161 213 161 213 154 c 0,47,48
 213 138 213 138 200 128 c 128,-1,49
 187 118 187 118 162 118 c 0,50,51
 128 118 128 118 107 139 c 128,-1,52
 86 160 86 160 86 195 c 0,53,54
 86 236 86 236 116 261 c 128,-1,55
 146 286 146 286 190 286 c 0,56,57
 240 286 240 286 270 262.5 c 128,-1,58
 300 239 300 239 308 195 c 0,59,60
 314 152 314 152 320 74 c 0,61,62
 320 64 320 64 350 64 c 0,63,64
 378 64 378 64 379 74 c 0,65,66
 396 180 396 180 396 231 c 0,67,68
 396 277 396 277 373.5 297.5 c 128,-1,69
 351 318 351 318 297 323 c 0,70,71
 237 328 237 328 141 328 c 2,72,-1
 87 328 l 1,73,74
 73 344 73 344 63 372 c 128,-1,75
 53 400 53 400 53 429 c 0,76,77
 53 498 53 498 97 541.5 c 128,-1,78
 141 585 141 585 210 585 c 0,79,80
 239 585 239 585 266.5 581 c 128,-1,81
 294 577 294 577 331 570 c 0,82,83
 389 560 389 560 410 560 c 0,84,85
 448 560 448 560 474.5 567 c 128,-1,86
 501 574 501 574 519 589 c 1,87,0
 531 576 531 576 540 557.5 c 128,-1,1
497 -69 m 128,-1,89
 524 -93 524 -93 524 -133 c 0,90,91
 524 -150 524 -150 520.5 -164.5 c 128,-1,92
 517 -179 517 -179 509 -200 c 0,93,94
 500 -226 500 -226 496 -243 c 128,-1,95
 492 -260 492 -260 492 -282 c 1,96,-1
 372 -282 l 1,97,-1
 330 -248 l 1,98,-1
 282 -284 l 1,99,-1
 242 -243 l 1,100,101
 222 -263 222 -263 196 -273.5 c 128,-1,102
 170 -284 170 -284 143 -284 c 0,103,104
 97 -284 97 -284 69.5 -260.5 c 128,-1,105
 42 -237 42 -237 42 -200 c 0,106,107
 42 -160 42 -160 67 -136.5 c 128,-1,108
 92 -113 92 -113 131 -113 c 0,109,110
 168 -113 168 -113 206 -137 c 1,111,112
 209 -113 209 -113 209 -80 c 1,113,114
 249 -80 249 -80 269.5 -90 c 128,-1,115
 290 -100 290 -100 290 -128 c 0,116,117
 290 -166 290 -166 274 -200 c 1,118,-1
 287 -214 l 1,119,-1
 330 -188 l 1,120,-1
 393 -226 l 1,121,122
 395 -213 395 -213 400.5 -203 c 128,-1,123
 406 -193 406 -193 417 -178 c 256,124,125
 428 -163 428 -163 433 -152 c 128,-1,126
 438 -141 438 -141 438 -128 c 0,127,128
 438 -113 438 -113 430 -104 c 128,-1,129
 422 -95 422 -95 409 -95 c 256,130,131
 396 -95 396 -95 387.5 -103 c 128,-1,132
 379 -111 379 -111 379 -123 c 256,133,134
 379 -135 379 -135 387 -144.5 c 128,-1,135
 395 -154 395 -154 410 -156 c 1,136,137
 409 -163 409 -163 401.5 -168.5 c 128,-1,138
 394 -174 394 -174 382 -174 c 0,139,140
 359 -174 359 -174 344.5 -159.5 c 128,-1,141
 330 -145 330 -145 330 -120 c 0,142,143
 330 -85 330 -85 356 -65 c 128,-1,144
 382 -45 382 -45 424 -45 c 0,145,88
 470 -45 470 -45 497 -69 c 128,-1,89
192 -193 m 1,147,148
 164 -170 164 -170 147 -170 c 0,149,150
 134 -170 134 -170 124.5 -177.5 c 128,-1,151
 115 -185 115 -185 115 -198 c 0,152,153
 115 -226 115 -226 148 -226 c 0,154,146
 177 -226 177 -226 192 -193 c 1,147,148
EndSplineSet
Substitution2: "Single Substitution lookup 14 subtable" thoThanthai.less
Substitution2: "'aalt' Access All Alternates lookup 0 subtable" thoThanthai.less
EndChar

StartChar: thoThanthai.less
Encoding: 65542 -1 451
Width: 582
GlyphClass: 2
Flags: W
AnchorPoint: "Anchor-12" 529 550 basechar 0
AnchorPoint: "Anchor-11" 489 0 basechar 0
LayerCount: 2
Fore
SplineSet
270.5 0 m 128,-1,1
 235 9 235 9 235 20 c 2,2,-1
 233 55 l 2,3,4
 229 138 229 138 223 177 c 0,5,6
 220 201 220 201 211 212 c 128,-1,7
 202 223 202 223 184 223 c 0,8,9
 168 223 168 223 159 214 c 128,-1,10
 150 205 150 205 150 191 c 0,11,12
 150 176 150 176 159 167 c 128,-1,13
 168 158 168 158 183 158 c 0,14,15
 195 158 195 158 202 162 c 128,-1,16
 209 166 209 166 210 167 c 1,17,18
 213 161 213 161 213 154 c 0,19,20
 213 138 213 138 200 128 c 128,-1,21
 187 118 187 118 162 118 c 0,22,23
 128 118 128 118 107 139 c 128,-1,24
 86 160 86 160 86 195 c 0,25,26
 86 236 86 236 116 261 c 128,-1,27
 146 286 146 286 190 286 c 0,28,29
 240 286 240 286 270 262.5 c 128,-1,30
 300 239 300 239 308 195 c 0,31,32
 314 152 314 152 320 74 c 0,33,34
 320 64 320 64 350 64 c 0,35,36
 378 64 378 64 379 74 c 0,37,38
 396 180 396 180 396 231 c 0,39,40
 396 277 396 277 373.5 297.5 c 128,-1,41
 351 318 351 318 297 323 c 0,42,43
 237 328 237 328 141 328 c 2,44,-1
 87 328 l 1,45,46
 73 344 73 344 63 372 c 128,-1,47
 53 400 53 400 53 429 c 0,48,49
 53 498 53 498 97 541.5 c 128,-1,50
 141 585 141 585 210 585 c 0,51,52
 239 585 239 585 266.5 581 c 128,-1,53
 294 577 294 577 331 570 c 0,54,55
 389 560 389 560 410 560 c 0,56,57
 448 560 448 560 474.5 567 c 128,-1,58
 501 574 501 574 519 589 c 1,59,60
 531 576 531 576 540 557.5 c 128,-1,61
 549 539 549 539 549 522 c 0,62,63
 549 489 549 489 520.5 470.5 c 128,-1,64
 492 452 492 452 445 452 c 0,65,66
 418 452 418 452 392.5 457.5 c 128,-1,67
 367 463 367 463 328 475 c 0,68,69
 291 486 291 486 270 490.5 c 128,-1,70
 249 495 249 495 228 495 c 0,71,72
 169 495 169 495 169 441 c 0,73,74
 169 421 169 421 175 410 c 1,75,76
 305 410 305 410 379 397 c 0,77,78
 445 386 445 386 479.5 348 c 128,-1,79
 514 310 514 310 514 238 c 0,80,81
 514 207 514 207 508.5 173 c 128,-1,82
 503 139 503 139 492 87 c 2,83,-1
 479 19 l 2,84,85
 477 7 477 7 440 -1 c 128,-1,86
 403 -9 403 -9 355 -9 c 0,87,0
 306 -9 306 -9 270.5 0 c 128,-1,1
EndSplineSet
EndChar

StartChar: uni0E11
Encoding: 3601 3601 452
Width: 672
GlyphClass: 2
Flags: W
AnchorPoint: "Anchor-12" 612 550 basechar 0
AnchorPoint: "Anchor-11" 612 0 basechar 0
LayerCount: 2
Fore
SplineSet
574.5 539.5 m 128,-1,1
 612 499 612 499 612 432 c 2,2,-1
 612 0 l 1,3,-1
 493 0 l 1,4,-1
 493 403 l 2,5,6
 493 449 493 449 482 467.5 c 128,-1,7
 471 486 471 486 445 486 c 0,8,9
 424 486 424 486 407.5 476 c 128,-1,10
 391 466 391 466 368 439 c 128,-1,11
 345 412 345 412 299 352 c 0,12,13
 270 315 270 315 257.5 280.5 c 128,-1,14
 245 246 245 246 245 202 c 2,15,-1
 244 0 l 1,16,-1
 142 0 l 2,17,18
 122 0 122 0 122 20 c 0,19,20
 122 24 122 24 124 44 c 0,21,22
 127 86 127 86 127 106 c 2,23,-1
 127 213 l 2,24,25
 127 248 127 248 137.5 276 c 128,-1,26
 148 304 148 304 161.5 324 c 128,-1,27
 175 344 175 344 203 378 c 0,28,29
 226 408 226 408 236.5 427.5 c 128,-1,30
 247 447 247 447 247 468 c 0,31,32
 247 485 247 485 237.5 495.5 c 128,-1,33
 228 506 228 506 214 506 c 0,34,35
 191 506 191 506 173 473 c 1,36,37
 163 490 163 490 151.5 498.5 c 128,-1,38
 140 507 140 507 124 507 c 0,39,40
 109 507 109 507 99 497 c 128,-1,41
 89 487 89 487 89 469 c 0,42,43
 89 452 89 452 99 442.5 c 128,-1,44
 109 433 109 433 124 433 c 0,45,46
 151 433 151 433 166 458 c 1,47,48
 174 451 174 451 178.5 445.5 c 128,-1,49
 183 440 183 440 183 431 c 0,50,51
 183 409 183 409 163.5 392.5 c 128,-1,52
 144 376 144 376 111 376 c 0,53,54
 71 376 71 376 43 403 c 128,-1,55
 15 430 15 430 15 476 c 0,56,57
 15 524 15 524 41.5 552 c 128,-1,58
 68 580 68 580 107 580 c 0,59,60
 135 580 135 580 151.5 570.5 c 128,-1,61
 168 561 168 561 180 541 c 1,62,63
 205 580 205 580 256 580 c 0,64,65
 284 580 284 580 305.5 564.5 c 128,-1,66
 327 549 327 549 338 521 c 1,67,68
 392 580 392 580 472 580 c 0,69,0
 537 580 537 580 574.5 539.5 c 128,-1,1
EndSplineSet
EndChar

StartChar: uni0E12
Encoding: 3602 3602 453
Width: 958
GlyphClass: 2
Flags: W
AnchorPoint: "Anchor-12" 882 550 basechar 0
AnchorPoint: "Anchor-11" 882 0 basechar 0
LayerCount: 2
Fore
SplineSet
885 41 m 0,1,2
 886 32 886 32 886 20 c 0,3,4
 886 0 886 0 869 0 c 2,5,-1
 766 0 l 1,6,7
 704 140 704 140 599 168 c 1,8,-1
 599 117 l 2,9,10
 599 57 599 57 572 24 c 128,-1,11
 545 -9 545 -9 487 -9 c 0,12,13
 439 -9 439 -9 409 21 c 128,-1,14
 379 51 379 51 379 105 c 0,15,16
 379 154 379 154 404 189.5 c 128,-1,17
 429 225 429 225 479 238 c 1,18,-1
 479 370 l 2,19,20
 479 420 479 420 464 450 c 128,-1,21
 449 480 449 480 414 493 c 1,22,23
 387 472 387 472 335 439 c 1,24,-1
 317 450 l 2,25,26
 271 477 271 477 249 493 c 1,27,28
 171 453 171 453 171 333 c 0,29,30
 171 281 171 281 184 244 c 128,-1,31
 197 207 197 207 222 174 c 1,32,33
 236 187 236 187 257 201.5 c 128,-1,34
 278 216 278 216 285 221 c 0,35,36
 306 236 306 236 306 236 c 2,37,38
 330 254 330 254 341.5 270 c 128,-1,39
 353 286 353 286 353 304 c 0,40,41
 353 324 353 324 343 333.5 c 128,-1,42
 333 343 333 343 317 343 c 0,43,44
 300 343 300 343 290 333.5 c 128,-1,45
 280 324 280 324 280 308 c 0,46,47
 280 294 280 294 286 284.5 c 128,-1,48
 292 275 292 275 307 264 c 1,49,50
 300 255 300 255 292.5 252 c 128,-1,51
 285 249 285 249 272 249 c 0,52,53
 251 249 251 249 235 268 c 128,-1,54
 219 287 219 287 219 314 c 0,55,56
 219 354 219 354 246.5 379.5 c 128,-1,57
 274 405 274 405 320 405 c 0,58,59
 367 405 367 405 394 378 c 128,-1,60
 421 351 421 351 421 314 c 0,61,62
 421 285 421 285 412.5 265 c 128,-1,63
 404 245 404 245 389.5 230 c 128,-1,64
 375 215 375 215 344 189 c 2,65,-1
 326 174 l 2,66,67
 291 144 291 144 272 122.5 c 128,-1,68
 253 101 253 101 243 72 c 128,-1,69
 233 43 233 43 233 0 c 1,70,-1
 123 0 l 2,71,72
 118 0 118 0 115 2 c 128,-1,73
 112 4 112 4 112 11 c 0,74,75
 112 32 112 32 118 48.5 c 128,-1,76
 124 65 124 65 135 83 c 0,77,78
 136 85 136 85 141 94 c 128,-1,79
 146 103 146 103 146 110 c 256,80,81
 146 117 146 117 128 138 c 0,82,83
 96 178 96 178 74 222.5 c 128,-1,84
 52 267 52 267 52 335 c 0,85,86
 52 535 52 535 248 586 c 1,87,88
 300 558 300 558 335 528 c 1,89,90
 374 562 374 562 415 586 c 1,91,92
 517 563 517 563 557.5 512.5 c 128,-1,93
 598 462 598 462 598 370 c 2,94,-1
 598 240 l 1,95,96
 646 231 646 231 688.5 205 c 128,-1,97
 731 179 731 179 764 138 c 1,98,-1
 764 576 l 1,99,-1
 882 576 l 1,100,-1
 882 134 l 2,101,0
 882 98 882 98 885 41 c 0,1,2
478.5 71 m 128,-1,103
 483 86 483 86 483 121 c 2,104,-1
 482 169 l 1,105,106
 457 163 457 163 446 148.5 c 128,-1,107
 435 134 435 134 435 108 c 256,108,109
 435 82 435 82 443 69 c 128,-1,110
 451 56 451 56 464 56 c 0,111,102
 474 56 474 56 478.5 71 c 128,-1,103
EndSplineSet
EndChar

StartChar: uni0E13
Encoding: 3603 3603 454
Width: 939
GlyphClass: 2
Flags: W
AnchorPoint: "Anchor-12" 873 550 basechar 0
AnchorPoint: "Anchor-11" 873 0 basechar 0
LayerCount: 2
Fore
SplineSet
910.5 191 m 128,-1,1
 931 160 931 160 931 118 c 0,2,3
 931 61 931 61 894.5 28.5 c 128,-1,4
 858 -4 858 -4 803 -4 c 0,5,6
 749 -4 749 -4 715 28.5 c 128,-1,7
 681 61 681 61 681 115 c 0,8,9
 681 140 681 140 688 158 c 128,-1,10
 695 176 695 176 707 195 c 1,11,12
 665 189 665 189 629 160.5 c 128,-1,13
 593 132 593 132 572.5 89.5 c 128,-1,14
 552 47 552 47 552 0 c 1,15,-1
 447 0 l 2,16,17
 430 0 430 0 430 17 c 0,18,19
 430 24 430 24 432 51.5 c 128,-1,20
 434 79 434 79 434 116 c 2,21,-1
 433 383 l 2,22,23
 433 442 433 442 398.5 475 c 128,-1,24
 364 508 364 508 295 508 c 0,25,26
 253 508 253 508 221 496.5 c 128,-1,27
 189 485 189 485 172 469 c 128,-1,28
 155 453 155 453 155 440 c 0,29,30
 155 422 155 422 174.5 408.5 c 128,-1,31
 194 395 194 395 210 395 c 0,32,33
 220 395 220 395 243 402 c 0,34,35
 261 408 261 408 268 408 c 0,36,37
 279 408 279 408 293 384 c 128,-1,38
 307 360 307 360 307 344 c 0,39,40
 307 333 307 333 299 333 c 0,41,42
 240 333 240 333 215 306.5 c 128,-1,43
 190 280 190 280 190 221 c 2,44,-1
 190 111 l 2,45,46
 190 85 190 85 201.5 70.5 c 128,-1,47
 213 56 213 56 235 56 c 0,48,49
 255 56 255 56 265 66.5 c 128,-1,50
 275 77 275 77 275 96 c 0,51,52
 275 113 275 113 264 122.5 c 128,-1,53
 253 132 253 132 235 132 c 0,54,55
 220 132 220 132 208 129 c 1,56,57
 204 136 204 136 204 145 c 0,58,59
 204 161 204 161 217.5 171.5 c 128,-1,60
 231 182 231 182 254 182 c 0,61,62
 291 182 291 182 313.5 161 c 128,-1,63
 336 140 336 140 336 99 c 0,64,65
 336 51 336 51 303.5 22 c 128,-1,66
 271 -7 271 -7 212 -7 c 0,67,68
 149 -7 149 -7 110.5 27.5 c 128,-1,69
 72 62 72 62 72 123 c 2,70,-1
 72 221 l 2,71,72
 72 299 72 299 129 344 c 1,73,74
 96 359 96 359 70.5 384 c 128,-1,75
 45 409 45 409 45 437 c 0,76,77
 45 470 45 470 74 504.5 c 128,-1,78
 103 539 103 539 160 562.5 c 128,-1,79
 217 586 217 586 295 586 c 0,80,81
 414 586 414 586 483 534.5 c 128,-1,82
 552 483 552 483 552 383 c 2,83,-1
 552 172 l 1,84,85
 586 216 586 216 634.5 241 c 128,-1,86
 683 266 683 266 740 266 c 2,87,-1
 751 266 l 1,88,89
 755 277 755 277 755 294 c 2,90,-1
 755 576 l 1,91,-1
 873 576 l 1,92,-1
 873 304 l 2,93,94
 873 268 873 268 854 241 c 1,95,0
 890 222 890 222 910.5 191 c 128,-1,1
845 75.5 m 128,-1,97
 859 91 859 91 859 119 c 0,98,99
 859 169 859 169 799 187 c 1,100,101
 777 170 777 170 766 154.5 c 128,-1,102
 755 139 755 139 755 119 c 0,103,104
 755 92 755 92 769 76 c 128,-1,105
 783 60 783 60 807 60 c 256,106,96
 831 60 831 60 845 75.5 c 128,-1,97
EndSplineSet
EndChar

StartChar: uni0E14
Encoding: 3604 3604 455
Width: 642
GlyphClass: 2
Flags: W
AnchorPoint: "Anchor-12" 582 550 basechar 0
AnchorPoint: "Anchor-11" 582 0 basechar 0
LayerCount: 2
Fore
SplineSet
516.5 520.5 m 128,-1,1
 582 455 582 455 582 338 c 2,2,-1
 582 0 l 1,3,-1
 464 0 l 1,4,-1
 464 333 l 2,5,6
 464 421 464 421 430.5 464.5 c 128,-1,7
 397 508 397 508 323 508 c 256,8,9
 249 508 249 508 209.5 467.5 c 128,-1,10
 170 427 170 427 170 351 c 0,11,12
 170 299 170 299 183.5 254.5 c 128,-1,13
 197 210 197 210 219 176 c 1,14,15
 238 194 238 194 266 212 c 128,-1,16
 294 230 294 230 302 235 c 0,17,18
 328 252 328 252 340.5 269 c 128,-1,19
 353 286 353 286 353 306 c 0,20,21
 353 327 353 327 342.5 337 c 128,-1,22
 332 347 332 347 314 347 c 256,23,24
 296 347 296 347 285 337 c 128,-1,25
 274 327 274 327 274 309 c 0,26,27
 274 294 274 294 281 283.5 c 128,-1,28
 288 273 288 273 304 263 c 1,29,30
 296 254 296 254 289.5 250.5 c 128,-1,31
 283 247 283 247 271 247 c 0,32,33
 249 247 249 247 232.5 266 c 128,-1,34
 216 285 216 285 216 312 c 0,35,36
 216 352 216 352 243 377.5 c 128,-1,37
 270 403 270 403 316 403 c 0,38,39
 364 403 364 403 390.5 375.5 c 128,-1,40
 417 348 417 348 417 311 c 0,41,42
 417 266 417 266 398 239.5 c 128,-1,43
 379 213 379 213 327 178 c 0,44,45
 285 149 285 149 262.5 127 c 128,-1,46
 240 105 240 105 228 75 c 128,-1,47
 216 45 216 45 216 0 c 1,48,-1
 105 0 l 2,49,50
 100 0 100 0 97 2 c 128,-1,51
 94 4 94 4 94 11 c 0,52,53
 94 32 94 32 101 50.5 c 128,-1,54
 108 69 108 69 119 88 c 0,55,56
 131 109 131 109 131 118 c 256,57,58
 131 127 131 127 122 143.5 c 128,-1,59
 113 160 113 160 111 163 c 0,60,61
 84 211 84 211 68 253 c 128,-1,62
 52 295 52 295 52 350 c 0,63,64
 52 417 52 417 85.5 471 c 128,-1,65
 119 525 119 525 181 555.5 c 128,-1,66
 243 586 243 586 323 586 c 0,67,0
 451 586 451 586 516.5 520.5 c 128,-1,1
EndSplineSet
EndChar

StartChar: uni0E15
Encoding: 3605 3605 456
Width: 650
GlyphClass: 2
Flags: W
AnchorPoint: "Anchor-12" 590 550 basechar 0
AnchorPoint: "Anchor-11" 590 0 basechar 0
LayerCount: 2
Fore
SplineSet
548.5 513 m 128,-1,1
 590 462 590 462 590 370 c 2,2,-1
 590 0 l 1,3,-1
 472 0 l 1,4,-1
 472 370 l 2,5,6
 472 469 472 469 404 493 c 1,7,8
 360 460 360 460 328 439 c 1,9,10
 293 460 293 460 249 493 c 1,11,12
 171 458 171 458 171 333 c 0,13,14
 171 282 171 282 185.5 244.5 c 128,-1,15
 200 207 200 207 226 174 c 1,16,17
 241 187 241 187 281 211 c 2,18,-1
 306 227 l 2,19,20
 332 244 332 244 344.5 260.5 c 128,-1,21
 357 277 357 277 357 298 c 0,22,23
 357 318 357 318 346 328.5 c 128,-1,24
 335 339 335 339 318 339 c 0,25,26
 300 339 300 339 289 329 c 128,-1,27
 278 319 278 319 278 301 c 0,28,29
 278 286 278 286 285 275.5 c 128,-1,30
 292 265 292 265 308 255 c 1,31,32
 300 246 300 246 293.5 242.5 c 128,-1,33
 287 239 287 239 275 239 c 0,34,35
 253 239 253 239 236 258 c 128,-1,36
 219 277 219 277 219 304 c 0,37,38
 219 344 219 344 246.5 369.5 c 128,-1,39
 274 395 274 395 320 395 c 0,40,41
 367 395 367 395 394 367.5 c 128,-1,42
 421 340 421 340 421 302 c 0,43,44
 421 258 421 258 401.5 231.5 c 128,-1,45
 382 205 382 205 331 171 c 0,46,47
 286 140 286 140 265 120.5 c 128,-1,48
 244 101 244 101 233 73.5 c 128,-1,49
 222 46 222 46 222 0 c 1,50,-1
 112 0 l 2,51,52
 107 0 107 0 104 2 c 128,-1,53
 101 4 101 4 101 11 c 0,54,55
 101 31 101 31 107 47.5 c 128,-1,56
 113 64 113 64 124 85 c 0,57,58
 125 88 125 88 130.5 99 c 128,-1,59
 136 110 136 110 136 118 c 0,60,61
 136 125 136 125 119 147 c 0,62,63
 90 186 90 186 71 228 c 128,-1,64
 52 270 52 270 52 329 c 0,65,66
 52 429 52 429 98 495 c 128,-1,67
 144 561 144 561 248 586 c 1,68,69
 271 574 271 574 288 561 c 128,-1,70
 305 548 305 548 328 528 c 1,71,72
 373 568 373 568 405 586 c 1,73,0
 507 564 507 564 548.5 513 c 128,-1,1
EndSplineSet
EndChar

StartChar: uni0E16
Encoding: 3606 3606 457
Width: 612
GlyphClass: 2
Flags: W
AnchorPoint: "Anchor-12" 552 550 basechar 0
AnchorPoint: "Anchor-11" 552 0 basechar 0
LayerCount: 2
Fore
SplineSet
481.5 534.5 m 128,-1,1
 552 483 552 483 552 383 c 2,2,-1
 552 0 l 1,3,-1
 433 0 l 1,4,-1
 433 383 l 2,5,6
 433 442 433 442 398.5 475 c 128,-1,7
 364 508 364 508 294 508 c 0,8,9
 253 508 253 508 221 496.5 c 128,-1,10
 189 485 189 485 172 469 c 128,-1,11
 155 453 155 453 155 440 c 0,12,13
 155 422 155 422 173 408.5 c 128,-1,14
 191 395 191 395 207 395 c 0,15,16
 218 395 218 395 238 401 c 0,17,18
 256 407 256 407 263 407 c 0,19,20
 274 407 274 407 288 382.5 c 128,-1,21
 302 358 302 358 302 342 c 0,22,23
 302 331 302 331 294 331 c 0,24,25
 235 331 235 331 212.5 305.5 c 128,-1,26
 190 280 190 280 190 221 c 2,27,-1
 190 111 l 2,28,29
 190 85 190 85 201.5 70.5 c 128,-1,30
 213 56 213 56 235 56 c 0,31,32
 255 56 255 56 265 66.5 c 128,-1,33
 275 77 275 77 275 96 c 0,34,35
 275 113 275 113 264 122.5 c 128,-1,36
 253 132 253 132 235 132 c 0,37,38
 220 132 220 132 208 129 c 1,39,40
 204 136 204 136 204 145 c 0,41,42
 204 161 204 161 217.5 171.5 c 128,-1,43
 231 182 231 182 254 182 c 0,44,45
 291 182 291 182 313.5 161 c 128,-1,46
 336 140 336 140 336 99 c 0,47,48
 336 51 336 51 303.5 22 c 128,-1,49
 271 -7 271 -7 212 -7 c 0,50,51
 149 -7 149 -7 110.5 27.5 c 128,-1,52
 72 62 72 62 72 123 c 2,53,-1
 72 221 l 2,54,55
 72 300 72 300 126 344 c 1,56,57
 94 359 94 359 69.5 384 c 128,-1,58
 45 409 45 409 45 437 c 0,59,60
 45 470 45 470 74.5 504.5 c 128,-1,61
 104 539 104 539 160.5 562.5 c 128,-1,62
 217 586 217 586 294 586 c 0,63,0
 411 586 411 586 481.5 534.5 c 128,-1,1
EndSplineSet
EndChar

StartChar: uni0E17
Encoding: 3607 3607 458
Width: 698
GlyphClass: 2
Flags: W
AnchorPoint: "Anchor-12" 638 550 basechar 0
AnchorPoint: "Anchor-11" 638 0 basechar 0
LayerCount: 2
Fore
SplineSet
606.5 553.5 m 128,-1,1
 638 521 638 521 638 459 c 2,2,-1
 638 0 l 1,3,-1
 520 0 l 1,4,-1
 520 415 l 2,5,6
 520 448 520 448 511.5 462.5 c 128,-1,7
 503 477 503 477 484 477 c 0,8,9
 459 477 459 477 436 450.5 c 128,-1,10
 413 424 413 424 386 367 c 0,11,12
 332 255 332 255 310.5 178.5 c 128,-1,13
 289 102 289 102 287 42 c 2,14,-1
 286 0 l 1,15,-1
 179 0 l 2,16,17
 171 0 171 0 167.5 4 c 128,-1,18
 164 8 164 8 164 18 c 0,19,20
 164 25 164 25 166.5 51.5 c 128,-1,21
 169 78 169 78 169 112 c 2,22,-1
 169 480 l 2,23,24
 169 500 169 500 159.5 512.5 c 128,-1,25
 150 525 150 525 130 525 c 0,26,27
 111 525 111 525 100.5 514.5 c 128,-1,28
 90 504 90 504 90 485 c 0,29,30
 90 465 90 465 102 454 c 128,-1,31
 114 443 114 443 134 443 c 2,32,-1
 155 443 l 1,33,34
 155 397 155 397 110 397 c 0,35,36
 77 397 77 397 53.5 420.5 c 128,-1,37
 30 444 30 444 30 485 c 0,38,39
 30 529 30 529 63.5 557.5 c 128,-1,40
 97 586 97 586 150 586 c 0,41,42
 214 586 214 586 251.5 552.5 c 128,-1,43
 289 519 289 519 288 458 c 2,44,-1
 287 302 l 1,45,46
 316 383 316 383 350 448 c 0,47,48
 387 518 387 518 425 552 c 128,-1,49
 463 586 463 586 522 586 c 0,50,0
 575 586 575 586 606.5 553.5 c 128,-1,1
EndSplineSet
EndChar

StartChar: uni0E18
Encoding: 3608 3608 459
Width: 590
GlyphClass: 2
Flags: W
AnchorPoint: "Anchor-12" 506 550 basechar 0
AnchorPoint: "Anchor-11" 496 0 basechar 0
LayerCount: 2
Fore
SplineSet
131 26 m 128,-1,1
 80 61 80 61 80 150 c 2,2,-1
 80 264 l 1,3,4
 110 271 110 271 141 271 c 0,5,6
 167 271 167 271 182.5 262 c 128,-1,7
 198 253 198 253 198 236 c 2,8,-1
 198 154 l 2,9,10
 198 123 198 123 205 106 c 128,-1,11
 212 89 212 89 232 80.5 c 128,-1,12
 252 72 252 72 293 72 c 0,13,14
 355 72 355 72 378 88.5 c 128,-1,15
 401 105 401 105 401 146 c 2,16,-1
 401 219 l 2,17,18
 401 261 401 261 382.5 280 c 128,-1,19
 364 299 364 299 322 306 c 0,20,21
 272 314 272 314 201.5 317.5 c 128,-1,22
 131 321 131 321 86 321 c 1,23,24
 70 337 70 337 59.5 371 c 128,-1,25
 49 405 49 405 49 438 c 0,26,27
 49 482 49 482 72 514.5 c 128,-1,28
 95 547 95 547 133 564.5 c 128,-1,29
 171 582 171 582 216 582 c 0,30,31
 251 582 251 582 325 573 c 0,32,33
 374 566 374 566 402 566 c 0,34,35
 478 566 478 566 515 595 c 1,36,37
 523 583 523 583 528 562.5 c 128,-1,38
 533 542 533 542 533 522 c 0,39,40
 533 491 533 491 510.5 474.5 c 128,-1,41
 488 458 488 458 446 458 c 0,42,43
 419 458 419 458 393 463 c 128,-1,44
 367 468 367 468 327 479 c 0,45,46
 292 488 292 488 271 492.5 c 128,-1,47
 250 497 250 497 230 497 c 0,48,49
 196 497 196 497 179.5 481.5 c 128,-1,50
 163 466 163 466 163 441 c 0,51,52
 163 414 163 414 170 401 c 1,53,54
 219 401 219 401 284 396 c 128,-1,55
 349 391 349 391 397 379 c 0,56,57
 456 364 456 364 487.5 329 c 128,-1,58
 519 294 519 294 519 223 c 2,59,-1
 519 150 l 2,60,61
 519 60 519 60 463.5 25.5 c 128,-1,62
 408 -9 408 -9 293 -9 c 0,63,0
 182 -9 182 -9 131 26 c 128,-1,1
EndSplineSet
EndChar

StartChar: uni0E19
Encoding: 3609 3609 460
Width: 670
GlyphClass: 2
Flags: W
AnchorPoint: "Anchor-12" 604 550 basechar 0
AnchorPoint: "Anchor-11" 604 0 basechar 0
LayerCount: 2
Fore
SplineSet
661 116 m 0,1,2
 661 61 661 61 624.5 28.5 c 128,-1,3
 588 -4 588 -4 533 -4 c 0,4,5
 479 -4 479 -4 445 29 c 128,-1,6
 411 62 411 62 411 114 c 0,7,8
 411 156 411 156 435 191 c 1,9,10
 392 185 392 185 353.5 157.5 c 128,-1,11
 315 130 315 130 291 88.5 c 128,-1,12
 267 47 267 47 267 0 c 1,13,-1
 166 0 l 2,14,15
 146 0 146 0 146 20 c 0,16,17
 146 31 146 31 147 40 c 0,18,19
 150 91 150 91 150 113 c 2,20,-1
 149 480 l 2,21,22
 149 500 149 500 139.5 512.5 c 128,-1,23
 130 525 130 525 110 525 c 0,24,25
 91 525 91 525 80.5 514.5 c 128,-1,26
 70 504 70 504 70 485 c 0,27,28
 70 465 70 465 82 454 c 128,-1,29
 94 443 94 443 114 443 c 2,30,-1
 135 443 l 1,31,32
 135 397 135 397 90 397 c 0,33,34
 57 397 57 397 33.5 420.5 c 128,-1,35
 10 444 10 444 10 485 c 0,36,37
 10 529 10 529 43.5 557.5 c 128,-1,38
 77 586 77 586 130 586 c 0,39,40
 194 586 194 586 231.5 552.5 c 128,-1,41
 269 519 269 519 268 458 c 2,42,-1
 267 165 l 1,43,44
 303 211 303 211 356.5 236.5 c 128,-1,45
 410 262 410 262 469 262 c 2,46,-1
 481 262 l 1,47,48
 485 273 485 273 485 290 c 2,49,-1
 485 576 l 1,50,-1
 604 576 l 1,51,-1
 604 299 l 2,52,53
 604 266 604 266 585 238 c 1,54,0
 661 201 661 201 661 116 c 0,1,2
575 75 m 128,-1,56
 589 90 589 90 589 117 c 0,57,58
 589 167 589 167 527 185 c 1,59,60
 506 168 506 168 495 153 c 128,-1,61
 484 138 484 138 484 118 c 0,62,63
 484 91 484 91 498.5 75.5 c 128,-1,64
 513 60 513 60 537 60 c 256,65,55
 561 60 561 60 575 75 c 128,-1,56
EndSplineSet
EndChar

StartChar: uni0E1A
Encoding: 3610 3610 461
Width: 692
GlyphClass: 2
Flags: W
AnchorPoint: "Anchor-12" 625 550 basechar 0
AnchorPoint: "Anchor-11" 625 0 basechar 0
LayerCount: 2
Fore
SplineSet
260.5 6 m 128,-1,1
 203 21 203 21 179 50 c 0,2,3
 162 71 162 71 155.5 102 c 128,-1,4
 149 133 149 133 149 183 c 2,5,-1
 149 480 l 2,6,7
 149 500 149 500 139.5 512.5 c 128,-1,8
 130 525 130 525 110 525 c 0,9,10
 91 525 91 525 80.5 514.5 c 128,-1,11
 70 504 70 504 70 485 c 0,12,13
 70 465 70 465 82 454 c 128,-1,14
 94 443 94 443 114 443 c 2,15,-1
 135 443 l 1,16,17
 135 397 135 397 90 397 c 0,18,19
 57 397 57 397 33.5 420.5 c 128,-1,20
 10 444 10 444 10 485 c 0,21,22
 10 529 10 529 43.5 557.5 c 128,-1,23
 77 586 77 586 130 586 c 0,24,25
 194 586 194 586 231 552.5 c 128,-1,26
 268 519 268 519 268 458 c 2,27,-1
 267 176 l 2,28,29
 267 144 267 144 271 124.5 c 128,-1,30
 275 105 275 105 285 95 c 0,31,32
 313 68 313 68 389 68 c 0,33,34
 464 68 464 68 490 95 c 0,35,36
 501 106 501 106 504 123.5 c 128,-1,37
 507 141 507 141 507 173 c 2,38,-1
 507 576 l 1,39,-1
 625 576 l 1,40,-1
 625 190 l 2,41,42
 625 132 625 132 618.5 102 c 128,-1,43
 612 72 612 72 593 50 c 0,44,45
 567 22 567 22 509.5 6.5 c 128,-1,46
 452 -9 452 -9 389 -9 c 0,47,0
 318 -9 318 -9 260.5 6 c 128,-1,1
EndSplineSet
EndChar

StartChar: uni0E1B
Encoding: 3611 3611 462
Width: 692
GlyphClass: 2
Flags: W
AnchorPoint: "Anchor-12" 450 550 basechar 0
AnchorPoint: "Anchor-11" 625 0 basechar 0
LayerCount: 2
Fore
SplineSet
260.5 6 m 128,-1,1
 203 21 203 21 179 50 c 0,2,3
 162 71 162 71 155.5 102 c 128,-1,4
 149 133 149 133 149 183 c 2,5,-1
 149 480 l 2,6,7
 149 500 149 500 139.5 512.5 c 128,-1,8
 130 525 130 525 110 525 c 0,9,10
 91 525 91 525 80.5 514.5 c 128,-1,11
 70 504 70 504 70 485 c 0,12,13
 70 465 70 465 82 454 c 128,-1,14
 94 443 94 443 114 443 c 2,15,-1
 135 443 l 1,16,17
 135 397 135 397 90 397 c 0,18,19
 57 397 57 397 33.5 420.5 c 128,-1,20
 10 444 10 444 10 485 c 0,21,22
 10 529 10 529 43.5 557.5 c 128,-1,23
 77 586 77 586 130 586 c 0,24,25
 194 586 194 586 231 552.5 c 128,-1,26
 268 519 268 519 268 458 c 2,27,-1
 267 176 l 2,28,29
 267 144 267 144 271 124.5 c 128,-1,30
 275 105 275 105 285 95 c 0,31,32
 313 68 313 68 389 68 c 0,33,34
 464 68 464 68 490 95 c 0,35,36
 501 106 501 106 504 123.5 c 128,-1,37
 507 141 507 141 507 173 c 2,38,-1
 507 783 l 1,39,-1
 625 783 l 1,40,-1
 625 190 l 2,41,42
 625 132 625 132 618.5 102 c 128,-1,43
 612 72 612 72 593 50 c 0,44,45
 567 22 567 22 509.5 6.5 c 128,-1,46
 452 -9 452 -9 389 -9 c 0,47,0
 318 -9 318 -9 260.5 6 c 128,-1,1
EndSplineSet
EndChar

StartChar: uni0E1C
Encoding: 3612 3612 463
Width: 651
GlyphClass: 2
Flags: W
AnchorPoint: "Anchor-12" 580 550 basechar 0
AnchorPoint: "Anchor-11" 580 0 basechar 0
LayerCount: 2
Fore
SplineSet
583 49 m 2,1,-1
 584 22 l 2,2,3
 584 9 584 9 580.5 4.5 c 128,-1,4
 577 0 577 0 569 0 c 2,5,-1
 465 0 l 1,6,-1
 465 14 l 2,7,8
 465 63 465 63 427 122 c 128,-1,9
 389 181 389 181 326 233 c 1,10,11
 259 181 259 181 218 122 c 128,-1,12
 177 63 177 63 177 14 c 2,13,-1
 177 0 l 1,14,-1
 70 0 l 2,15,16
 55 0 55 0 55 11 c 0,17,18
 55 23 55 23 58 47 c 0,19,20
 63 110 63 110 63 135 c 2,21,-1
 63 443 l 2,22,23
 63 508 63 508 104 547 c 128,-1,24
 145 586 145 586 208 586 c 0,25,26
 267 586 267 586 300 556.5 c 128,-1,27
 333 527 333 527 333 476 c 0,28,29
 333 435 333 435 308 413.5 c 128,-1,30
 283 392 283 392 246 392 c 0,31,32
 221 392 221 392 207.5 402 c 128,-1,33
 194 412 194 412 194 429 c 0,34,35
 194 436 194 436 197 445 c 1,36,37
 210 440 210 440 225 440 c 0,38,39
 265 440 265 440 265 478 c 0,40,41
 265 496 265 496 255 506.5 c 128,-1,42
 245 517 245 517 226 517 c 0,43,44
 205 517 205 517 193 502.5 c 128,-1,45
 181 488 181 488 181 462 c 2,46,-1
 181 182 l 1,47,48
 225 258 225 258 321 333 c 1,49,-1
 331 333 l 1,50,51
 417 266 417 266 462 183 c 1,52,-1
 462 576 l 1,53,-1
 580 576 l 1,54,-1
 580 132 l 2,55,0
 580 94 580 94 583 49 c 2,1,-1
EndSplineSet
EndChar

StartChar: uni0E1D
Encoding: 3613 3613 464
Width: 651
GlyphClass: 2
Flags: W
AnchorPoint: "Anchor-12" 409 550 basechar 0
AnchorPoint: "Anchor-11" 580 0 basechar 0
LayerCount: 2
Fore
SplineSet
583 49 m 2,1,-1
 584 22 l 2,2,3
 584 9 584 9 580.5 4.5 c 128,-1,4
 577 0 577 0 569 0 c 2,5,-1
 465 0 l 1,6,-1
 465 14 l 2,7,8
 465 63 465 63 427 122 c 128,-1,9
 389 181 389 181 326 233 c 1,10,11
 259 181 259 181 218 122 c 128,-1,12
 177 63 177 63 177 14 c 2,13,-1
 177 0 l 1,14,-1
 70 0 l 2,15,16
 55 0 55 0 55 11 c 0,17,18
 55 23 55 23 58 47 c 0,19,20
 63 110 63 110 63 135 c 2,21,-1
 63 443 l 2,22,23
 63 508 63 508 104 547 c 128,-1,24
 145 586 145 586 208 586 c 0,25,26
 267 586 267 586 300 556.5 c 128,-1,27
 333 527 333 527 333 476 c 0,28,29
 333 435 333 435 308 413.5 c 128,-1,30
 283 392 283 392 246 392 c 0,31,32
 221 392 221 392 207.5 402 c 128,-1,33
 194 412 194 412 194 429 c 0,34,35
 194 436 194 436 197 445 c 1,36,37
 210 440 210 440 225 440 c 0,38,39
 265 440 265 440 265 478 c 0,40,41
 265 496 265 496 255 506.5 c 128,-1,42
 245 517 245 517 226 517 c 0,43,44
 205 517 205 517 193 502.5 c 128,-1,45
 181 488 181 488 181 462 c 2,46,-1
 181 182 l 1,47,48
 225 258 225 258 321 333 c 1,49,-1
 331 333 l 1,50,51
 417 266 417 266 462 183 c 1,52,-1
 462 783 l 1,53,-1
 580 783 l 1,54,-1
 580 132 l 2,55,0
 580 94 580 94 583 49 c 2,1,-1
EndSplineSet
EndChar

StartChar: uni0E1E
Encoding: 3614 3614 465
Width: 758
GlyphClass: 2
Flags: W
AnchorPoint: "Anchor-12" 687 550 basechar 0
AnchorPoint: "Anchor-11" 687 0 basechar 0
LayerCount: 2
Fore
SplineSet
691 14 m 2,0,1
 691 0 691 0 678 0 c 2,2,-1
 571 0 l 1,3,-1
 571 14 l 2,4,5
 571 68 571 68 528 166 c 128,-1,6
 485 264 485 264 424 367 c 1,7,8
 367 265 367 265 325 166 c 128,-1,9
 283 67 283 67 283 14 c 2,10,-1
 283 0 l 1,11,-1
 173 0 l 2,12,13
 160 0 160 0 160 16 c 0,14,15
 160 21 160 21 162 41 c 0,16,17
 169 92 169 92 169 190 c 2,18,-1
 169 480 l 2,19,20
 169 500 169 500 159.5 512.5 c 128,-1,21
 150 525 150 525 130 525 c 0,22,23
 111 525 111 525 100.5 514.5 c 128,-1,24
 90 504 90 504 90 485 c 0,25,26
 90 465 90 465 102 454 c 128,-1,27
 114 443 114 443 134 443 c 2,28,-1
 155 443 l 1,29,30
 155 397 155 397 110 397 c 0,31,32
 77 397 77 397 53.5 420.5 c 128,-1,33
 30 444 30 444 30 485 c 0,34,35
 30 529 30 529 63.5 557.5 c 128,-1,36
 97 586 97 586 150 586 c 0,37,38
 214 586 214 586 251.5 552.5 c 128,-1,39
 289 519 289 519 288 458 c 2,40,-1
 287 253 l 1,41,42
 329 372 329 372 416 523 c 1,43,-1
 430 523 l 1,44,45
 470 461 470 461 508 388.5 c 128,-1,46
 546 316 546 316 569 253 c 1,47,-1
 569 576 l 1,48,-1
 687 576 l 1,49,-1
 687 190 l 2,50,51
 687 108 687 108 691 20 c 1,52,-1
 691 14 l 2,0,1
EndSplineSet
EndChar

StartChar: uni0E1F
Encoding: 3615 3615 466
Width: 758
GlyphClass: 2
Flags: W
AnchorPoint: "Anchor-12" 516 550 basechar 0
AnchorPoint: "Anchor-11" 687 0 basechar 0
LayerCount: 2
Fore
SplineSet
691 14 m 2,0,1
 691 0 691 0 678 0 c 2,2,-1
 571 0 l 1,3,-1
 571 14 l 2,4,5
 571 68 571 68 528 166 c 128,-1,6
 485 264 485 264 424 367 c 1,7,8
 367 265 367 265 325 166 c 128,-1,9
 283 67 283 67 283 14 c 2,10,-1
 283 0 l 1,11,-1
 173 0 l 2,12,13
 160 0 160 0 160 16 c 0,14,15
 160 21 160 21 162 41 c 0,16,17
 169 92 169 92 169 190 c 2,18,-1
 169 480 l 2,19,20
 169 500 169 500 159.5 512.5 c 128,-1,21
 150 525 150 525 130 525 c 0,22,23
 111 525 111 525 100.5 514.5 c 128,-1,24
 90 504 90 504 90 485 c 0,25,26
 90 465 90 465 102 454 c 128,-1,27
 114 443 114 443 134 443 c 2,28,-1
 155 443 l 1,29,30
 155 397 155 397 110 397 c 0,31,32
 77 397 77 397 53.5 420.5 c 128,-1,33
 30 444 30 444 30 485 c 0,34,35
 30 529 30 529 63.5 557.5 c 128,-1,36
 97 586 97 586 150 586 c 0,37,38
 214 586 214 586 251.5 552.5 c 128,-1,39
 289 519 289 519 288 458 c 2,40,-1
 287 253 l 1,41,42
 329 372 329 372 416 523 c 1,43,-1
 430 523 l 1,44,45
 470 461 470 461 508 388.5 c 128,-1,46
 546 316 546 316 569 253 c 1,47,-1
 569 783 l 1,48,-1
 687 783 l 1,49,-1
 687 190 l 2,50,51
 687 108 687 108 691 20 c 1,52,-1
 691 14 l 2,0,1
EndSplineSet
EndChar

StartChar: uni0E20
Encoding: 3616 3616 467
Width: 620
GlyphClass: 2
Flags: W
AnchorPoint: "Anchor-12" 560 550 basechar 0
AnchorPoint: "Anchor-11" 560 0 basechar 0
LayerCount: 2
Fore
SplineSet
491.5 535 m 128,-1,1
 560 484 560 484 560 377 c 2,2,-1
 560 0 l 1,3,-1
 442 0 l 1,4,-1
 442 377 l 2,5,6
 442 443 442 443 408.5 475.5 c 128,-1,7
 375 508 375 508 306 508 c 0,8,9
 264 508 264 508 232 497 c 128,-1,10
 200 486 200 486 182.5 470 c 128,-1,11
 165 454 165 454 165 441 c 0,12,13
 165 423 165 423 183 410 c 128,-1,14
 201 397 201 397 216 397 c 0,15,16
 224 397 224 397 233.5 400 c 128,-1,17
 243 403 243 403 247 404 c 0,18,19
 263 411 263 411 274 411 c 256,20,21
 285 411 285 411 298.5 387 c 128,-1,22
 312 363 312 363 312 347 c 0,23,24
 312 336 312 336 304 336 c 0,25,26
 265 336 265 336 243.5 317.5 c 128,-1,27
 222 299 222 299 222 262 c 0,28,29
 222 241 222 241 226 220.5 c 128,-1,30
 230 200 230 200 231 194 c 0,31,32
 242 150 242 150 242 111 c 0,33,34
 242 56 242 56 211 24.5 c 128,-1,35
 180 -7 180 -7 119 -7 c 0,36,37
 63 -7 63 -7 34 18.5 c 128,-1,38
 5 44 5 44 5 85 c 0,39,40
 5 122 5 122 27 143 c 128,-1,41
 49 164 49 164 78 164 c 0,42,43
 95 164 95 164 105 154 c 128,-1,44
 115 144 115 144 115 126 c 1,45,-1
 99 126 l 2,46,47
 82 126 82 126 72.5 116 c 128,-1,48
 63 106 63 106 63 90 c 0,49,50
 63 75 63 75 72.5 65 c 128,-1,51
 82 55 82 55 98 55 c 0,52,53
 116 55 116 55 125 66 c 128,-1,54
 134 77 134 77 134 95 c 256,55,56
 134 113 134 113 130.5 130 c 128,-1,57
 127 147 127 147 120 172 c 0,58,59
 112 200 112 200 108 219.5 c 128,-1,60
 104 239 104 239 104 262 c 0,61,62
 104 319 104 319 151 347 c 1,63,64
 111 360 111 360 83 384.5 c 128,-1,65
 55 409 55 409 55 438 c 0,66,67
 55 470 55 470 85 504.5 c 128,-1,68
 115 539 115 539 172 562.5 c 128,-1,69
 229 586 229 586 306 586 c 0,70,0
 423 586 423 586 491.5 535 c 128,-1,1
EndSplineSet
EndChar

StartChar: uni0E21
Encoding: 3617 3617 468
Width: 690
GlyphClass: 2
Flags: W
AnchorPoint: "Anchor-12" 613 550 basechar 0
AnchorPoint: "Anchor-11" 613 0 basechar 0
LayerCount: 2
Fore
SplineSet
617 44 m 2,1,-1
 618 20 l 2,2,3
 618 0 618 0 603 0 c 2,4,-1
 497 0 l 1,5,6
 476 83 476 83 421.5 133 c 128,-1,7
 367 183 367 183 308 190 c 1,8,9
 308 175 308 175 310 157 c 2,10,-1
 311 120 l 2,11,12
 311 -9 311 -9 185 -9 c 0,13,14
 129 -9 129 -9 96 25.5 c 128,-1,15
 63 60 63 60 63 119 c 0,16,17
 63 181 63 181 100 220 c 128,-1,18
 137 259 137 259 191 265 c 1,19,20
 189 285 189 285 189 313 c 2,21,-1
 189 480 l 2,22,23
 189 500 189 500 179.5 512.5 c 128,-1,24
 170 525 170 525 150 525 c 0,25,26
 131 525 131 525 120.5 514.5 c 128,-1,27
 110 504 110 504 110 485 c 0,28,29
 110 465 110 465 122 454 c 128,-1,30
 134 443 134 443 154 443 c 2,31,-1
 175 443 l 1,32,33
 175 397 175 397 130 397 c 0,34,35
 97 397 97 397 73.5 420.5 c 128,-1,36
 50 444 50 444 50 485 c 0,37,38
 50 529 50 529 83.5 557.5 c 128,-1,39
 117 586 117 586 170 586 c 0,40,41
 234 586 234 586 271.5 552.5 c 128,-1,42
 309 519 309 519 308 458 c 2,43,-1
 307 267 l 1,44,45
 358 262 358 262 410 232.5 c 128,-1,46
 462 203 462 203 495 154 c 1,47,-1
 495 576 l 1,48,-1
 613 576 l 1,49,-1
 613 138 l 2,50,0
 613 86 613 86 617 44 c 2,1,-1
189.5 70.5 m 128,-1,52
 196 85 196 85 196 125 c 0,53,54
 196 148 196 148 192 194 c 1,55,56
 133 181 133 181 133 114 c 0,57,58
 133 56 133 56 167 56 c 0,59,51
 183 56 183 56 189.5 70.5 c 128,-1,52
EndSplineSet
EndChar

StartChar: uni0E22
Encoding: 3618 3618 469
Width: 643
GlyphClass: 2
Flags: W
AnchorPoint: "Anchor-12" 576 550 basechar 0
AnchorPoint: "Anchor-11" 576 0 basechar 0
LayerCount: 2
Fore
SplineSet
576 576 m 1,0,-1
 576 231 l 2,1,2
 576 158 576 158 565.5 115.5 c 128,-1,3
 555 73 555 73 524 46 c 0,4,5
 461 -9 461 -9 323 -9 c 0,6,7
 180 -9 180 -9 118 46 c 0,8,9
 94 67 94 67 83 95.5 c 128,-1,10
 72 124 72 124 72 165 c 2,11,-1
 72 174 l 2,12,13
 72 217 72 217 93.5 246.5 c 128,-1,14
 115 276 115 276 147 289 c 1,15,16
 110 303 110 303 86.5 338.5 c 128,-1,17
 63 374 63 374 63 432 c 0,18,19
 63 475 63 475 83.5 510.5 c 128,-1,20
 104 546 104 546 139.5 566 c 128,-1,21
 175 586 175 586 218 586 c 0,22,23
 278 586 278 586 307.5 560.5 c 128,-1,24
 337 535 337 535 337 493 c 0,25,26
 337 454 337 454 314.5 429.5 c 128,-1,27
 292 405 292 405 253 405 c 0,28,29
 227 405 227 405 212 417 c 128,-1,30
 197 429 197 429 197 448 c 0,31,32
 197 455 197 455 200 464 c 1,33,34
 216 453 216 453 237 453 c 0,35,36
 254 453 254 453 264 463 c 128,-1,37
 274 473 274 473 274 490 c 0,38,39
 274 506 274 506 264 515.5 c 128,-1,40
 254 525 254 525 236 525 c 0,41,42
 208 525 208 525 190 502 c 128,-1,43
 172 479 172 479 172 433 c 0,44,45
 172 374 172 374 213.5 348.5 c 128,-1,46
 255 323 255 323 351 323 c 0,47,48
 355 323 355 323 355 315 c 0,49,50
 355 297 355 297 340.5 269 c 128,-1,51
 326 241 326 241 312 241 c 0,52,53
 303 241 303 241 292 244 c 128,-1,54
 281 247 281 247 277 248 c 0,55,56
 253 256 253 256 240 256 c 0,57,58
 218 256 218 256 204.5 235.5 c 128,-1,59
 191 215 191 215 191 184 c 2,60,-1
 191 171 l 2,61,62
 191 123 191 123 211 102 c 0,63,64
 226 86 226 86 253 79 c 128,-1,65
 280 72 280 72 323 72 c 256,66,67
 366 72 366 72 392 79 c 128,-1,68
 418 86 418 86 435 102 c 0,69,70
 450 116 450 116 454 144 c 128,-1,71
 458 172 458 172 458 224 c 2,72,-1
 458 576 l 1,73,-1
 576 576 l 1,0,-1
EndSplineSet
EndChar

StartChar: uni0E23
Encoding: 3619 3619 470
Width: 528
GlyphClass: 2
Flags: W
AnchorPoint: "Anchor-12" 464 550 basechar 0
AnchorPoint: "Anchor-11" 438 0 basechar 0
LayerCount: 2
Fore
SplineSet
204 22 m 128,-1,1
 170 52 170 52 170 99 c 0,2,3
 170 139 170 139 195 163.5 c 128,-1,4
 220 188 220 188 255 188 c 0,5,6
 300 188 300 188 300 140 c 1,7,8
 291 141 291 141 274 141 c 0,9,10
 255 141 255 141 244.5 130.5 c 128,-1,11
 234 120 234 120 234 102 c 0,12,13
 234 85 234 85 245 74 c 128,-1,14
 256 63 256 63 274 63 c 0,15,16
 301 63 301 63 313.5 82 c 128,-1,17
 326 101 326 101 327 139 c 2,18,-1
 328 189 l 2,19,20
 329 242 329 242 307.5 268 c 128,-1,21
 286 294 286 294 243 302 c 0,22,23
 198 310 198 310 160 312 c 128,-1,24
 122 314 122 314 73 314 c 1,25,26
 57 330 57 330 46.5 364 c 128,-1,27
 36 398 36 398 36 433 c 0,28,29
 36 502 36 502 83 542 c 128,-1,30
 130 582 130 582 198 582 c 0,31,32
 240 582 240 582 294 573 c 0,33,34
 303 572 303 572 326.5 569 c 128,-1,35
 350 566 350 566 369 566 c 0,36,37
 427 566 427 566 465 593 c 1,38,39
 474 583 474 583 480.5 565 c 128,-1,40
 487 547 487 547 487 526 c 0,41,42
 487 495 487 495 463 476.5 c 128,-1,43
 439 458 439 458 400 458 c 0,44,45
 377 458 377 458 356 463 c 128,-1,46
 335 468 335 468 302 479 c 0,47,48
 273 488 273 488 255.5 492.5 c 128,-1,49
 238 497 238 497 220 497 c 0,50,51
 188 497 188 497 169.5 480 c 128,-1,52
 151 463 151 463 151 435 c 0,53,54
 151 409 151 409 159 395 c 1,55,56
 245 393 245 393 318 376 c 0,57,58
 449 343 449 343 446 195 c 2,59,-1
 445 145 l 2,60,61
 444 73 444 73 404.5 32.5 c 128,-1,62
 365 -8 365 -8 295 -8 c 0,63,0
 238 -8 238 -8 204 22 c 128,-1,1
EndSplineSet
EndChar

StartChar: uni0E24
Encoding: 3620 3620 471
Width: 612
GlyphClass: 2
Flags: W
AnchorPoint: "Anchor-12" 552 550 basechar 0
AnchorPoint: "Anchor-11" 552 -220 basechar 0
LayerCount: 2
Fore
SplineSet
433 383 m 2,0,1
 433 442 433 442 398.5 475 c 128,-1,2
 364 508 364 508 294 508 c 0,3,4
 253 508 253 508 221 496.5 c 128,-1,5
 189 485 189 485 172 469 c 128,-1,6
 155 453 155 453 155 440 c 0,7,8
 155 422 155 422 173 408.5 c 128,-1,9
 191 395 191 395 207 395 c 0,10,11
 218 395 218 395 238 401 c 0,12,13
 256 407 256 407 263 407 c 0,14,15
 274 407 274 407 288 382.5 c 128,-1,16
 302 358 302 358 302 342 c 0,17,18
 302 331 302 331 294 331 c 0,19,20
 235 331 235 331 212.5 305.5 c 128,-1,21
 190 280 190 280 190 221 c 2,22,-1
 190 111 l 2,23,24
 190 85 190 85 201.5 70.5 c 128,-1,25
 213 56 213 56 235 56 c 0,26,27
 255 56 255 56 265 66.5 c 128,-1,28
 275 77 275 77 275 96 c 0,29,30
 275 113 275 113 264 122.5 c 128,-1,31
 253 132 253 132 235 132 c 0,32,33
 220 132 220 132 208 129 c 1,34,35
 204 136 204 136 204 145 c 0,36,37
 204 161 204 161 217.5 171.5 c 128,-1,38
 231 182 231 182 254 182 c 0,39,40
 291 182 291 182 313.5 161 c 128,-1,41
 336 140 336 140 336 99 c 0,42,43
 336 51 336 51 303.5 22 c 128,-1,44
 271 -7 271 -7 212 -7 c 0,45,46
 149 -7 149 -7 110.5 27.5 c 128,-1,47
 72 62 72 62 72 123 c 2,48,-1
 72 221 l 2,49,50
 72 300 72 300 126 345 c 1,51,52
 94 359 94 359 69.5 384 c 128,-1,53
 45 409 45 409 45 437 c 0,54,55
 45 470 45 470 74.5 504.5 c 128,-1,56
 104 539 104 539 160.5 562.5 c 128,-1,57
 217 586 217 586 294 586 c 0,58,59
 411 586 411 586 481.5 534.5 c 128,-1,60
 552 483 552 483 552 383 c 2,61,-1
 552 -220 l 1,62,-1
 433 -220 l 1,63,-1
 433 383 l 2,0,1
EndSplineSet
Substitution2: "Single Substitution lookup 14 subtable" uni0E24.short
Substitution2: "'aalt' Access All Alternates lookup 0 subtable" uni0E24.short
EndChar

StartChar: uni0E24.short
Encoding: 65543 -1 472
Width: 612
GlyphClass: 2
Flags: W
AnchorPoint: "Anchor-12" 552 550 basechar 0
AnchorPoint: "Anchor-11" 552 -160 basechar 0
LayerCount: 2
Fore
SplineSet
433 383 m 2,0,1
 433 442 433 442 398.5 475 c 128,-1,2
 364 508 364 508 294 508 c 0,3,4
 253 508 253 508 221 496.5 c 128,-1,5
 189 485 189 485 172 469 c 128,-1,6
 155 453 155 453 155 440 c 0,7,8
 155 422 155 422 173 408.5 c 128,-1,9
 191 395 191 395 207 395 c 0,10,11
 218 395 218 395 238 401 c 0,12,13
 256 407 256 407 263 407 c 0,14,15
 274 407 274 407 288 382.5 c 128,-1,16
 302 358 302 358 302 342 c 0,17,18
 302 331 302 331 294 331 c 0,19,20
 235 331 235 331 212.5 305.5 c 128,-1,21
 190 280 190 280 190 221 c 2,22,-1
 190 111 l 2,23,24
 190 85 190 85 201.5 70.5 c 128,-1,25
 213 56 213 56 235 56 c 0,26,27
 255 56 255 56 265 66.5 c 128,-1,28
 275 77 275 77 275 96 c 0,29,30
 275 113 275 113 264 122.5 c 128,-1,31
 253 132 253 132 235 132 c 0,32,33
 220 132 220 132 208 129 c 1,34,35
 204 136 204 136 204 145 c 0,36,37
 204 161 204 161 217.5 171.5 c 128,-1,38
 231 182 231 182 254 182 c 0,39,40
 291 182 291 182 313.5 161 c 128,-1,41
 336 140 336 140 336 99 c 0,42,43
 336 51 336 51 303.5 22 c 128,-1,44
 271 -7 271 -7 212 -7 c 0,45,46
 149 -7 149 -7 110.5 27.5 c 128,-1,47
 72 62 72 62 72 123 c 2,48,-1
 72 221 l 2,49,50
 72 300 72 300 126 345 c 1,51,52
 94 359 94 359 69.5 384 c 128,-1,53
 45 409 45 409 45 437 c 0,54,55
 45 470 45 470 74.5 504.5 c 128,-1,56
 104 539 104 539 160.5 562.5 c 128,-1,57
 217 586 217 586 294 586 c 0,58,59
 411 586 411 586 481.5 534.5 c 128,-1,60
 552 483 552 483 552 383 c 2,61,-1
 552 -160 l 1,62,-1
 433 -160 l 1,63,-1
 433 383 l 2,0,1
EndSplineSet
EndChar

StartChar: uni0E25
Encoding: 3621 3621 473
Width: 638
GlyphClass: 2
Flags: W
AnchorPoint: "Anchor-12" 558 550 basechar 0
AnchorPoint: "Anchor-11" 558 0 basechar 0
LayerCount: 2
Fore
SplineSet
562 275 m 0,1,2
 556 211 556 211 556 177 c 0,3,4
 556 152 556 152 562 88 c 0,5,6
 567 41 567 41 567 19 c 0,7,8
 567 0 567 0 555 0 c 2,9,-1
 443 0 l 1,10,11
 443 152 443 152 400 225 c 128,-1,12
 357 298 357 298 286 298 c 0,13,14
 239 298 239 298 212 266 c 128,-1,15
 185 234 185 234 185 169 c 0,16,17
 185 111 185 111 201 83 c 128,-1,18
 217 55 217 55 245 55 c 0,19,20
 264 55 264 55 274 65 c 128,-1,21
 284 75 284 75 284 91 c 0,22,23
 284 127 284 127 248 127 c 0,24,25
 234 127 234 127 216 119 c 1,26,27
 213 127 213 127 213 135 c 0,28,29
 213 151 213 151 226 162.5 c 128,-1,30
 239 174 239 174 262 174 c 0,31,32
 298 174 298 174 322 151.5 c 128,-1,33
 346 129 346 129 346 91 c 0,34,35
 346 45 346 45 317 18 c 128,-1,36
 288 -9 288 -9 226 -9 c 0,37,38
 155 -9 155 -9 113 39 c 128,-1,39
 71 87 71 87 71 179 c 0,40,41
 71 241 71 241 99 286.5 c 128,-1,42
 127 332 127 332 171.5 355.5 c 128,-1,43
 216 379 216 379 266 379 c 0,44,45
 329 379 329 379 374 354 c 128,-1,46
 419 329 419 329 445 285 c 1,47,48
 448 330 448 330 448 382 c 0,49,50
 447 438 447 438 412.5 468.5 c 128,-1,51
 378 499 378 499 321 499 c 0,52,53
 229 499 229 499 154 440 c 0,54,55
 152 439 152 439 146 434.5 c 128,-1,56
 140 430 140 430 134.5 428 c 128,-1,57
 129 426 129 426 123 426 c 0,58,59
 109 426 109 426 90.5 445.5 c 128,-1,60
 72 465 72 465 60 496 c 1,61,62
 99 534 99 534 166 560 c 128,-1,63
 233 586 233 586 322 586 c 0,64,65
 435 586 435 586 501.5 534.5 c 128,-1,66
 568 483 568 483 568 389 c 0,67,0
 568 345 568 345 562 275 c 0,1,2
EndSplineSet
EndChar

StartChar: uni0E26
Encoding: 3622 3622 474
Width: 620
GlyphClass: 2
Flags: W
AnchorPoint: "Anchor-12" 560 550 basechar 0
AnchorPoint: "Anchor-11" 560 -220 basechar 0
LayerCount: 2
Fore
SplineSet
442 377 m 2,0,1
 442 443 442 443 408.5 475.5 c 128,-1,2
 375 508 375 508 306 508 c 0,3,4
 264 508 264 508 232 497 c 128,-1,5
 200 486 200 486 182.5 470 c 128,-1,6
 165 454 165 454 165 441 c 0,7,8
 165 423 165 423 183 410 c 128,-1,9
 201 397 201 397 216 397 c 0,10,11
 224 397 224 397 233.5 400 c 128,-1,12
 243 403 243 403 247 404 c 0,13,14
 263 411 263 411 274 411 c 256,15,16
 285 411 285 411 298.5 387 c 128,-1,17
 312 363 312 363 312 347 c 0,18,19
 312 336 312 336 304 336 c 0,20,21
 265 336 265 336 243.5 317.5 c 128,-1,22
 222 299 222 299 222 262 c 0,23,24
 222 241 222 241 226 220.5 c 128,-1,25
 230 200 230 200 231 194 c 0,26,27
 242 150 242 150 242 111 c 0,28,29
 242 56 242 56 211 24.5 c 128,-1,30
 180 -7 180 -7 119 -7 c 0,31,32
 63 -7 63 -7 34 18.5 c 128,-1,33
 5 44 5 44 5 85 c 0,34,35
 5 122 5 122 27 143 c 128,-1,36
 49 164 49 164 78 164 c 0,37,38
 95 164 95 164 105 154 c 128,-1,39
 115 144 115 144 115 126 c 1,40,-1
 99 126 l 2,41,42
 82 126 82 126 72.5 116 c 128,-1,43
 63 106 63 106 63 90 c 0,44,45
 63 75 63 75 72.5 65 c 128,-1,46
 82 55 82 55 98 55 c 0,47,48
 116 55 116 55 125 66 c 128,-1,49
 134 77 134 77 134 95 c 256,50,51
 134 113 134 113 130.5 130 c 128,-1,52
 127 147 127 147 120 172 c 0,53,54
 112 200 112 200 108 219.5 c 128,-1,55
 104 239 104 239 104 262 c 0,56,57
 104 289 104 289 116 311 c 128,-1,58
 128 333 128 333 150 347 c 1,59,60
 111 358 111 358 83 383.5 c 128,-1,61
 55 409 55 409 55 438 c 0,62,63
 55 470 55 470 85 504.5 c 128,-1,64
 115 539 115 539 172 562.5 c 128,-1,65
 229 586 229 586 306 586 c 0,66,67
 423 586 423 586 491.5 535 c 128,-1,68
 560 484 560 484 560 377 c 2,69,-1
 560 -220 l 1,70,-1
 442 -220 l 1,71,-1
 442 377 l 2,0,1
EndSplineSet
Substitution2: "Single Substitution lookup 14 subtable" uni0E26.short
Substitution2: "'aalt' Access All Alternates lookup 0 subtable" uni0E26.short
EndChar

StartChar: uni0E26.short
Encoding: 65544 -1 475
Width: 620
GlyphClass: 2
Flags: W
AnchorPoint: "Anchor-12" 560 550 basechar 0
AnchorPoint: "Anchor-11" 560 -160 basechar 0
LayerCount: 2
Fore
SplineSet
442 377 m 2,0,1
 442 443 442 443 408.5 475.5 c 128,-1,2
 375 508 375 508 306 508 c 0,3,4
 264 508 264 508 232 497 c 128,-1,5
 200 486 200 486 182.5 470 c 128,-1,6
 165 454 165 454 165 441 c 0,7,8
 165 423 165 423 183 410 c 128,-1,9
 201 397 201 397 216 397 c 0,10,11
 224 397 224 397 233.5 400 c 128,-1,12
 243 403 243 403 247 404 c 0,13,14
 263 411 263 411 274 411 c 256,15,16
 285 411 285 411 298.5 387 c 128,-1,17
 312 363 312 363 312 347 c 0,18,19
 312 336 312 336 304 336 c 0,20,21
 265 336 265 336 243.5 317.5 c 128,-1,22
 222 299 222 299 222 262 c 0,23,24
 222 241 222 241 226 220.5 c 128,-1,25
 230 200 230 200 231 194 c 0,26,27
 242 150 242 150 242 111 c 0,28,29
 242 56 242 56 211 24.5 c 128,-1,30
 180 -7 180 -7 119 -7 c 0,31,32
 63 -7 63 -7 34 18.5 c 128,-1,33
 5 44 5 44 5 85 c 0,34,35
 5 122 5 122 27 143 c 128,-1,36
 49 164 49 164 78 164 c 0,37,38
 95 164 95 164 105 154 c 128,-1,39
 115 144 115 144 115 126 c 1,40,-1
 99 126 l 2,41,42
 82 126 82 126 72.5 116 c 128,-1,43
 63 106 63 106 63 90 c 0,44,45
 63 75 63 75 72.5 65 c 128,-1,46
 82 55 82 55 98 55 c 0,47,48
 116 55 116 55 125 66 c 128,-1,49
 134 77 134 77 134 95 c 256,50,51
 134 113 134 113 130.5 130 c 128,-1,52
 127 147 127 147 120 172 c 0,53,54
 112 200 112 200 108 219.5 c 128,-1,55
 104 239 104 239 104 262 c 0,56,57
 104 289 104 289 116 311 c 128,-1,58
 128 333 128 333 150 347 c 1,59,60
 111 358 111 358 83 383.5 c 128,-1,61
 55 409 55 409 55 438 c 0,62,63
 55 470 55 470 85 504.5 c 128,-1,64
 115 539 115 539 172 562.5 c 128,-1,65
 229 586 229 586 306 586 c 0,66,67
 423 586 423 586 491.5 535 c 128,-1,68
 560 484 560 484 560 377 c 2,69,-1
 560 -160 l 1,70,-1
 442 -160 l 1,71,-1
 442 377 l 2,0,1
EndSplineSet
EndChar

StartChar: uni0E27
Encoding: 3623 3623 476
Width: 528
GlyphClass: 2
Flags: W
AnchorPoint: "Anchor-12" 461 550 basechar 0
AnchorPoint: "Anchor-11" 461 0 basechar 0
LayerCount: 2
Fore
SplineSet
214 21.5 m 128,-1,1
 180 51 180 51 180 98 c 0,2,3
 180 137 180 137 205 161 c 128,-1,4
 230 185 230 185 264 185 c 0,5,6
 287 185 287 185 301 174.5 c 128,-1,7
 315 164 315 164 315 147 c 0,8,9
 315 139 315 139 313 135 c 1,10,11
 302 139 302 139 285 139 c 0,12,13
 267 139 267 139 256 128.5 c 128,-1,14
 245 118 245 118 245 101 c 0,15,16
 245 83 245 83 256.5 72.5 c 128,-1,17
 268 62 268 62 287 62 c 0,18,19
 315 62 315 62 329.5 82.5 c 128,-1,20
 344 103 344 103 344 140 c 2,21,-1
 344 378 l 2,22,23
 344 437 344 437 320.5 468 c 128,-1,24
 297 499 297 499 242 499 c 0,25,26
 202 499 202 499 171.5 481.5 c 128,-1,27
 141 464 141 464 114 435 c 0,28,29
 106 429 106 429 100.5 426.5 c 128,-1,30
 95 424 95 424 87 424 c 0,31,32
 53 424 53 424 21 492 c 1,33,34
 56 531 56 531 116.5 558.5 c 128,-1,35
 177 586 177 586 252 586 c 0,36,37
 346 586 346 586 403.5 531.5 c 128,-1,38
 461 477 461 477 461 380 c 2,39,-1
 461 153 l 2,40,41
 461 77 461 77 419 34.5 c 128,-1,42
 377 -8 377 -8 306 -8 c 0,43,0
 248 -8 248 -8 214 21.5 c 128,-1,1
EndSplineSet
EndChar

StartChar: uni0E28
Encoding: 3624 3624 477
Width: 626
GlyphClass: 2
Flags: W
AnchorPoint: "Anchor-12" 571 550 basechar 0
AnchorPoint: "Anchor-11" 571 0 basechar 0
LayerCount: 2
Fore
SplineSet
595 527.5 m 128,-1,1
 573 507 573 507 533 497 c 1,2,3
 571 442 571 442 571 353 c 2,4,-1
 571 0 l 1,5,-1
 452 0 l 1,6,-1
 452 348 l 2,7,8
 452 426 452 426 424.5 466.5 c 128,-1,9
 397 507 397 507 320 507 c 0,10,11
 247 507 247 507 208.5 467.5 c 128,-1,12
 170 428 170 428 170 355 c 0,13,14
 170 315 170 315 178 281 c 1,15,16
 199 322 199 322 234.5 346 c 128,-1,17
 270 370 270 370 317 370 c 256,18,19
 364 370 364 370 391 344.5 c 128,-1,20
 418 319 418 319 418 275 c 256,21,22
 418 231 418 231 392 206.5 c 128,-1,23
 366 182 366 182 323 182 c 0,24,25
 297 182 297 182 278 196.5 c 128,-1,26
 259 211 259 211 259 231 c 0,27,28
 259 242 259 242 264 251 c 128,-1,29
 269 260 269 260 278 262 c 1,30,31
 286 247 286 247 296 240 c 128,-1,32
 306 233 306 233 321 233 c 0,33,34
 338 233 338 233 347 243.5 c 128,-1,35
 356 254 356 254 356 271 c 0,36,37
 356 287 356 287 344.5 296.5 c 128,-1,38
 333 306 333 306 314 306 c 0,39,40
 197 306 197 306 191 0 c 1,41,-1
 86 0 l 2,42,43
 71 0 71 0 71 20 c 0,44,45
 71 44 71 44 79.5 73 c 128,-1,46
 88 102 88 102 102 139 c 0,47,48
 113 164 113 164 113 171 c 0,49,50
 113 176 113 176 109 183.5 c 128,-1,51
 105 191 105 191 99 200 c 0,52,53
 78 235 78 235 65 269.5 c 128,-1,54
 52 304 52 304 52 355 c 0,55,56
 52 425 52 425 85.5 477.5 c 128,-1,57
 119 530 119 530 179.5 558 c 128,-1,58
 240 586 240 586 320 586 c 0,59,60
 404 586 404 586 459 560 c 1,61,62
 490 571 490 571 513.5 593 c 128,-1,63
 537 615 537 615 549 641 c 1,64,65
 579 637 579 637 598 616.5 c 128,-1,66
 617 596 617 596 617 574 c 0,67,0
 617 548 617 548 595 527.5 c 128,-1,1
EndSplineSet
EndChar

StartChar: uni0E29
Encoding: 3625 3625 478
Width: 692
GlyphClass: 2
Flags: W
AnchorPoint: "Anchor-12" 625 550 basechar 0
AnchorPoint: "Anchor-11" 625 0 basechar 0
LayerCount: 2
Fore
SplineSet
625 576 m 1,0,-1
 625 190 l 2,1,2
 625 132 625 132 618.5 102 c 128,-1,3
 612 72 612 72 593 50 c 0,4,5
 567 22 567 22 509.5 6.5 c 128,-1,6
 452 -9 452 -9 389 -9 c 0,7,8
 318 -9 318 -9 260.5 6 c 128,-1,9
 203 21 203 21 179 50 c 0,10,11
 162 71 162 71 155.5 102 c 128,-1,12
 149 133 149 133 149 183 c 2,13,-1
 149 480 l 2,14,15
 149 500 149 500 139.5 512.5 c 128,-1,16
 130 525 130 525 110 525 c 0,17,18
 91 525 91 525 80.5 514.5 c 128,-1,19
 70 504 70 504 70 485 c 0,20,21
 70 465 70 465 82 454 c 128,-1,22
 94 443 94 443 114 443 c 2,23,-1
 135 443 l 1,24,25
 135 397 135 397 90 397 c 0,26,27
 57 397 57 397 33.5 420.5 c 128,-1,28
 10 444 10 444 10 485 c 0,29,30
 10 529 10 529 43.5 557.5 c 128,-1,31
 77 586 77 586 130 586 c 0,32,33
 194 586 194 586 231 552.5 c 128,-1,34
 268 519 268 519 268 458 c 2,35,-1
 267 176 l 2,36,37
 267 144 267 144 271 124.5 c 128,-1,38
 275 105 275 105 285 95 c 0,39,40
 313 68 313 68 389 68 c 0,41,42
 464 68 464 68 490 95 c 0,43,44
 501 106 501 106 504 123.5 c 128,-1,45
 507 141 507 141 507 173 c 2,46,-1
 507 212 l 1,47,48
 494 195 494 195 469 184 c 128,-1,49
 444 173 444 173 410 173 c 0,50,51
 361 173 361 173 325.5 204.5 c 128,-1,52
 290 236 290 236 290 285 c 0,53,54
 290 326 290 326 318 350.5 c 128,-1,55
 346 375 346 375 382 375 c 0,56,57
 415 375 415 375 437.5 356 c 128,-1,58
 460 337 460 337 460 302 c 0,59,60
 460 280 460 280 447 267.5 c 128,-1,61
 434 255 434 255 414 255 c 0,62,63
 403 255 403 255 391 267 c 1,64,65
 410 280 410 280 410 298 c 0,66,67
 410 310 410 310 403 318 c 128,-1,68
 396 326 396 326 384 326 c 0,69,70
 371 326 371 326 362.5 317 c 128,-1,71
 354 308 354 308 354 293 c 0,72,73
 354 267 354 267 372 251 c 128,-1,74
 390 235 390 235 422 235 c 0,75,76
 465 235 465 235 486 259.5 c 128,-1,77
 507 284 507 284 507 341 c 2,78,-1
 507 576 l 1,79,-1
 625 576 l 1,0,-1
EndSplineSet
EndChar

StartChar: uni0E2A
Encoding: 3626 3626 479
Width: 637
GlyphClass: 2
Flags: W
AnchorPoint: "Anchor-12" 560 550 basechar 0
AnchorPoint: "Anchor-11" 560 0 basechar 0
LayerCount: 2
Fore
SplineSet
605 518 m 128,-1,1
 583 498 583 498 542 489 c 1,2,3
 568 446 568 446 568 389 c 0,4,5
 568 345 568 345 562 275 c 0,6,7
 556 211 556 211 556 177 c 0,8,9
 556 152 556 152 562 88 c 0,10,11
 567 41 567 41 567 19 c 0,12,13
 567 0 567 0 555 0 c 2,14,-1
 443 0 l 1,15,16
 443 152 443 152 400 225 c 128,-1,17
 357 298 357 298 286 298 c 0,18,19
 239 298 239 298 212 266 c 128,-1,20
 185 234 185 234 185 169 c 0,21,22
 185 111 185 111 201 83 c 128,-1,23
 217 55 217 55 245 55 c 0,24,25
 264 55 264 55 274 65 c 128,-1,26
 284 75 284 75 284 91 c 0,27,28
 284 127 284 127 248 127 c 0,29,30
 234 127 234 127 216 119 c 1,31,32
 213 127 213 127 213 135 c 0,33,34
 213 151 213 151 226 162.5 c 128,-1,35
 239 174 239 174 262 174 c 0,36,37
 298 174 298 174 322 151.5 c 128,-1,38
 346 129 346 129 346 91 c 0,39,40
 346 45 346 45 317 18 c 128,-1,41
 288 -9 288 -9 226 -9 c 0,42,43
 155 -9 155 -9 113 39 c 128,-1,44
 71 87 71 87 71 179 c 0,45,46
 71 241 71 241 99 286.5 c 128,-1,47
 127 332 127 332 171.5 355.5 c 128,-1,48
 216 379 216 379 266 379 c 0,49,50
 329 379 329 379 374 354 c 128,-1,51
 419 329 419 329 445 285 c 1,52,53
 448 330 448 330 448 382 c 0,54,55
 447 438 447 438 412.5 468.5 c 128,-1,56
 378 499 378 499 321 499 c 0,57,58
 229 499 229 499 154 440 c 0,59,60
 152 439 152 439 146 434.5 c 128,-1,61
 140 430 140 430 134.5 428 c 128,-1,62
 129 426 129 426 123 426 c 0,63,64
 109 426 109 426 90.5 445.5 c 128,-1,65
 72 465 72 465 60 496 c 1,66,67
 99 534 99 534 166 560 c 128,-1,68
 233 586 233 586 322 586 c 256,69,70
 411 586 411 586 472 554 c 1,71,72
 502 565 502 565 524 587 c 128,-1,73
 546 609 546 609 559 634 c 1,74,75
 589 630 589 630 608 610 c 128,-1,76
 627 590 627 590 627 568 c 0,77,0
 627 538 627 538 605 518 c 128,-1,1
EndSplineSet
EndChar

StartChar: uni0E2B
Encoding: 3627 3627 480
Width: 685
GlyphClass: 2
Flags: W
AnchorPoint: "Anchor-12" 619 550 basechar 0
AnchorPoint: "Anchor-11" 619 0 basechar 0
LayerCount: 2
Fore
SplineSet
590 356 m 1,1,2
 619 322 619 322 619 288 c 2,3,-1
 619 0 l 1,4,-1
 501 0 l 1,5,-1
 501 265 l 2,6,7
 501 293 501 293 497 308 c 1,8,9
 416 271 416 271 367.5 238 c 128,-1,10
 319 205 319 205 293 164 c 128,-1,11
 267 123 267 123 267 66 c 2,12,-1
 267 0 l 1,13,-1
 160 0 l 2,14,15
 145 0 145 0 145 15 c 2,16,-1
 146 42 l 2,17,18
 149 105 149 105 149 116 c 2,19,-1
 149 480 l 2,20,21
 149 500 149 500 139.5 512.5 c 128,-1,22
 130 525 130 525 110 525 c 0,23,24
 91 525 91 525 80.5 514.5 c 128,-1,25
 70 504 70 504 70 485 c 0,26,27
 70 465 70 465 82 454 c 128,-1,28
 94 443 94 443 114 443 c 2,29,-1
 135 443 l 1,30,31
 135 397 135 397 90 397 c 0,32,33
 57 397 57 397 33.5 420.5 c 128,-1,34
 10 444 10 444 10 485 c 0,35,36
 10 529 10 529 43.5 557.5 c 128,-1,37
 77 586 77 586 130 586 c 0,38,39
 194 586 194 586 231.5 552.5 c 128,-1,40
 269 519 269 519 268 458 c 2,41,-1
 267 246 l 1,42,43
 287 272 287 272 319 291.5 c 128,-1,44
 351 311 351 311 416 345 c 2,45,-1
 453 364 l 1,46,47
 430 388 430 388 416.5 414 c 128,-1,48
 403 440 403 440 403 473 c 0,49,50
 403 522 403 522 438.5 554 c 128,-1,51
 474 586 474 586 529 586 c 0,52,53
 585 586 585 586 620.5 556.5 c 128,-1,54
 656 527 656 527 656 475 c 0,55,0
 656 400 656 400 590 356 c 1,1,2
493.5 510 m 128,-1,57
 480 497 480 497 480 475 c 0,58,59
 480 455 480 455 491.5 439.5 c 128,-1,60
 503 424 503 424 530 405 c 1,61,62
 555 421 555 421 567 438 c 128,-1,63
 579 455 579 455 579 476 c 256,64,65
 579 497 579 497 565.5 510 c 128,-1,66
 552 523 552 523 529 523 c 0,67,56
 507 523 507 523 493.5 510 c 128,-1,57
EndSplineSet
EndChar

StartChar: uni0E2C
Encoding: 3628 3628 481
Width: 768
GlyphClass: 2
Flags: W
AnchorPoint: "Anchor-12" 694 550 basechar 0
AnchorPoint: "Anchor-11" 694 0 basechar 0
LayerCount: 2
Fore
SplineSet
731 589 m 128,-1,1
 748 576 748 576 748 559 c 0,2,3
 748 539 748 539 737 520 c 0,4,5
 719 490 719 490 693 471 c 1,6,7
 694 466 694 466 694 457 c 2,8,-1
 694 190 l 1,9,-1
 694 137 l 2,10,11
 694 41 694 41 698 20 c 0,12,13
 699 16 699 16 699 11 c 0,14,15
 699 4 699 4 696 2 c 128,-1,16
 693 0 693 0 688 0 c 2,17,-1
 578 0 l 1,18,-1
 578 14 l 2,19,20
 578 66 578 66 548 118 c 128,-1,21
 518 170 518 170 457 247 c 2,22,-1
 433 278 l 1,23,-1
 413 253 l 2,24,25
 348 173 348 173 315.5 119.5 c 128,-1,26
 283 66 283 66 283 14 c 2,27,-1
 283 0 l 1,28,-1
 170 0 l 2,29,30
 165 0 165 0 162 2 c 128,-1,31
 159 4 159 4 159 11 c 0,32,33
 159 16 159 16 160 20 c 0,34,35
 165 47 165 47 167 74.5 c 128,-1,36
 169 102 169 102 169 190 c 2,37,-1
 169 480 l 2,38,39
 169 500 169 500 159.5 512.5 c 128,-1,40
 150 525 150 525 130 525 c 0,41,42
 111 525 111 525 100.5 514.5 c 128,-1,43
 90 504 90 504 90 485 c 0,44,45
 90 465 90 465 102 454 c 128,-1,46
 114 443 114 443 134 443 c 2,47,-1
 155 443 l 1,48,49
 155 397 155 397 110 397 c 0,50,51
 77 397 77 397 53.5 420.5 c 128,-1,52
 30 444 30 444 30 485 c 0,53,54
 30 529 30 529 63.5 557.5 c 128,-1,55
 97 586 97 586 150 586 c 0,56,57
 214 586 214 586 251.5 552.5 c 128,-1,58
 289 519 289 519 288 458 c 2,59,-1
 287 204 l 1,60,61
 308 244 308 244 343 290 c 128,-1,62
 378 336 378 336 429 397 c 1,63,-1
 437 397 l 1,64,-1
 464 361 l 2,65,66
 511 297 511 297 535.5 262.5 c 128,-1,67
 560 228 560 228 576 196 c 1,68,-1
 576 428 l 1,69,70
 550 425 550 425 522 425 c 0,71,72
 464 425 464 425 426.5 451 c 128,-1,73
 389 477 389 477 389 517 c 0,74,75
 389 556 389 556 423 581 c 128,-1,76
 457 606 457 606 512 606 c 0,77,78
 551 606 551 606 588 591.5 c 128,-1,79
 625 577 625 577 651 552 c 1,80,81
 673 577 673 577 688 607 c 1,82,0
 714 602 714 602 731 589 c 128,-1,1
575 493 m 1,84,85
 570 517 570 517 550.5 531.5 c 128,-1,86
 531 546 531 546 506 546 c 0,87,88
 484 546 484 546 469 537.5 c 128,-1,89
 454 529 454 529 454 516 c 0,90,91
 454 501 454 501 470.5 491.5 c 128,-1,92
 487 482 487 482 521 482 c 0,93,83
 548 482 548 482 575 493 c 1,84,85
EndSplineSet
Substitution2: "Single Substitution lookup 14 subtable" loChulathai.short
Substitution2: "'aalt' Access All Alternates lookup 0 subtable" loChulathai.short
EndChar

StartChar: uni0E2D
Encoding: 3629 3629 483
Width: 622
GlyphClass: 2
Flags: W
AnchorPoint: "Anchor-12" 545 550 basechar 0
AnchorPoint: "Anchor-11" 545 0 basechar 0
LayerCount: 2
Fore
SplineSet
123.5 42.5 m 128,-1,1
 67 94 67 94 67 200 c 0,2,3
 67 275 67 275 111 315.5 c 128,-1,4
 155 356 155 356 221 356 c 0,5,6
 274 356 274 356 302.5 330 c 128,-1,7
 331 304 331 304 331 257 c 0,8,9
 331 217 331 217 308.5 195 c 128,-1,10
 286 173 286 173 251 173 c 0,11,12
 225 173 225 173 210.5 187.5 c 128,-1,13
 196 202 196 202 196 227 c 1,14,15
 209 221 209 221 228 221 c 0,16,17
 245 221 245 221 256.5 231 c 128,-1,18
 268 241 268 241 268 259 c 0,19,20
 268 292 268 292 232 292 c 0,21,22
 206 292 206 292 192.5 269.5 c 128,-1,23
 179 247 179 247 179 210 c 0,24,25
 179 157 179 157 191.5 127.5 c 128,-1,26
 204 98 204 98 232 85.5 c 128,-1,27
 260 73 260 73 308 73 c 0,28,29
 357 73 357 73 383 91 c 128,-1,30
 409 109 409 109 419.5 150.5 c 128,-1,31
 430 192 430 192 430 267 c 2,32,-1
 430 307 l 2,33,34
 430 385 430 385 415 426.5 c 128,-1,35
 400 468 400 468 370 483.5 c 128,-1,36
 340 499 340 499 290 499 c 0,37,38
 253 499 253 499 217.5 482 c 128,-1,39
 182 465 182 465 148 440 c 0,40,41
 127 426 127 426 111 426 c 0,42,43
 97 426 97 426 80.5 446.5 c 128,-1,44
 64 467 64 467 52 499 c 1,45,46
 92 535 92 535 156.5 560.5 c 128,-1,47
 221 586 221 586 297 586 c 0,48,49
 382 586 382 586 438 562 c 128,-1,50
 494 538 494 538 524.5 477 c 128,-1,51
 555 416 555 416 555 307 c 2,52,-1
 555 267 l 2,53,54
 555 169 555 169 532 109.5 c 128,-1,55
 509 50 509 50 455 20.5 c 128,-1,56
 401 -9 401 -9 308 -9 c 0,57,0
 180 -9 180 -9 123.5 42.5 c 128,-1,1
EndSplineSet
EndChar

